<ttFont>
    <TTGlyph name=".notdef" xMin="32" yMin="0" xMax="440" yMax="780">
      <contour>
        <pt x="32" y="0" on="1"/>
        <pt x="32" y="780" on="1"/>
        <pt x="440" y="780" on="1"/>
        <pt x="440" y="0" on="1"/>
      </contour>
      <contour>
        <pt x="58" y="26" on="1"/>
        <pt x="414" y="26" on="1"/>
        <pt x="414" y="754" on="1"/>
        <pt x="58" y="754" on="1"/>
      </contour>
    </TTGlyph>
    <TTGlyph name="A" xMin="30" yMin="0" xMax="580" yMax="698">
      <contour>
        <pt x="541" y="0" on="1"/>
        <pt x="460" y="227" on="1"/>
        <pt x="149" y="227" on="1"/>
        <pt x="68" y="0" on="1"/>
        <pt x="30" y="0" on="1"/>
        <pt x="281" y="698" on="1"/>
        <pt x="329" y="698" on="1"/>
        <pt x="580" y="0" on="1"/>
      </contour>
      <contour>
        <pt x="306" y="662" on="1"/>
        <pt x="302" y="662" on="1"/>
        <pt x="159" y="259" on="1"/>
        <pt x="450" y="259" on="1"/>
      </contour>
    </TTGlyph>
    <TTGlyph name="AE" xMin="2" yMin="0" xMax="802" yMax="698">
      <contour>
        <pt x="410" y="227" on="1"/>
        <pt x="164" y="227" on="1"/>
        <pt x="41" y="0" on="1"/>
        <pt x="2" y="0" on="1"/>
        <pt x="379" y="698" on="1"/>
        <pt x="802" y="698" on="1"/>
        <pt x="802" y="665" on="1"/>
        <pt x="447" y="665" on="1"/>
        <pt x="447" y="371" on="1"/>
        <pt x="788" y="371" on="1"/>
        <pt x="788" y="338" on="1"/>
        <pt x="447" y="338" on="1"/>
        <pt x="447" y="33" on="1"/>
        <pt x="802" y="33" on="1"/>
        <pt x="802" y="0" on="1"/>
        <pt x="410" y="0" on="1"/>
      </contour>
      <contour>
        <pt x="399" y="665" on="1"/>
        <pt x="180" y="259" on="1"/>
        <pt x="410" y="259" on="1"/>
        <pt x="410" y="665" on="1"/>
      </contour>
    </TTGlyph>
    <TTGlyph name="Aacute" xMin="30" yMin="0" xMax="580" yMax="935">
      <component glyphName="A" x="0" y="0" flags="0x204"/>
      <component glyphName="acute.case" x="4" y="0" flags="0x4"/>
    </TTGlyph>
    <TTGlyph name="Acircumflex" xMin="30" yMin="0" xMax="580" yMax="926">
      <component glyphName="A" x="0" y="0" flags="0x204"/>
      <component glyphName="circumflex.case" x="4" y="0" flags="0x4"/>
    </TTGlyph>
    <TTGlyph name="Adieresis" xMin="30" yMin="0" xMax="580" yMax="874">
      <component glyphName="A" x="0" y="0" flags="0x204"/>
      <component glyphName="dieresis.case" x="4" y="0" flags="0x4"/>
    </TTGlyph>
    <TTGlyph name="Agrave" xMin="30" yMin="0" xMax="580" yMax="935">
      <component glyphName="A" x="0" y="0" flags="0x204"/>
      <component glyphName="grave.case" x="4" y="0" flags="0x4"/>
    </TTGlyph>
    <TTGlyph name="Aring" xMin="30" yMin="0" xMax="580" yMax="957">
      <component glyphName="A" x="0" y="0" flags="0x204"/>
      <component glyphName="ring.case" x="4" y="0" flags="0x4"/>
    </TTGlyph>
    <TTGlyph name="Atilde" xMin="30" yMin="0" xMax="580" yMax="886">
      <component glyphName="A" x="0" y="0" flags="0x204"/>
      <component glyphName="tilde.case" x="4" y="0" flags="0x4"/>
    </TTGlyph>
    <TTGlyph name="B" xMin="104" yMin="0" xMax="559" yMax="698">
      <contour>
        <pt x="104" y="698" on="1"/>
        <pt x="365" y="698" on="1"/>
        <pt x="443" y="698" on="0"/>
        <pt x="529" y="609" on="0"/>
        <pt x="529" y="526" on="1"/>
        <pt x="529" y="457" on="0"/>
        <pt x="472" y="383" on="0"/>
        <pt x="428" y="370" on="1"/>
        <pt x="428" y="367" on="1"/>
        <pt x="487" y="357" on="0"/>
        <pt x="559" y="270" on="0"/>
        <pt x="559" y="192" on="1"/>
        <pt x="559" y="105" on="0"/>
        <pt x="468" y="0" on="0"/>
        <pt x="384" y="0" on="1"/>
        <pt x="104" y="0" on="1"/>
      </contour>
      <contour>
        <pt x="141" y="33" on="1"/>
        <pt x="378" y="33" on="1"/>
        <pt x="414" y="33" on="0"/>
        <pt x="467" y="55" on="0"/>
        <pt x="503" y="93" on="0"/>
        <pt x="520" y="143" on="0"/>
        <pt x="520" y="171" on="1"/>
        <pt x="520" y="211" on="1"/>
        <pt x="520" y="239" on="0"/>
        <pt x="503" y="290" on="0"/>
        <pt x="467" y="328" on="0"/>
        <pt x="414" y="350" on="0"/>
        <pt x="378" y="350" on="1"/>
        <pt x="141" y="350" on="1"/>
      </contour>
      <contour>
        <pt x="141" y="382" on="1"/>
        <pt x="362" y="382" on="1"/>
        <pt x="394" y="382" on="0"/>
        <pt x="442" y="402" on="0"/>
        <pt x="474" y="435" on="0"/>
        <pt x="490" y="479" on="0"/>
        <pt x="490" y="504" on="1"/>
        <pt x="490" y="544" on="1"/>
        <pt x="490" y="569" on="0"/>
        <pt x="474" y="613" on="0"/>
        <pt x="442" y="646" on="0"/>
        <pt x="394" y="665" on="0"/>
        <pt x="362" y="665" on="1"/>
        <pt x="141" y="665" on="1"/>
      </contour>
    </TTGlyph>
    <TTGlyph name="C" xMin="67" yMin="-12" xMax="558" yMax="710">
      <contour>
        <pt x="331" y="-12" on="1"/>
        <pt x="205" y="-12" on="0"/>
        <pt x="67" y="168" on="0"/>
        <pt x="67" y="348" on="1"/>
        <pt x="67" y="528" on="0"/>
        <pt x="205" y="710" on="0"/>
        <pt x="331" y="710" on="1"/>
        <pt x="411" y="710" on="0"/>
        <pt x="524" y="631" on="0"/>
        <pt x="553" y="565" on="1"/>
        <pt x="522" y="548" on="1"/>
        <pt x="496" y="608" on="0"/>
        <pt x="399" y="677" on="0"/>
        <pt x="331" y="677" on="1"/>
        <pt x="226" y="677" on="0"/>
        <pt x="107" y="525" on="0"/>
        <pt x="107" y="376" on="1"/>
        <pt x="107" y="320" on="1"/>
        <pt x="107" y="171" on="0"/>
        <pt x="226" y="21" on="0"/>
        <pt x="331" y="21" on="1"/>
        <pt x="404" y="21" on="0"/>
        <pt x="503" y="94" on="0"/>
        <pt x="528" y="158" on="1"/>
        <pt x="558" y="142" on="1"/>
        <pt x="529" y="72" on="0"/>
        <pt x="414" y="-12" on="0"/>
      </contour>
    </TTGlyph>
    <TTGlyph name="Ccedilla" xMin="67" yMin="-203" xMax="558" yMax="710">
      <contour>
        <pt x="331" y="677" on="1"/>
        <pt x="226" y="677" on="0"/>
        <pt x="107" y="525" on="0"/>
        <pt x="107" y="376" on="1"/>
        <pt x="107" y="320" on="1"/>
        <pt x="107" y="171" on="0"/>
        <pt x="226" y="21" on="0"/>
        <pt x="331" y="21" on="1"/>
        <pt x="404" y="21" on="0"/>
        <pt x="503" y="94" on="0"/>
        <pt x="528" y="158" on="1"/>
        <pt x="558" y="142" on="1"/>
        <pt x="531" y="75" on="0"/>
        <pt x="422" y="-8" on="0"/>
        <pt x="345" y="-12" on="1"/>
        <pt x="331" y="-70" on="1"/>
        <pt x="333" y="-72" on="1"/>
        <pt x="341" y="-70" on="0"/>
        <pt x="358" y="-69" on="0"/>
        <pt x="366" y="-69" on="1"/>
        <pt x="395" y="-69" on="0"/>
        <pt x="433" y="-101" on="0"/>
        <pt x="433" y="-129" on="1"/>
        <pt x="433" y="-161" on="0"/>
        <pt x="384" y="-203" on="0"/>
        <pt x="344" y="-203" on="1"/>
        <pt x="312" y="-203" on="0"/>
        <pt x="268" y="-183" on="0"/>
        <pt x="259" y="-169" on="1"/>
        <pt x="278" y="-149" on="1"/>
        <pt x="288" y="-162" on="0"/>
        <pt x="321" y="-177" on="0"/>
        <pt x="344" y="-177" on="1"/>
        <pt x="369" y="-177" on="0"/>
        <pt x="401" y="-153" on="0"/>
        <pt x="401" y="-130" on="1"/>
        <pt x="401" y="-112" on="0"/>
        <pt x="374" y="-87" on="0"/>
        <pt x="338" y="-85" on="1"/>
        <pt x="303" y="-82" on="1"/>
        <pt x="319" y="-12" on="1"/>
        <pt x="198" y="-8" on="0"/>
        <pt x="67" y="172" on="0"/>
        <pt x="67" y="348" on="1"/>
        <pt x="67" y="528" on="0"/>
        <pt x="205" y="710" on="0"/>
        <pt x="331" y="710" on="1"/>
        <pt x="411" y="710" on="0"/>
        <pt x="524" y="631" on="0"/>
        <pt x="553" y="565" on="1"/>
        <pt x="522" y="548" on="1"/>
        <pt x="496" y="608" on="0"/>
        <pt x="399" y="677" on="0"/>
      </contour>
    </TTGlyph>
    <TTGlyph name="D" xMin="104" yMin="0" xMax="594" yMax="698">
      <contour>
        <pt x="104" y="698" on="1"/>
        <pt x="316" y="698" on="1"/>
        <pt x="454" y="698" on="0"/>
        <pt x="594" y="523" on="0"/>
        <pt x="594" y="349" on="1"/>
        <pt x="594" y="175" on="0"/>
        <pt x="454" y="0" on="0"/>
        <pt x="316" y="0" on="1"/>
        <pt x="104" y="0" on="1"/>
      </contour>
      <contour>
        <pt x="316" y="33" on="1"/>
        <pt x="376" y="33" on="0"/>
        <pt x="465" y="72" on="0"/>
        <pt x="525" y="145" on="0"/>
        <pt x="554" y="249" on="0"/>
        <pt x="554" y="313" on="1"/>
        <pt x="554" y="385" on="1"/>
        <pt x="554" y="449" on="0"/>
        <pt x="525" y="553" on="0"/>
        <pt x="465" y="626" on="0"/>
        <pt x="376" y="665" on="0"/>
        <pt x="316" y="665" on="1"/>
        <pt x="141" y="665" on="1"/>
        <pt x="141" y="33" on="1"/>
      </contour>
    </TTGlyph>
    <TTGlyph name="Dcroat" xMin="25" yMin="0" xMax="597" yMax="698">
      <contour>
        <pt x="107" y="354" on="1"/>
        <pt x="25" y="354" on="1"/>
        <pt x="25" y="384" on="1"/>
        <pt x="107" y="384" on="1"/>
        <pt x="107" y="698" on="1"/>
        <pt x="319" y="698" on="1"/>
        <pt x="457" y="698" on="0"/>
        <pt x="597" y="523" on="0"/>
        <pt x="597" y="349" on="1"/>
        <pt x="597" y="175" on="0"/>
        <pt x="457" y="0" on="0"/>
        <pt x="319" y="0" on="1"/>
        <pt x="107" y="0" on="1"/>
      </contour>
      <contour>
        <pt x="319" y="33" on="1"/>
        <pt x="379" y="33" on="0"/>
        <pt x="468" y="72" on="0"/>
        <pt x="528" y="145" on="0"/>
        <pt x="557" y="249" on="0"/>
        <pt x="557" y="313" on="1"/>
        <pt x="557" y="385" on="1"/>
        <pt x="557" y="449" on="0"/>
        <pt x="528" y="553" on="0"/>
        <pt x="468" y="626" on="0"/>
        <pt x="379" y="665" on="0"/>
        <pt x="319" y="665" on="1"/>
        <pt x="144" y="665" on="1"/>
        <pt x="144" y="384" on="1"/>
        <pt x="308" y="384" on="1"/>
        <pt x="308" y="354" on="1"/>
        <pt x="144" y="354" on="1"/>
        <pt x="144" y="33" on="1"/>
      </contour>
    </TTGlyph>
    <TTGlyph name="Delta" xMin="40" yMin="0" xMax="570" yMax="698">
      <contour>
        <pt x="40" y="33" on="1"/>
        <pt x="281" y="698" on="1"/>
        <pt x="329" y="698" on="1"/>
        <pt x="570" y="33" on="1"/>
        <pt x="570" y="0" on="1"/>
        <pt x="40" y="0" on="1"/>
      </contour>
      <contour>
        <pt x="306" y="662" on="1"/>
        <pt x="303" y="662" on="1"/>
        <pt x="78" y="33" on="1"/>
        <pt x="531" y="33" on="1"/>
      </contour>
    </TTGlyph>
    <TTGlyph name="E" xMin="104" yMin="0" xMax="496" yMax="698">
      <contour>
        <pt x="104" y="0" on="1"/>
        <pt x="104" y="698" on="1"/>
        <pt x="496" y="698" on="1"/>
        <pt x="496" y="665" on="1"/>
        <pt x="141" y="665" on="1"/>
        <pt x="141" y="371" on="1"/>
        <pt x="482" y="371" on="1"/>
        <pt x="482" y="338" on="1"/>
        <pt x="141" y="338" on="1"/>
        <pt x="141" y="33" on="1"/>
        <pt x="496" y="33" on="1"/>
        <pt x="496" y="0" on="1"/>
      </contour>
    </TTGlyph>
    <TTGlyph name="Eacute" xMin="104" yMin="0" xMax="496" yMax="935">
      <component glyphName="E" x="0" y="0" flags="0x204"/>
      <component glyphName="acute.case" x="0" y="0" flags="0x4"/>
    </TTGlyph>
    <TTGlyph name="Ecircumflex" xMin="104" yMin="0" xMax="496" yMax="926">
      <component glyphName="E" x="0" y="0" flags="0x204"/>
      <component glyphName="circumflex.case" x="0" y="0" flags="0x4"/>
    </TTGlyph>
    <TTGlyph name="Edieresis" xMin="104" yMin="0" xMax="496" yMax="874">
      <component glyphName="E" x="0" y="0" flags="0x204"/>
      <component glyphName="dieresis.case" x="0" y="0" flags="0x4"/>
    </TTGlyph>
    <TTGlyph name="Egrave" xMin="104" yMin="0" xMax="496" yMax="935">
      <component glyphName="E" x="0" y="0" flags="0x204"/>
      <component glyphName="grave.case" x="0" y="0" flags="0x4"/>
    </TTGlyph>
    <TTGlyph name="Eth" xMin="25" yMin="0" xMax="597" yMax="698">
      <component glyphName="Dcroat" x="0" y="0" flags="0x204"/>
    </TTGlyph>
    <TTGlyph name="Euro" xMin="67" yMin="-12" xMax="557" yMax="710">
      <contour>
        <pt x="557" y="141" on="1"/>
        <pt x="529" y="72" on="0"/>
        <pt x="416" y="-12" on="0"/>
        <pt x="331" y="-12" on="1"/>
        <pt x="205" y="-12" on="0"/>
        <pt x="67" y="171" on="0"/>
        <pt x="67" y="349" on="1"/>
        <pt x="67" y="526" on="0"/>
        <pt x="205" y="710" on="0"/>
        <pt x="331" y="710" on="1"/>
        <pt x="410" y="710" on="0"/>
        <pt x="523" y="631" on="0"/>
        <pt x="552" y="565" on="1"/>
        <pt x="522" y="548" on="1"/>
        <pt x="496" y="608" on="0"/>
        <pt x="399" y="677" on="0"/>
        <pt x="331" y="677" on="1"/>
        <pt x="237" y="677" on="0"/>
        <pt x="122" y="557" on="0"/>
        <pt x="109" y="442" on="1"/>
        <pt x="371" y="442" on="1"/>
        <pt x="371" y="412" on="1"/>
        <pt x="107" y="412" on="1"/>
        <pt x="106" y="404" on="0"/>
        <pt x="106" y="386" on="0"/>
        <pt x="106" y="376" on="1"/>
        <pt x="106" y="322" on="1"/>
        <pt x="106" y="312" on="0"/>
        <pt x="106" y="296" on="0"/>
        <pt x="107" y="286" on="1"/>
        <pt x="371" y="286" on="1"/>
        <pt x="371" y="256" on="1"/>
        <pt x="109" y="256" on="1"/>
        <pt x="122" y="141" on="0"/>
        <pt x="238" y="21" on="0"/>
        <pt x="331" y="21" on="1"/>
        <pt x="404" y="21" on="0"/>
        <pt x="503" y="95" on="0"/>
        <pt x="527" y="158" on="1"/>
        <pt x="557" y="141" on="1"/>
      </contour>
    </TTGlyph>
    <TTGlyph name="F" xMin="104" yMin="0" xMax="488" yMax="698">
      <contour>
        <pt x="104" y="0" on="1"/>
        <pt x="104" y="698" on="1"/>
        <pt x="488" y="698" on="1"/>
        <pt x="488" y="665" on="1"/>
        <pt x="141" y="665" on="1"/>
        <pt x="141" y="371" on="1"/>
        <pt x="470" y="371" on="1"/>
        <pt x="470" y="338" on="1"/>
        <pt x="141" y="338" on="1"/>
        <pt x="141" y="0" on="1"/>
      </contour>
    </TTGlyph>
    <TTGlyph name="G" xMin="67" yMin="-12" xMax="595" yMax="710">
      <contour>
        <pt x="560" y="111" on="1"/>
        <pt x="557" y="111" on="1"/>
        <pt x="532" y="54" on="0"/>
        <pt x="425" y="-12" on="0"/>
        <pt x="342" y="-12" on="1"/>
        <pt x="211" y="-12" on="0"/>
        <pt x="67" y="169" on="0"/>
        <pt x="67" y="349" on="1"/>
        <pt x="67" y="529" on="0"/>
        <pt x="212" y="710" on="0"/>
        <pt x="344" y="710" on="1"/>
        <pt x="429" y="710" on="0"/>
        <pt x="549" y="631" on="0"/>
        <pt x="578" y="565" on="1"/>
        <pt x="548" y="548" on="1"/>
        <pt x="522" y="609" on="0"/>
        <pt x="415" y="677" on="0"/>
        <pt x="344" y="677" on="1"/>
        <pt x="234" y="677" on="0"/>
        <pt x="107" y="525" on="0"/>
        <pt x="107" y="379" on="1"/>
        <pt x="107" y="320" on="1"/>
        <pt x="107" y="174" on="0"/>
        <pt x="233" y="21" on="0"/>
        <pt x="345" y="21" on="1"/>
        <pt x="388" y="21" on="0"/>
        <pt x="466" y="44" on="0"/>
        <pt x="524" y="91" on="0"/>
        <pt x="559" y="161" on="0"/>
        <pt x="559" y="208" on="1"/>
        <pt x="559" y="305" on="1"/>
        <pt x="388" y="305" on="1"/>
        <pt x="388" y="338" on="1"/>
        <pt x="595" y="338" on="1"/>
        <pt x="595" y="0" on="1"/>
        <pt x="560" y="0" on="1"/>
      </contour>
    </TTGlyph>
    <TTGlyph name="H" xMin="104" yMin="0" xMax="591" yMax="698">
      <contour>
        <pt x="554" y="338" on="1"/>
        <pt x="141" y="338" on="1"/>
        <pt x="141" y="0" on="1"/>
        <pt x="104" y="0" on="1"/>
        <pt x="104" y="698" on="1"/>
        <pt x="141" y="698" on="1"/>
        <pt x="141" y="371" on="1"/>
        <pt x="554" y="371" on="1"/>
        <pt x="554" y="698" on="1"/>
        <pt x="591" y="698" on="1"/>
        <pt x="591" y="0" on="1"/>
        <pt x="554" y="0" on="1"/>
      </contour>
    </TTGlyph>
    <TTGlyph name="I" xMin="66" yMin="0" xMax="313" yMax="698">
      <contour>
        <pt x="66" y="0" on="1"/>
        <pt x="66" y="31" on="1"/>
        <pt x="171" y="31" on="1"/>
        <pt x="171" y="667" on="1"/>
        <pt x="66" y="667" on="1"/>
        <pt x="66" y="698" on="1"/>
        <pt x="313" y="698" on="1"/>
        <pt x="313" y="667" on="1"/>
        <pt x="208" y="667" on="1"/>
        <pt x="208" y="31" on="1"/>
        <pt x="313" y="31" on="1"/>
        <pt x="313" y="0" on="1"/>
      </contour>
    </TTGlyph>
    <TTGlyph name="IJ" xMin="97" yMin="-12" xMax="537" yMax="698">
      <contour>
        <pt x="537" y="698" on="1"/>
        <pt x="537" y="207" on="1"/>
        <pt x="537" y="102" on="0"/>
        <pt x="421" y="-12" on="0"/>
        <pt x="312" y="-12" on="1"/>
        <pt x="218" y="-12" on="0"/>
        <pt x="115" y="63" on="0"/>
        <pt x="98" y="138" on="1"/>
        <pt x="131" y="147" on="1"/>
        <pt x="149" y="84" on="0"/>
        <pt x="234" y="21" on="0"/>
        <pt x="313" y="21" on="1"/>
        <pt x="404" y="21" on="0"/>
        <pt x="500" y="114" on="0"/>
        <pt x="500" y="203" on="1"/>
        <pt x="500" y="665" on="1"/>
        <pt x="315" y="665" on="1"/>
        <pt x="315" y="698" on="1"/>
      </contour>
      <contour>
        <pt x="97" y="698" on="1"/>
        <pt x="134" y="698" on="1"/>
        <pt x="134" y="290" on="1"/>
        <pt x="97" y="290" on="1"/>
      </contour>
    </TTGlyph>
    <TTGlyph name="Iacute" xMin="66" yMin="0" xMax="313" yMax="935">
      <component glyphName="I" x="0" y="0" flags="0x204"/>
      <component glyphName="acute.case" x="-110" y="0" flags="0x4"/>
    </TTGlyph>
    <TTGlyph name="Icircumflex" xMin="45" yMin="0" xMax="335" yMax="926">
      <component glyphName="I" x="0" y="0" flags="0x204"/>
      <component glyphName="circumflex.case" x="-110" y="0" flags="0x4"/>
    </TTGlyph>
    <TTGlyph name="Idieresis" xMin="66" yMin="0" xMax="313" yMax="874">
      <component glyphName="I" x="0" y="0" flags="0x204"/>
      <component glyphName="dieresis.case" x="-110" y="0" flags="0x4"/>
    </TTGlyph>
    <TTGlyph name="Igrave" xMin="66" yMin="0" xMax="313" yMax="935">
      <component glyphName="I" x="0" y="0" flags="0x204"/>
      <component glyphName="grave.case" x="-110" y="0" flags="0x4"/>
    </TTGlyph>
    <TTGlyph name="J" xMin="23" yMin="-12" xMax="378" yMax="698">
      <contour>
        <pt x="378" y="698" on="1"/>
        <pt x="378" y="183" on="1"/>
        <pt x="378" y="88" on="0"/>
        <pt x="282" y="-12" on="0"/>
        <pt x="199" y="-12" on="1"/>
        <pt x="166" y="-12" on="0"/>
        <pt x="108" y="7" on="0"/>
        <pt x="62" y="43" on="0"/>
        <pt x="30" y="92" on="0"/>
        <pt x="23" y="121" on="1"/>
        <pt x="56" y="130" on="1"/>
        <pt x="70" y="83" on="0"/>
        <pt x="143" y="21" on="0"/>
        <pt x="200" y="21" on="1"/>
        <pt x="270" y="21" on="0"/>
        <pt x="341" y="106" on="0"/>
        <pt x="341" y="186" on="1"/>
        <pt x="341" y="665" on="1"/>
        <pt x="96" y="665" on="1"/>
        <pt x="96" y="698" on="1"/>
      </contour>
    </TTGlyph>
    <TTGlyph name="K" xMin="104" yMin="0" xMax="566" yMax="698">
      <contour>
        <pt x="268" y="377" on="1"/>
        <pt x="141" y="238" on="1"/>
        <pt x="141" y="0" on="1"/>
        <pt x="104" y="0" on="1"/>
        <pt x="104" y="698" on="1"/>
        <pt x="141" y="698" on="1"/>
        <pt x="141" y="284" on="1"/>
        <pt x="143" y="284" on="1"/>
        <pt x="266" y="421" on="1"/>
        <pt x="514" y="698" on="1"/>
        <pt x="560" y="698" on="1"/>
        <pt x="293" y="402" on="1"/>
        <pt x="566" y="0" on="1"/>
        <pt x="522" y="0" on="1"/>
      </contour>
    </TTGlyph>
    <TTGlyph name="L" xMin="104" yMin="0" xMax="460" yMax="698">
      <contour>
        <pt x="104" y="0" on="1"/>
        <pt x="104" y="698" on="1"/>
        <pt x="141" y="698" on="1"/>
        <pt x="141" y="33" on="1"/>
        <pt x="460" y="33" on="1"/>
        <pt x="460" y="0" on="1"/>
      </contour>
    </TTGlyph>
    <TTGlyph name="Lslash" xMin="9" yMin="0" xMax="463" yMax="698">
      <contour>
        <pt x="463" y="0" on="1"/>
        <pt x="107" y="0" on="1"/>
        <pt x="107" y="295" on="1"/>
        <pt x="9" y="263" on="1"/>
        <pt x="9" y="295" on="1"/>
        <pt x="107" y="327" on="1"/>
        <pt x="107" y="698" on="1"/>
        <pt x="144" y="698" on="1"/>
        <pt x="144" y="339" on="1"/>
        <pt x="343" y="402" on="1"/>
        <pt x="343" y="370" on="1"/>
        <pt x="144" y="307" on="1"/>
        <pt x="144" y="33" on="1"/>
        <pt x="463" y="33" on="1"/>
      </contour>
    </TTGlyph>
    <TTGlyph name="M" xMin="104" yMin="0" xMax="696" yMax="698">
      <contour>
        <pt x="660" y="653" on="1"/>
        <pt x="656" y="653" on="1"/>
        <pt x="400" y="220" on="1"/>
        <pt x="144" y="652" on="1"/>
        <pt x="140" y="652" on="1"/>
        <pt x="140" y="0" on="1"/>
        <pt x="104" y="0" on="1"/>
        <pt x="104" y="698" on="1"/>
        <pt x="156" y="698" on="1"/>
        <pt x="399" y="288" on="1"/>
        <pt x="403" y="288" on="1"/>
        <pt x="645" y="698" on="1"/>
        <pt x="696" y="698" on="1"/>
        <pt x="696" y="0" on="1"/>
        <pt x="660" y="0" on="1"/>
      </contour>
    </TTGlyph>
    <TTGlyph name="N" xMin="104" yMin="0" xMax="592" yMax="698">
      <contour>
        <pt x="143" y="650" on="1"/>
        <pt x="140" y="650" on="1"/>
        <pt x="140" y="0" on="1"/>
        <pt x="104" y="0" on="1"/>
        <pt x="104" y="698" on="1"/>
        <pt x="153" y="698" on="1"/>
        <pt x="553" y="48" on="1"/>
        <pt x="556" y="48" on="1"/>
        <pt x="556" y="698" on="1"/>
        <pt x="592" y="698" on="1"/>
        <pt x="592" y="0" on="1"/>
        <pt x="542" y="0" on="1"/>
      </contour>
    </TTGlyph>
    <TTGlyph name="Ntilde" xMin="104" yMin="0" xMax="592" yMax="886">
      <component glyphName="N" x="0" y="0" flags="0x204"/>
      <component glyphName="tilde.case" x="48" y="0" flags="0x4"/>
    </TTGlyph>
    <TTGlyph name="O" xMin="67" yMin="-12" xMax="619" yMax="710">
      <contour>
        <pt x="343" y="-12" on="1"/>
        <pt x="212" y="-12" on="0"/>
        <pt x="67" y="169" on="0"/>
        <pt x="67" y="349" on="1"/>
        <pt x="67" y="529" on="0"/>
        <pt x="212" y="710" on="0"/>
        <pt x="343" y="710" on="1"/>
        <pt x="474" y="710" on="0"/>
        <pt x="619" y="529" on="0"/>
        <pt x="619" y="349" on="1"/>
        <pt x="619" y="169" on="0"/>
        <pt x="474" y="-12" on="0"/>
      </contour>
      <contour>
        <pt x="343" y="21" on="1"/>
        <pt x="452" y="21" on="0"/>
        <pt x="579" y="173" on="0"/>
        <pt x="579" y="319" on="1"/>
        <pt x="579" y="379" on="1"/>
        <pt x="579" y="525" on="0"/>
        <pt x="452" y="677" on="0"/>
        <pt x="343" y="677" on="1"/>
        <pt x="234" y="677" on="0"/>
        <pt x="107" y="525" on="0"/>
        <pt x="107" y="379" on="1"/>
        <pt x="107" y="319" on="1"/>
        <pt x="107" y="173" on="0"/>
        <pt x="234" y="21" on="0"/>
      </contour>
    </TTGlyph>
    <TTGlyph name="OE" xMin="67" yMin="-12" xMax="901" yMax="710">
      <contour>
        <pt x="509" y="0" on="1"/>
        <pt x="484" y="-4" on="0"/>
        <pt x="411" y="-12" on="0"/>
        <pt x="369" y="-12" on="1"/>
        <pt x="223" y="-12" on="0"/>
        <pt x="67" y="169" on="0"/>
        <pt x="67" y="349" on="1"/>
        <pt x="67" y="529" on="0"/>
        <pt x="223" y="710" on="0"/>
        <pt x="369" y="710" on="1"/>
        <pt x="411" y="710" on="0"/>
        <pt x="484" y="702" on="0"/>
        <pt x="509" y="698" on="1"/>
        <pt x="901" y="698" on="1"/>
        <pt x="901" y="665" on="1"/>
        <pt x="546" y="665" on="1"/>
        <pt x="546" y="371" on="1"/>
        <pt x="887" y="371" on="1"/>
        <pt x="887" y="338" on="1"/>
        <pt x="546" y="338" on="1"/>
        <pt x="546" y="33" on="1"/>
        <pt x="901" y="33" on="1"/>
        <pt x="901" y="0" on="1"/>
      </contour>
      <contour>
        <pt x="372" y="21" on="1"/>
        <pt x="413" y="21" on="0"/>
        <pt x="483" y="30" on="0"/>
        <pt x="509" y="36" on="1"/>
        <pt x="509" y="662" on="1"/>
        <pt x="483" y="668" on="0"/>
        <pt x="413" y="677" on="0"/>
        <pt x="372" y="677" on="1"/>
        <pt x="244" y="677" on="0"/>
        <pt x="107" y="525" on="0"/>
        <pt x="107" y="379" on="1"/>
        <pt x="107" y="319" on="1"/>
        <pt x="107" y="173" on="0"/>
        <pt x="244" y="21" on="0"/>
      </contour>
    </TTGlyph>
    <TTGlyph name="Oacute" xMin="67" yMin="-12" xMax="619" yMax="935">
      <component glyphName="O" x="0" y="0" flags="0x204"/>
      <component glyphName="acute.case" x="43" y="0" flags="0x4"/>
    </TTGlyph>
    <TTGlyph name="Ocircumflex" xMin="67" yMin="-12" xMax="619" yMax="926">
      <component glyphName="O" x="0" y="0" flags="0x204"/>
      <component glyphName="circumflex.case" x="43" y="0" flags="0x4"/>
    </TTGlyph>
    <TTGlyph name="Odieresis" xMin="67" yMin="-12" xMax="619" yMax="874">
      <component glyphName="O" x="0" y="0" flags="0x204"/>
      <component glyphName="dieresis.case" x="43" y="0" flags="0x4"/>
    </TTGlyph>
    <TTGlyph name="Ograve" xMin="67" yMin="-12" xMax="619" yMax="935">
      <component glyphName="O" x="0" y="0" flags="0x204"/>
      <component glyphName="grave.case" x="43" y="0" flags="0x4"/>
    </TTGlyph>
    <TTGlyph name="Omega" xMin="69" yMin="0" xMax="627" yMax="710">
      <contour>
        <pt x="73" y="33" on="1"/>
        <pt x="246" y="33" on="1"/>
        <pt x="246" y="48" on="1"/>
        <pt x="154" y="100" on="0"/>
        <pt x="69" y="257" on="0"/>
        <pt x="69" y="379" on="1"/>
        <pt x="69" y="454" on="0"/>
        <pt x="105" y="577" on="0"/>
        <pt x="175" y="663" on="0"/>
        <pt x="279" y="710" on="0"/>
        <pt x="348" y="710" on="1"/>
        <pt x="417" y="710" on="0"/>
        <pt x="521" y="663" on="0"/>
        <pt x="591" y="577" on="0"/>
        <pt x="627" y="454" on="0"/>
        <pt x="627" y="379" on="1"/>
        <pt x="627" y="257" on="0"/>
        <pt x="542" y="100" on="0"/>
        <pt x="450" y="48" on="1"/>
        <pt x="450" y="33" on="1"/>
        <pt x="623" y="33" on="1"/>
        <pt x="623" y="0" on="1"/>
        <pt x="418" y="0" on="1"/>
        <pt x="418" y="64" on="1"/>
        <pt x="445" y="76" on="0"/>
        <pt x="505" y="123" on="0"/>
        <pt x="555" y="194" on="0"/>
        <pt x="587" y="287" on="0"/>
        <pt x="587" y="346" on="1"/>
        <pt x="587" y="416" on="1"/>
        <pt x="587" y="473" on="0"/>
        <pt x="554" y="569" on="0"/>
        <pt x="492" y="638" on="0"/>
        <pt x="403" y="677" on="0"/>
        <pt x="348" y="677" on="1"/>
        <pt x="293" y="677" on="0"/>
        <pt x="204" y="638" on="0"/>
        <pt x="142" y="569" on="0"/>
        <pt x="109" y="473" on="0"/>
        <pt x="109" y="416" on="1"/>
        <pt x="109" y="346" on="1"/>
        <pt x="109" y="287" on="0"/>
        <pt x="141" y="194" on="0"/>
        <pt x="191" y="123" on="0"/>
        <pt x="251" y="76" on="0"/>
        <pt x="278" y="64" on="1"/>
        <pt x="278" y="0" on="1"/>
        <pt x="73" y="0" on="1"/>
      </contour>
    </TTGlyph>
    <TTGlyph name="Oslash" xMin="67" yMin="-34" xMax="619" yMax="734">
      <contour>
        <pt x="343" y="-12" on="1"/>
        <pt x="228" y="-12" on="0"/>
        <pt x="159" y="57" on="1"/>
        <pt x="96" y="-34" on="1"/>
        <pt x="69" y="-17" on="1"/>
        <pt x="138" y="82" on="1"/>
        <pt x="103" y="127" on="0"/>
        <pt x="67" y="260" on="0"/>
        <pt x="67" y="349" on="1"/>
        <pt x="67" y="529" on="0"/>
        <pt x="212" y="710" on="0"/>
        <pt x="343" y="710" on="1"/>
        <pt x="458" y="710" on="0"/>
        <pt x="527" y="641" on="1"/>
        <pt x="592" y="734" on="1"/>
        <pt x="618" y="717" on="1"/>
        <pt x="548" y="617" on="1"/>
        <pt x="583" y="571" on="0"/>
        <pt x="619" y="438" on="0"/>
        <pt x="619" y="349" on="1"/>
        <pt x="619" y="169" on="0"/>
        <pt x="474" y="-12" on="0"/>
      </contour>
      <contour>
        <pt x="107" y="319" on="1"/>
        <pt x="107" y="253" on="0"/>
        <pt x="134" y="150" on="0"/>
        <pt x="159" y="113" on="1"/>
        <pt x="506" y="611" on="1"/>
        <pt x="445" y="677" on="0"/>
        <pt x="343" y="677" on="1"/>
        <pt x="234" y="677" on="0"/>
        <pt x="107" y="525" on="0"/>
        <pt x="107" y="379" on="1"/>
      </contour>
      <contour>
        <pt x="579" y="379" on="1"/>
        <pt x="579" y="445" on="0"/>
        <pt x="552" y="548" on="0"/>
        <pt x="527" y="585" on="1"/>
        <pt x="180" y="87" on="1"/>
        <pt x="241" y="21" on="0"/>
        <pt x="343" y="21" on="1"/>
        <pt x="452" y="21" on="0"/>
        <pt x="579" y="173" on="0"/>
        <pt x="579" y="319" on="1"/>
      </contour>
    </TTGlyph>
    <TTGlyph name="Otilde" xMin="67" yMin="-12" xMax="619" yMax="886">
      <component glyphName="O" x="0" y="0" flags="0x204"/>
      <component glyphName="tilde.case" x="43" y="0" flags="0x4"/>
    </TTGlyph>
    <TTGlyph name="P" xMin="104" yMin="0" xMax="554" yMax="698">
      <contour>
        <pt x="104" y="0" on="1"/>
        <pt x="104" y="698" on="1"/>
        <pt x="375" y="698" on="1"/>
        <pt x="463" y="698" on="0"/>
        <pt x="554" y="595" on="0"/>
        <pt x="554" y="507" on="1"/>
        <pt x="554" y="419" on="0"/>
        <pt x="463" y="316" on="0"/>
        <pt x="375" y="316" on="1"/>
        <pt x="141" y="316" on="1"/>
        <pt x="141" y="0" on="1"/>
      </contour>
      <contour>
        <pt x="141" y="349" on="1"/>
        <pt x="375" y="349" on="1"/>
        <pt x="410" y="349" on="0"/>
        <pt x="462" y="371" on="0"/>
        <pt x="497" y="408" on="0"/>
        <pt x="514" y="458" on="0"/>
        <pt x="514" y="485" on="1"/>
        <pt x="514" y="529" on="1"/>
        <pt x="514" y="556" on="0"/>
        <pt x="497" y="606" on="0"/>
        <pt x="462" y="643" on="0"/>
        <pt x="410" y="665" on="0"/>
        <pt x="375" y="665" on="1"/>
        <pt x="141" y="665" on="1"/>
      </contour>
    </TTGlyph>
    <TTGlyph name="Q" xMin="67" yMin="-150" xMax="619" yMax="710">
      <contour>
        <pt x="468" y="-150" on="1"/>
        <pt x="370" y="-150" on="1"/>
        <pt x="328" y="-150" on="0"/>
        <pt x="328" y="-109" on="1"/>
        <pt x="328" y="-12" on="1"/>
        <pt x="203" y="-7" on="0"/>
        <pt x="67" y="174" on="0"/>
        <pt x="67" y="349" on="1"/>
        <pt x="67" y="529" on="0"/>
        <pt x="212" y="710" on="0"/>
        <pt x="343" y="710" on="1"/>
        <pt x="474" y="710" on="0"/>
        <pt x="619" y="529" on="0"/>
        <pt x="619" y="349" on="1"/>
        <pt x="619" y="176" on="0"/>
        <pt x="485" y="-4" on="0"/>
        <pt x="364" y="-11" on="1"/>
        <pt x="364" y="-118" on="1"/>
        <pt x="468" y="-118" on="1"/>
      </contour>
      <contour>
        <pt x="343" y="21" on="1"/>
        <pt x="452" y="21" on="0"/>
        <pt x="579" y="173" on="0"/>
        <pt x="579" y="319" on="1"/>
        <pt x="579" y="379" on="1"/>
        <pt x="579" y="525" on="0"/>
        <pt x="452" y="677" on="0"/>
        <pt x="343" y="677" on="1"/>
        <pt x="234" y="677" on="0"/>
        <pt x="107" y="525" on="0"/>
        <pt x="107" y="379" on="1"/>
        <pt x="107" y="319" on="1"/>
        <pt x="107" y="173" on="0"/>
        <pt x="234" y="21" on="0"/>
      </contour>
    </TTGlyph>
    <TTGlyph name="R" xMin="104" yMin="0" xMax="571" yMax="698">
      <contour>
        <pt x="141" y="0" on="1"/>
        <pt x="104" y="0" on="1"/>
        <pt x="104" y="698" on="1"/>
        <pt x="375" y="698" on="1"/>
        <pt x="463" y="698" on="0"/>
        <pt x="554" y="596" on="0"/>
        <pt x="554" y="508" on="1"/>
        <pt x="554" y="423" on="0"/>
        <pt x="469" y="323" on="0"/>
        <pt x="386" y="319" on="1"/>
        <pt x="571" y="0" on="1"/>
        <pt x="529" y="0" on="1"/>
        <pt x="347" y="317" on="1"/>
        <pt x="141" y="317" on="1"/>
      </contour>
      <contour>
        <pt x="375" y="349" on="1"/>
        <pt x="410" y="349" on="0"/>
        <pt x="462" y="371" on="0"/>
        <pt x="497" y="408" on="0"/>
        <pt x="514" y="458" on="0"/>
        <pt x="514" y="485" on="1"/>
        <pt x="514" y="529" on="1"/>
        <pt x="514" y="556" on="0"/>
        <pt x="497" y="606" on="0"/>
        <pt x="462" y="643" on="0"/>
        <pt x="410" y="665" on="0"/>
        <pt x="375" y="665" on="1"/>
        <pt x="141" y="665" on="1"/>
        <pt x="141" y="349" on="1"/>
      </contour>
    </TTGlyph>
    <TTGlyph name="S" xMin="42" yMin="-12" xMax="500" yMax="710">
      <contour>
        <pt x="279" y="-12" on="1"/>
        <pt x="193" y="-12" on="0"/>
        <pt x="80" y="53" on="0"/>
        <pt x="42" y="104" on="1"/>
        <pt x="70" y="126" on="1"/>
        <pt x="107" y="78" on="0"/>
        <pt x="204" y="21" on="0"/>
        <pt x="280" y="21" on="1"/>
        <pt x="368" y="21" on="0"/>
        <pt x="463" y="102" on="0"/>
        <pt x="463" y="180" on="1"/>
        <pt x="463" y="219" on="0"/>
        <pt x="439" y="273" on="0"/>
        <pt x="397" y="308" on="0"/>
        <pt x="341" y="329" on="0"/>
        <pt x="309" y="335" on="1"/>
        <pt x="242" y="348" on="1"/>
        <pt x="191" y="358" on="0"/>
        <pt x="121" y="393" on="0"/>
        <pt x="78" y="440" on="0"/>
        <pt x="59" y="497" on="0"/>
        <pt x="59" y="530" on="1"/>
        <pt x="59" y="575" on="0"/>
        <pt x="90" y="643" on="0"/>
        <pt x="147" y="688" on="0"/>
        <pt x="227" y="710" on="0"/>
        <pt x="276" y="710" on="1"/>
        <pt x="354" y="710" on="0"/>
        <pt x="457" y="656" on="0"/>
        <pt x="488" y="610" on="1"/>
        <pt x="460" y="590" on="1"/>
        <pt x="430" y="632" on="0"/>
        <pt x="340" y="677" on="0"/>
        <pt x="274" y="677" on="1"/>
        <pt x="190" y="677" on="0"/>
        <pt x="96" y="605" on="0"/>
        <pt x="96" y="531" on="1"/>
        <pt x="96" y="494" on="0"/>
        <pt x="120" y="443" on="0"/>
        <pt x="161" y="409" on="0"/>
        <pt x="217" y="388" on="0"/>
        <pt x="250" y="382" on="1"/>
        <pt x="317" y="369" on="1"/>
        <pt x="370" y="358" on="0"/>
        <pt x="441" y="322" on="0"/>
        <pt x="483" y="274" on="0"/>
        <pt x="500" y="216" on="0"/>
        <pt x="500" y="183" on="1"/>
        <pt x="500" y="88" on="0"/>
        <pt x="381" y="-12" on="0"/>
      </contour>
    </TTGlyph>
    <TTGlyph name="Scaron" xMin="42" yMin="-12" xMax="500" yMax="931">
      <component glyphName="S" x="0" y="0" flags="0x204"/>
      <component glyphName="caron.case" x="-26" y="0" flags="0x4"/>
    </TTGlyph>
    <TTGlyph name="T" xMin="18" yMin="0" xMax="545" yMax="698">
      <contour>
        <pt x="300" y="665" on="1"/>
        <pt x="300" y="0" on="1"/>
        <pt x="263" y="0" on="1"/>
        <pt x="263" y="665" on="1"/>
        <pt x="18" y="665" on="1"/>
        <pt x="18" y="698" on="1"/>
        <pt x="545" y="698" on="1"/>
        <pt x="545" y="665" on="1"/>
      </contour>
    </TTGlyph>
    <TTGlyph name="Thorn" xMin="104" yMin="0" xMax="554" yMax="698">
      <contour>
        <pt x="104" y="0" on="1"/>
        <pt x="104" y="698" on="1"/>
        <pt x="141" y="698" on="1"/>
        <pt x="141" y="545" on="1"/>
        <pt x="375" y="545" on="1"/>
        <pt x="463" y="545" on="0"/>
        <pt x="554" y="442" on="0"/>
        <pt x="554" y="354" on="1"/>
        <pt x="554" y="266" on="0"/>
        <pt x="463" y="163" on="0"/>
        <pt x="375" y="163" on="1"/>
        <pt x="141" y="163" on="1"/>
        <pt x="141" y="0" on="1"/>
      </contour>
      <contour>
        <pt x="141" y="196" on="1"/>
        <pt x="375" y="196" on="1"/>
        <pt x="410" y="196" on="0"/>
        <pt x="462" y="218" on="0"/>
        <pt x="497" y="255" on="0"/>
        <pt x="514" y="305" on="0"/>
        <pt x="514" y="332" on="1"/>
        <pt x="514" y="376" on="1"/>
        <pt x="514" y="403" on="0"/>
        <pt x="497" y="453" on="0"/>
        <pt x="462" y="490" on="0"/>
        <pt x="410" y="512" on="0"/>
        <pt x="375" y="512" on="1"/>
        <pt x="141" y="512" on="1"/>
      </contour>
    </TTGlyph>
    <TTGlyph name="U" xMin="97" yMin="-12" xMax="561" yMax="698">
      <contour>
        <pt x="134" y="698" on="1"/>
        <pt x="134" y="268" on="1"/>
        <pt x="134" y="202" on="0"/>
        <pt x="153" y="108" on="0"/>
        <pt x="199" y="48" on="0"/>
        <pt x="273" y="21" on="0"/>
        <pt x="329" y="21" on="1"/>
        <pt x="384" y="21" on="0"/>
        <pt x="459" y="48" on="0"/>
        <pt x="505" y="108" on="0"/>
        <pt x="524" y="202" on="0"/>
        <pt x="524" y="268" on="1"/>
        <pt x="524" y="698" on="1"/>
        <pt x="561" y="698" on="1"/>
        <pt x="561" y="274" on="1"/>
        <pt x="561" y="197" on="0"/>
        <pt x="537" y="88" on="0"/>
        <pt x="482" y="19" on="0"/>
        <pt x="393" y="-12" on="0"/>
        <pt x="328" y="-12" on="1"/>
        <pt x="263" y="-12" on="0"/>
        <pt x="175" y="19" on="0"/>
        <pt x="121" y="88" on="0"/>
        <pt x="97" y="197" on="0"/>
        <pt x="97" y="274" on="1"/>
        <pt x="97" y="698" on="1"/>
      </contour>
    </TTGlyph>
    <TTGlyph name="Uacute" xMin="97" yMin="-12" xMax="561" yMax="935">
      <component glyphName="U" x="0" y="0" flags="0x204"/>
      <component glyphName="acute.case" x="28" y="0" flags="0x4"/>
    </TTGlyph>
    <TTGlyph name="Ucircumflex" xMin="97" yMin="-12" xMax="561" yMax="926">
      <component glyphName="U" x="0" y="0" flags="0x204"/>
      <component glyphName="circumflex.case" x="28" y="0" flags="0x4"/>
    </TTGlyph>
    <TTGlyph name="Udieresis" xMin="97" yMin="-12" xMax="561" yMax="874">
      <component glyphName="U" x="0" y="0" flags="0x204"/>
      <component glyphName="dieresis.case" x="28" y="0" flags="0x4"/>
    </TTGlyph>
    <TTGlyph name="Ugrave" xMin="97" yMin="-12" xMax="561" yMax="935">
      <component glyphName="U" x="0" y="0" flags="0x204"/>
      <component glyphName="grave.case" x="28" y="0" flags="0x4"/>
    </TTGlyph>
    <TTGlyph name="V" xMin="28" yMin="0" xMax="552" yMax="698">
      <contour>
        <pt x="265" y="0" on="1"/>
        <pt x="28" y="698" on="1"/>
        <pt x="68" y="698" on="1"/>
        <pt x="288" y="39" on="1"/>
        <pt x="292" y="39" on="1"/>
        <pt x="513" y="698" on="1"/>
        <pt x="552" y="698" on="1"/>
        <pt x="313" y="0" on="1"/>
      </contour>
    </TTGlyph>
    <TTGlyph name="W" xMin="28" yMin="0" xMax="849" yMax="698">
      <contour>
        <pt x="210" y="0" on="1"/>
        <pt x="28" y="698" on="1"/>
        <pt x="67" y="698" on="1"/>
        <pt x="233" y="48" on="1"/>
        <pt x="236" y="48" on="1"/>
        <pt x="414" y="698" on="1"/>
        <pt x="462" y="698" on="1"/>
        <pt x="640" y="48" on="1"/>
        <pt x="643" y="48" on="1"/>
        <pt x="811" y="698" on="1"/>
        <pt x="849" y="698" on="1"/>
        <pt x="665" y="0" on="1"/>
        <pt x="619" y="0" on="1"/>
        <pt x="439" y="657" on="1"/>
        <pt x="436" y="657" on="1"/>
        <pt x="255" y="0" on="1"/>
      </contour>
    </TTGlyph>
    <TTGlyph name="X" xMin="27" yMin="0" xMax="544" yMax="698">
      <contour>
        <pt x="544" y="0" on="1"/>
        <pt x="500" y="0" on="1"/>
        <pt x="287" y="325" on="1"/>
        <pt x="285" y="325" on="1"/>
        <pt x="70" y="0" on="1"/>
        <pt x="27" y="0" on="1"/>
        <pt x="263" y="354" on="1"/>
        <pt x="35" y="698" on="1"/>
        <pt x="79" y="698" on="1"/>
        <pt x="285" y="386" on="1"/>
        <pt x="287" y="386" on="1"/>
        <pt x="493" y="698" on="1"/>
        <pt x="536" y="698" on="1"/>
        <pt x="309" y="357" on="1"/>
      </contour>
    </TTGlyph>
    <TTGlyph name="Y" xMin="19" yMin="0" xMax="538" yMax="698">
      <contour>
        <pt x="260" y="0" on="1"/>
        <pt x="260" y="290" on="1"/>
        <pt x="19" y="698" on="1"/>
        <pt x="61" y="698" on="1"/>
        <pt x="277" y="330" on="1"/>
        <pt x="280" y="330" on="1"/>
        <pt x="497" y="698" on="1"/>
        <pt x="538" y="698" on="1"/>
        <pt x="297" y="290" on="1"/>
        <pt x="297" y="0" on="1"/>
      </contour>
    </TTGlyph>
    <TTGlyph name="Yacute" xMin="19" yMin="0" xMax="538" yMax="935">
      <component glyphName="Y" x="0" y="0" flags="0x204"/>
      <component glyphName="acute.case" x="-21" y="0" flags="0x4"/>
    </TTGlyph>
    <TTGlyph name="Ydieresis" xMin="19" yMin="0" xMax="538" yMax="874">
      <component glyphName="Y" x="0" y="0" flags="0x204"/>
      <component glyphName="dieresis.case" x="-21" y="0" flags="0x4"/>
    </TTGlyph>
    <TTGlyph name="Z" xMin="38" yMin="0" xMax="531" yMax="698">
      <contour>
        <pt x="531" y="0" on="1"/>
        <pt x="38" y="0" on="1"/>
        <pt x="38" y="35" on="1"/>
        <pt x="472" y="665" on="1"/>
        <pt x="61" y="665" on="1"/>
        <pt x="61" y="698" on="1"/>
        <pt x="512" y="698" on="1"/>
        <pt x="512" y="663" on="1"/>
        <pt x="78" y="33" on="1"/>
        <pt x="531" y="33" on="1"/>
      </contour>
    </TTGlyph>
    <TTGlyph name="Zcaron" xMin="38" yMin="0" xMax="531" yMax="931">
      <component glyphName="Z" x="0" y="0" flags="0x204"/>
      <component glyphName="caron.case" x="-13" y="0" flags="0x4"/>
    </TTGlyph>
    <TTGlyph name="a" xMin="57" yMin="-12" xMax="500" yMax="520">
      <contour>
        <pt x="431" y="0" on="1"/>
        <pt x="390" y="0" on="0"/>
        <pt x="388" y="42" on="1"/>
        <pt x="388" y="79" on="1"/>
        <pt x="384" y="79" on="1"/>
        <pt x="366" y="40" on="0"/>
        <pt x="288" y="-12" on="0"/>
        <pt x="222" y="-12" on="1"/>
        <pt x="143" y="-12" on="0"/>
        <pt x="57" y="64" on="0"/>
        <pt x="57" y="133" on="1"/>
        <pt x="57" y="166" on="0"/>
        <pt x="77" y="220" on="0"/>
        <pt x="124" y="259" on="0"/>
        <pt x="199" y="280" on="0"/>
        <pt x="254" y="280" on="1"/>
        <pt x="387" y="280" on="1"/>
        <pt x="387" y="348" on="1"/>
        <pt x="387" y="420" on="0"/>
        <pt x="317" y="489" on="0"/>
        <pt x="248" y="489" on="1"/>
        <pt x="141" y="489" on="0"/>
        <pt x="100" y="399" on="1"/>
        <pt x="75" y="416" on="1"/>
        <pt x="96" y="463" on="0"/>
        <pt x="178" y="520" on="0"/>
        <pt x="249" y="520" on="1"/>
        <pt x="334" y="520" on="0"/>
        <pt x="422" y="433" on="0"/>
        <pt x="422" y="352" on="1"/>
        <pt x="422" y="31" on="1"/>
        <pt x="500" y="31" on="1"/>
        <pt x="500" y="0" on="1"/>
      </contour>
      <contour>
        <pt x="225" y="19" on="1"/>
        <pt x="258" y="19" on="0"/>
        <pt x="317" y="36" on="0"/>
        <pt x="361" y="68" on="0"/>
        <pt x="387" y="116" on="0"/>
        <pt x="387" y="148" on="1"/>
        <pt x="387" y="252" on="1"/>
        <pt x="254" y="252" on="1"/>
        <pt x="170" y="252" on="0"/>
        <pt x="94" y="195" on="0"/>
        <pt x="94" y="148" on="1"/>
        <pt x="94" y="120" on="1"/>
        <pt x="94" y="70" on="0"/>
        <pt x="167" y="19" on="0"/>
      </contour>
    </TTGlyph>
    <TTGlyph name="a.alt01" xMin="57" yMin="-12" xMax="467" yMax="520">
      <contour>
        <pt x="432" y="79" on="1"/>
        <pt x="429" y="79" on="1"/>
        <pt x="412" y="43" on="0"/>
        <pt x="332" y="-12" on="0"/>
        <pt x="268" y="-12" on="1"/>
        <pt x="168" y="-12" on="0"/>
        <pt x="57" y="123" on="0"/>
        <pt x="57" y="254" on="1"/>
        <pt x="57" y="385" on="0"/>
        <pt x="168" y="520" on="0"/>
        <pt x="268" y="520" on="1"/>
        <pt x="332" y="520" on="0"/>
        <pt x="412" y="466" on="0"/>
        <pt x="429" y="429" on="1"/>
        <pt x="432" y="429" on="1"/>
        <pt x="432" y="508" on="1"/>
        <pt x="467" y="508" on="1"/>
        <pt x="467" y="0" on="1"/>
        <pt x="432" y="0" on="1"/>
      </contour>
      <contour>
        <pt x="273" y="20" on="1"/>
        <pt x="305" y="20" on="0"/>
        <pt x="363" y="38" on="0"/>
        <pt x="406" y="72" on="0"/>
        <pt x="432" y="119" on="0"/>
        <pt x="432" y="148" on="1"/>
        <pt x="432" y="362" on="1"/>
        <pt x="432" y="390" on="0"/>
        <pt x="406" y="437" on="0"/>
        <pt x="363" y="470" on="0"/>
        <pt x="305" y="489" on="0"/>
        <pt x="273" y="489" on="1"/>
        <pt x="188" y="489" on="0"/>
        <pt x="95" y="378" on="0"/>
        <pt x="95" y="283" on="1"/>
        <pt x="95" y="225" on="1"/>
        <pt x="95" y="130" on="0"/>
        <pt x="188" y="20" on="0"/>
      </contour>
    </TTGlyph>
    <TTGlyph name="aacute" xMin="57" yMin="-12" xMax="500" yMax="758">
      <component glyphName="a" x="0" y="0" flags="0x204"/>
      <component glyphName="acute" x="-49" y="0" flags="0x4"/>
    </TTGlyph>
    <TTGlyph name="aacute.alt01" xMin="57" yMin="-12" xMax="467" yMax="758">
      <component glyphName="a.alt01" x="0" y="0" flags="0x204"/>
      <component glyphName="acute" x="-27" y="0" flags="0x4"/>
    </TTGlyph>
    <TTGlyph name="acircumflex" xMin="57" yMin="-12" xMax="500" yMax="748">
      <component glyphName="a" x="0" y="0" flags="0x204"/>
      <component glyphName="circumflex" x="-49" y="0" flags="0x4"/>
    </TTGlyph>
    <TTGlyph name="acircumflex.alt01" xMin="57" yMin="-12" xMax="467" yMax="748">
      <component glyphName="a.alt01" x="0" y="0" flags="0x204"/>
      <component glyphName="circumflex" x="-27" y="0" flags="0x4"/>
    </TTGlyph>
    <TTGlyph name="acute" xMin="264" yMin="587" xMax="401" yMax="758">
      <contour>
        <pt x="288" y="587" on="1"/>
        <pt x="264" y="600" on="1"/>
        <pt x="369" y="758" on="1"/>
        <pt x="401" y="740" on="1"/>
      </contour>
    </TTGlyph>
    <TTGlyph name="acute.case" xMin="264" yMin="764" xMax="401" yMax="935">
      <contour>
        <pt x="288" y="764" on="1"/>
        <pt x="264" y="777" on="1"/>
        <pt x="369" y="935" on="1"/>
        <pt x="401" y="918" on="1"/>
      </contour>
    </TTGlyph>
    <TTGlyph name="adieresis" xMin="57" yMin="-12" xMax="500" yMax="698">
      <component glyphName="a" x="0" y="0" flags="0x204"/>
      <component glyphName="dieresis" x="-49" y="0" flags="0x4"/>
    </TTGlyph>
    <TTGlyph name="adieresis.alt01" xMin="57" yMin="-12" xMax="467" yMax="698">
      <component glyphName="a.alt01" x="0" y="0" flags="0x204"/>
      <component glyphName="dieresis" x="-27" y="0" flags="0x4"/>
    </TTGlyph>
    <TTGlyph name="ae" xMin="53" yMin="-12" xMax="805" yMax="520">
      <contour>
        <pt x="250" y="252" on="1"/>
        <pt x="166" y="252" on="0"/>
        <pt x="91" y="195" on="0"/>
        <pt x="91" y="148" on="1"/>
        <pt x="91" y="120" on="1"/>
        <pt x="91" y="70" on="0"/>
        <pt x="163" y="19" on="0"/>
        <pt x="222" y="19" on="1"/>
        <pt x="255" y="19" on="0"/>
        <pt x="313" y="36" on="0"/>
        <pt x="357" y="68" on="0"/>
        <pt x="383" y="116" on="0"/>
        <pt x="383" y="148" on="1"/>
        <pt x="383" y="252" on="1"/>
      </contour>
      <contour>
        <pt x="767" y="280" on="1"/>
        <pt x="767" y="286" on="1"/>
        <pt x="767" y="332" on="0"/>
        <pt x="742" y="407" on="0"/>
        <pt x="697" y="460" on="0"/>
        <pt x="634" y="489" on="0"/>
        <pt x="596" y="489" on="1"/>
        <pt x="554" y="489" on="0"/>
        <pt x="489" y="460" on="0"/>
        <pt x="443" y="406" on="0"/>
        <pt x="419" y="330" on="0"/>
        <pt x="419" y="284" on="1"/>
        <pt x="419" y="280" on="1"/>
      </contour>
      <contour>
        <pt x="600" y="19" on="1"/>
        <pt x="721" y="19" on="0"/>
        <pt x="767" y="135" on="1"/>
        <pt x="794" y="120" on="1"/>
        <pt x="771" y="60" on="0"/>
        <pt x="673" y="-12" on="0"/>
        <pt x="601" y="-12" on="1"/>
        <pt x="528" y="-12" on="0"/>
        <pt x="429" y="58" on="0"/>
        <pt x="409" y="117" on="1"/>
        <pt x="405" y="117" on="1"/>
        <pt x="399" y="88" on="0"/>
        <pt x="367" y="40" on="0"/>
        <pt x="318" y="6" on="0"/>
        <pt x="255" y="-12" on="0"/>
        <pt x="218" y="-12" on="1"/>
        <pt x="140" y="-12" on="0"/>
        <pt x="53" y="64" on="0"/>
        <pt x="53" y="133" on="1"/>
        <pt x="53" y="166" on="0"/>
        <pt x="74" y="220" on="0"/>
        <pt x="120" y="259" on="0"/>
        <pt x="196" y="280" on="0"/>
        <pt x="250" y="280" on="1"/>
        <pt x="383" y="280" on="1"/>
        <pt x="383" y="348" on="1"/>
        <pt x="383" y="420" on="0"/>
        <pt x="313" y="489" on="0"/>
        <pt x="245" y="489" on="1"/>
        <pt x="189" y="489" on="0"/>
        <pt x="117" y="445" on="0"/>
        <pt x="96" y="399" on="1"/>
        <pt x="71" y="416" on="1"/>
        <pt x="92" y="463" on="0"/>
        <pt x="174" y="520" on="0"/>
        <pt x="245" y="520" on="1"/>
        <pt x="323" y="520" on="0"/>
        <pt x="400" y="446" on="0"/>
        <pt x="406" y="389" on="1"/>
        <pt x="410" y="389" on="1"/>
        <pt x="430" y="448" on="0"/>
        <pt x="526" y="520" on="0"/>
        <pt x="598" y="520" on="1"/>
        <pt x="644" y="520" on="0"/>
        <pt x="721" y="484" on="0"/>
        <pt x="775" y="418" on="0"/>
        <pt x="805" y="325" on="0"/>
        <pt x="805" y="268" on="1"/>
        <pt x="805" y="252" on="1"/>
        <pt x="419" y="252" on="1"/>
        <pt x="419" y="225" on="1"/>
        <pt x="419" y="178" on="0"/>
        <pt x="443" y="102" on="0"/>
        <pt x="490" y="48" on="0"/>
        <pt x="557" y="19" on="0"/>
      </contour>
    </TTGlyph>
    <TTGlyph name="agrave" xMin="57" yMin="-12" xMax="500" yMax="758">
      <component glyphName="a" x="0" y="0" flags="0x204"/>
      <component glyphName="grave" x="-49" y="0" flags="0x4"/>
    </TTGlyph>
    <TTGlyph name="agrave.alt01" xMin="57" yMin="-12" xMax="467" yMax="758">
      <component glyphName="a.alt01" x="0" y="0" flags="0x204"/>
      <component glyphName="grave" x="-27" y="0" flags="0x4"/>
    </TTGlyph>
    <TTGlyph name="ampersand" xMin="70" yMin="-12" xMax="647" yMax="710">
      <contour>
        <pt x="495" y="108" on="1"/>
        <pt x="480" y="83" on="0"/>
        <pt x="438" y="39" on="0"/>
        <pt x="382" y="7" on="0"/>
        <pt x="315" y="-12" on="0"/>
        <pt x="275" y="-12" on="1"/>
        <pt x="228" y="-12" on="0"/>
        <pt x="152" y="15" on="0"/>
        <pt x="99" y="63" on="0"/>
        <pt x="70" y="130" on="0"/>
        <pt x="70" y="170" on="1"/>
        <pt x="70" y="211" on="0"/>
        <pt x="96" y="272" on="0"/>
        <pt x="141" y="320" on="0"/>
        <pt x="200" y="357" on="0"/>
        <pt x="233" y="373" on="1"/>
        <pt x="188" y="421" on="0"/>
        <pt x="139" y="502" on="0"/>
        <pt x="139" y="551" on="1"/>
        <pt x="139" y="586" on="0"/>
        <pt x="163" y="644" on="0"/>
        <pt x="208" y="686" on="0"/>
        <pt x="272" y="710" on="0"/>
        <pt x="311" y="710" on="1"/>
        <pt x="348" y="710" on="0"/>
        <pt x="408" y="688" on="0"/>
        <pt x="450" y="650" on="0"/>
        <pt x="473" y="598" on="0"/>
        <pt x="473" y="568" on="1"/>
        <pt x="473" y="532" on="0"/>
        <pt x="445" y="475" on="0"/>
        <pt x="396" y="428" on="0"/>
        <pt x="327" y="387" on="0"/>
        <pt x="285" y="367" on="1"/>
        <pt x="490" y="161" on="1"/>
        <pt x="507" y="201" on="0"/>
        <pt x="522" y="301" on="0"/>
        <pt x="523" y="355" on="1"/>
        <pt x="638" y="355" on="1"/>
        <pt x="638" y="323" on="1"/>
        <pt x="553" y="323" on="1"/>
        <pt x="550" y="270" on="0"/>
        <pt x="531" y="178" on="0"/>
        <pt x="513" y="137" on="1"/>
        <pt x="647" y="0" on="1"/>
        <pt x="601" y="0" on="1"/>
      </contour>
      <contour>
        <pt x="310" y="680" on="1"/>
        <pt x="278" y="680" on="0"/>
        <pt x="228" y="661" on="0"/>
        <pt x="194" y="629" on="0"/>
        <pt x="175" y="585" on="0"/>
        <pt x="175" y="560" on="1"/>
        <pt x="175" y="544" on="1"/>
        <pt x="175" y="504" on="0"/>
        <pt x="227" y="429" on="0"/>
        <pt x="264" y="388" on="1"/>
        <pt x="301" y="405" on="0"/>
        <pt x="364" y="442" on="0"/>
        <pt x="411" y="484" on="0"/>
        <pt x="437" y="530" on="0"/>
        <pt x="437" y="557" on="1"/>
        <pt x="437" y="570" on="1"/>
        <pt x="437" y="596" on="0"/>
        <pt x="416" y="637" on="0"/>
        <pt x="382" y="665" on="0"/>
        <pt x="335" y="680" on="0"/>
      </contour>
      <contour>
        <pt x="108" y="161" on="1"/>
        <pt x="108" y="129" on="0"/>
        <pt x="133" y="77" on="0"/>
        <pt x="178" y="40" on="0"/>
        <pt x="239" y="20" on="0"/>
        <pt x="276" y="20" on="1"/>
        <pt x="346" y="20" on="0"/>
        <pt x="444" y="77" on="0"/>
        <pt x="474" y="129" on="1"/>
        <pt x="254" y="352" on="1"/>
        <pt x="224" y="337" on="0"/>
        <pt x="171" y="305" on="0"/>
        <pt x="131" y="266" on="0"/>
        <pt x="108" y="214" on="0"/>
        <pt x="108" y="180" on="1"/>
      </contour>
    </TTGlyph>
    <TTGlyph name="approxequal" xMin="64" yMin="167" xMax="536" yMax="444">
      <component glyphName="asciitilde" x="0" y="87" flags="0x204"/>
      <component glyphName="asciitilde" x="0" y="-85" flags="0x4"/>
    </TTGlyph>
    <TTGlyph name="aring" xMin="57" yMin="-12" xMax="500" yMax="779">
      <component glyphName="a" x="0" y="0" flags="0x204"/>
      <component glyphName="ring" x="-49" y="0" flags="0x4"/>
    </TTGlyph>
    <TTGlyph name="aring.alt01" xMin="57" yMin="-12" xMax="467" yMax="779">
      <component glyphName="a.alt01" x="0" y="0" flags="0x204"/>
      <component glyphName="ring" x="-27" y="0" flags="0x4"/>
    </TTGlyph>
    <TTGlyph name="asciicircum" xMin="64" yMin="316" xMax="536" yMax="698">
      <contour>
        <pt x="508" y="316" on="1"/>
        <pt x="301" y="664" on="1"/>
        <pt x="299" y="664" on="1"/>
        <pt x="92" y="316" on="1"/>
        <pt x="64" y="331" on="1"/>
        <pt x="281" y="698" on="1"/>
        <pt x="319" y="698" on="1"/>
        <pt x="536" y="331" on="1"/>
      </contour>
    </TTGlyph>
    <TTGlyph name="asciitilde" xMin="64" yMin="252" xMax="536" yMax="357">
      <contour>
        <pt x="423" y="252" on="1"/>
        <pt x="408" y="252" on="0"/>
        <pt x="379" y="257" on="0"/>
        <pt x="349" y="266" on="0"/>
        <pt x="315" y="280" on="0"/>
        <pt x="293" y="290" on="1"/>
        <pt x="273" y="299" on="0"/>
        <pt x="242" y="312" on="0"/>
        <pt x="215" y="321" on="0"/>
        <pt x="189" y="326" on="0"/>
        <pt x="175" y="326" on="1"/>
        <pt x="147" y="326" on="0"/>
        <pt x="105" y="308" on="0"/>
        <pt x="82" y="286" on="1"/>
        <pt x="64" y="308" on="1"/>
        <pt x="88" y="333" on="0"/>
        <pt x="141" y="357" on="0"/>
        <pt x="177" y="357" on="1"/>
        <pt x="192" y="357" on="0"/>
        <pt x="221" y="352" on="0"/>
        <pt x="251" y="343" on="0"/>
        <pt x="285" y="329" on="0"/>
        <pt x="307" y="319" on="1"/>
        <pt x="327" y="310" on="0"/>
        <pt x="358" y="296" on="0"/>
        <pt x="385" y="287" on="0"/>
        <pt x="411" y="283" on="0"/>
        <pt x="425" y="283" on="1"/>
        <pt x="453" y="283" on="0"/>
        <pt x="495" y="301" on="0"/>
        <pt x="518" y="323" on="1"/>
        <pt x="536" y="301" on="1"/>
        <pt x="512" y="276" on="0"/>
        <pt x="459" y="252" on="0"/>
      </contour>
    </TTGlyph>
    <TTGlyph name="asterisk" xMin="22" yMin="425" xMax="361" yMax="747">
      <contour>
        <pt x="101" y="425" on="1"/>
        <pt x="76" y="443" on="1"/>
        <pt x="170" y="568" on="1"/>
        <pt x="22" y="612" on="1"/>
        <pt x="31" y="643" on="1"/>
        <pt x="178" y="592" on="1"/>
        <pt x="176" y="747" on="1"/>
        <pt x="206" y="747" on="1"/>
        <pt x="204" y="592" on="1"/>
        <pt x="352" y="643" on="1"/>
        <pt x="361" y="612" on="1"/>
        <pt x="212" y="568" on="1"/>
        <pt x="307" y="443" on="1"/>
        <pt x="282" y="425" on="1"/>
        <pt x="191" y="552" on="1"/>
      </contour>
    </TTGlyph>
    <TTGlyph name="at" xMin="69" yMin="-121" xMax="814" yMax="710">
      <contour>
        <pt x="677" y="-121" on="1"/>
        <pt x="442" y="-121" on="1"/>
        <pt x="362" y="-121" on="0"/>
        <pt x="226" y="-65" on="0"/>
        <pt x="126" y="43" on="0"/>
        <pt x="69" y="198" on="0"/>
        <pt x="69" y="297" on="1"/>
        <pt x="69" y="392" on="0"/>
        <pt x="125" y="545" on="0"/>
        <pt x="226" y="652" on="0"/>
        <pt x="364" y="710" on="0"/>
        <pt x="445" y="710" on="1"/>
        <pt x="519" y="710" on="0"/>
        <pt x="653" y="662" on="0"/>
        <pt x="754" y="566" on="0"/>
        <pt x="814" y="423" on="0"/>
        <pt x="814" y="328" on="1"/>
        <pt x="814" y="274" on="0"/>
        <pt x="797" y="180" on="0"/>
        <pt x="761" y="110" on="0"/>
        <pt x="704" y="69" on="0"/>
        <pt x="664" y="69" on="1"/>
        <pt x="623" y="69" on="0"/>
        <pt x="574" y="114" on="0"/>
        <pt x="569" y="150" on="1"/>
        <pt x="566" y="150" on="1"/>
        <pt x="550" y="118" on="0"/>
        <pt x="486" y="69" on="0"/>
        <pt x="433" y="69" on="1"/>
        <pt x="354" y="69" on="0"/>
        <pt x="260" y="178" on="0"/>
        <pt x="260" y="287" on="1"/>
        <pt x="260" y="399" on="0"/>
        <pt x="354" y="508" on="0"/>
        <pt x="433" y="508" on="1"/>
        <pt x="486" y="508" on="0"/>
        <pt x="549" y="462" on="0"/>
        <pt x="563" y="433" on="1"/>
        <pt x="566" y="433" on="1"/>
        <pt x="566" y="497" on="1"/>
        <pt x="598" y="497" on="1"/>
        <pt x="598" y="171" on="1"/>
        <pt x="598" y="136" on="0"/>
        <pt x="634" y="97" on="0"/>
        <pt x="667" y="97" on="1"/>
        <pt x="721" y="97" on="0"/>
        <pt x="782" y="207" on="0"/>
        <pt x="782" y="306" on="1"/>
        <pt x="782" y="353" on="1"/>
        <pt x="782" y="427" on="0"/>
        <pt x="730" y="549" on="0"/>
        <pt x="640" y="635" on="0"/>
        <pt x="517" y="682" on="0"/>
        <pt x="445" y="682" on="1"/>
        <pt x="371" y="682" on="0"/>
        <pt x="245" y="628" on="0"/>
        <pt x="153" y="533" on="0"/>
        <pt x="101" y="402" on="0"/>
        <pt x="101" y="325" on="1"/>
        <pt x="101" y="271" on="1"/>
        <pt x="101" y="190" on="0"/>
        <pt x="152" y="56" on="0"/>
        <pt x="243" y="-40" on="0"/>
        <pt x="368" y="-93" on="0"/>
        <pt x="442" y="-93" on="1"/>
        <pt x="677" y="-93" on="1"/>
      </contour>
      <contour>
        <pt x="436" y="98" on="1"/>
        <pt x="463" y="98" on="0"/>
        <pt x="511" y="115" on="0"/>
        <pt x="546" y="146" on="0"/>
        <pt x="566" y="190" on="0"/>
        <pt x="566" y="217" on="1"/>
        <pt x="566" y="360" on="1"/>
        <pt x="566" y="387" on="0"/>
        <pt x="546" y="430" on="0"/>
        <pt x="511" y="462" on="0"/>
        <pt x="463" y="479" on="0"/>
        <pt x="436" y="479" on="1"/>
        <pt x="367" y="479" on="0"/>
        <pt x="297" y="389" on="0"/>
        <pt x="297" y="311" on="1"/>
        <pt x="297" y="263" on="1"/>
        <pt x="297" y="187" on="0"/>
        <pt x="367" y="98" on="0"/>
      </contour>
    </TTGlyph>
    <TTGlyph name="atilde" xMin="57" yMin="-12" xMax="500" yMax="708">
      <component glyphName="a" x="0" y="0" flags="0x204"/>
      <component glyphName="tilde" x="-49" y="0" flags="0x4"/>
    </TTGlyph>
    <TTGlyph name="atilde.alt01" xMin="57" yMin="-12" xMax="467" yMax="708">
      <component glyphName="a.alt01" x="0" y="0" flags="0x204"/>
      <component glyphName="tilde" x="-27" y="0" flags="0x4"/>
    </TTGlyph>
    <TTGlyph name="b" xMin="100" yMin="-12" xMax="510" yMax="740">
      <contour>
        <pt x="100" y="740" on="1"/>
        <pt x="135" y="740" on="1"/>
        <pt x="135" y="429" on="1"/>
        <pt x="138" y="429" on="1"/>
        <pt x="155" y="466" on="0"/>
        <pt x="235" y="520" on="0"/>
        <pt x="299" y="520" on="1"/>
        <pt x="399" y="520" on="0"/>
        <pt x="510" y="385" on="0"/>
        <pt x="510" y="254" on="1"/>
        <pt x="510" y="123" on="0"/>
        <pt x="399" y="-12" on="0"/>
        <pt x="299" y="-12" on="1"/>
        <pt x="235" y="-12" on="0"/>
        <pt x="155" y="43" on="0"/>
        <pt x="138" y="79" on="1"/>
        <pt x="135" y="79" on="1"/>
        <pt x="135" y="0" on="1"/>
        <pt x="100" y="0" on="1"/>
      </contour>
      <contour>
        <pt x="294" y="20" on="1"/>
        <pt x="379" y="20" on="0"/>
        <pt x="472" y="130" on="0"/>
        <pt x="472" y="225" on="1"/>
        <pt x="472" y="283" on="1"/>
        <pt x="472" y="378" on="0"/>
        <pt x="379" y="489" on="0"/>
        <pt x="294" y="489" on="1"/>
        <pt x="262" y="489" on="0"/>
        <pt x="204" y="470" on="0"/>
        <pt x="161" y="437" on="0"/>
        <pt x="135" y="390" on="0"/>
        <pt x="135" y="362" on="1"/>
        <pt x="135" y="148" on="1"/>
        <pt x="135" y="119" on="0"/>
        <pt x="161" y="72" on="0"/>
        <pt x="204" y="38" on="0"/>
        <pt x="262" y="20" on="0"/>
      </contour>
    </TTGlyph>
    <TTGlyph name="backslash" xMin="40" yMin="-151" xMax="312" yMax="740">
      <contour>
        <pt x="280" y="-151" on="1"/>
        <pt x="40" y="740" on="1"/>
        <pt x="72" y="740" on="1"/>
        <pt x="312" y="-151" on="1"/>
      </contour>
    </TTGlyph>
    <TTGlyph name="bar" xMin="112" yMin="-138" xMax="143" yMax="760">
      <contour>
        <pt x="112" y="-138" on="1"/>
        <pt x="112" y="760" on="1"/>
        <pt x="143" y="760" on="1"/>
        <pt x="143" y="-138" on="1"/>
      </contour>
    </TTGlyph>
    <TTGlyph name="braceleft" xMin="24" yMin="-138" xMax="256" yMax="760">
      <contour>
        <pt x="159" y="-138" on="1"/>
        <pt x="121" y="-138" on="0"/>
        <pt x="121" y="-99" on="1"/>
        <pt x="121" y="197" on="1"/>
        <pt x="121" y="242" on="0"/>
        <pt x="69" y="283" on="0"/>
        <pt x="24" y="283" on="1"/>
        <pt x="24" y="339" on="1"/>
        <pt x="69" y="339" on="0"/>
        <pt x="121" y="380" on="0"/>
        <pt x="121" y="425" on="1"/>
        <pt x="121" y="721" on="1"/>
        <pt x="121" y="760" on="0"/>
        <pt x="159" y="760" on="1"/>
        <pt x="256" y="760" on="1"/>
        <pt x="256" y="731" on="1"/>
        <pt x="153" y="731" on="1"/>
        <pt x="153" y="427" on="1"/>
        <pt x="153" y="380" on="0"/>
        <pt x="100" y="321" on="0"/>
        <pt x="55" y="319" on="1"/>
        <pt x="55" y="303" on="1"/>
        <pt x="100" y="301" on="0"/>
        <pt x="153" y="242" on="0"/>
        <pt x="153" y="195" on="1"/>
        <pt x="153" y="-109" on="1"/>
        <pt x="256" y="-109" on="1"/>
        <pt x="256" y="-138" on="1"/>
      </contour>
    </TTGlyph>
    <TTGlyph name="braceright" xMin="66" yMin="-138" xMax="298" yMax="760">
      <contour>
        <pt x="163" y="760" on="1"/>
        <pt x="201" y="760" on="0"/>
        <pt x="201" y="721" on="1"/>
        <pt x="201" y="425" on="1"/>
        <pt x="201" y="380" on="0"/>
        <pt x="253" y="339" on="0"/>
        <pt x="298" y="339" on="1"/>
        <pt x="298" y="283" on="1"/>
        <pt x="253" y="283" on="0"/>
        <pt x="201" y="242" on="0"/>
        <pt x="201" y="197" on="1"/>
        <pt x="201" y="-99" on="1"/>
        <pt x="201" y="-138" on="0"/>
        <pt x="163" y="-138" on="1"/>
        <pt x="66" y="-138" on="1"/>
        <pt x="66" y="-109" on="1"/>
        <pt x="169" y="-109" on="1"/>
        <pt x="169" y="195" on="1"/>
        <pt x="169" y="242" on="0"/>
        <pt x="222" y="301" on="0"/>
        <pt x="267" y="303" on="1"/>
        <pt x="267" y="319" on="1"/>
        <pt x="222" y="321" on="0"/>
        <pt x="169" y="380" on="0"/>
        <pt x="169" y="427" on="1"/>
        <pt x="169" y="731" on="1"/>
        <pt x="66" y="731" on="1"/>
        <pt x="66" y="760" on="1"/>
      </contour>
    </TTGlyph>
    <TTGlyph name="bracketleft" xMin="104" yMin="-138" xMax="238" yMax="760">
      <contour>
        <pt x="104" y="-138" on="1"/>
        <pt x="104" y="760" on="1"/>
        <pt x="238" y="760" on="1"/>
        <pt x="238" y="731" on="1"/>
        <pt x="136" y="731" on="1"/>
        <pt x="136" y="-109" on="1"/>
        <pt x="238" y="-109" on="1"/>
        <pt x="238" y="-138" on="1"/>
      </contour>
    </TTGlyph>
    <TTGlyph name="bracketright" xMin="67" yMin="-138" xMax="201" yMax="760">
      <contour>
        <pt x="201" y="760" on="1"/>
        <pt x="201" y="-138" on="1"/>
        <pt x="67" y="-138" on="1"/>
        <pt x="67" y="-109" on="1"/>
        <pt x="169" y="-109" on="1"/>
        <pt x="169" y="731" on="1"/>
        <pt x="67" y="731" on="1"/>
        <pt x="67" y="760" on="1"/>
      </contour>
    </TTGlyph>
    <TTGlyph name="breve" xMin="163" yMin="604" xMax="437" yMax="733">
      <contour>
        <pt x="300" y="604" on="1"/>
        <pt x="271" y="604" on="0"/>
        <pt x="230" y="622" on="0"/>
        <pt x="200" y="653" on="0"/>
        <pt x="175" y="697" on="0"/>
        <pt x="163" y="723" on="1"/>
        <pt x="186" y="733" on="1"/>
        <pt x="203" y="705" on="1"/>
        <pt x="215" y="684" on="0"/>
        <pt x="235" y="657" on="0"/>
        <pt x="257" y="640" on="0"/>
        <pt x="283" y="633" on="0"/>
        <pt x="300" y="633" on="1"/>
        <pt x="334" y="633" on="0"/>
        <pt x="374" y="664" on="0"/>
        <pt x="397" y="705" on="1"/>
        <pt x="414" y="733" on="1"/>
        <pt x="437" y="723" on="1"/>
        <pt x="425" y="697" on="0"/>
        <pt x="400" y="653" on="0"/>
        <pt x="370" y="622" on="0"/>
        <pt x="329" y="604" on="0"/>
      </contour>
    </TTGlyph>
    <TTGlyph name="breve.case" xMin="163" yMin="781" xMax="437" yMax="911">
      <contour>
        <pt x="300" y="781" on="1"/>
        <pt x="271" y="781" on="0"/>
        <pt x="230" y="799" on="0"/>
        <pt x="200" y="830" on="0"/>
        <pt x="175" y="874" on="0"/>
        <pt x="163" y="900" on="1"/>
        <pt x="186" y="911" on="1"/>
        <pt x="203" y="882" on="1"/>
        <pt x="215" y="861" on="0"/>
        <pt x="235" y="834" on="0"/>
        <pt x="257" y="818" on="0"/>
        <pt x="283" y="811" on="0"/>
        <pt x="300" y="811" on="1"/>
        <pt x="334" y="811" on="0"/>
        <pt x="374" y="841" on="0"/>
        <pt x="397" y="882" on="1"/>
        <pt x="414" y="911" on="1"/>
        <pt x="437" y="900" on="1"/>
        <pt x="425" y="874" on="0"/>
        <pt x="400" y="830" on="0"/>
        <pt x="370" y="799" on="0"/>
        <pt x="329" y="781" on="0"/>
      </contour>
    </TTGlyph>
    <TTGlyph name="brokenbar" xMin="112" yMin="-138" xMax="143" yMax="760">
      <contour>
        <pt x="112" y="402" on="1"/>
        <pt x="112" y="760" on="1"/>
        <pt x="143" y="760" on="1"/>
        <pt x="143" y="402" on="1"/>
      </contour>
      <contour>
        <pt x="112" y="-138" on="1"/>
        <pt x="112" y="220" on="1"/>
        <pt x="143" y="220" on="1"/>
        <pt x="143" y="-138" on="1"/>
      </contour>
    </TTGlyph>
    <TTGlyph name="bullet" xMin="80" yMin="210" xMax="270" yMax="398">
      <contour>
        <pt x="175" y="210" on="1"/>
        <pt x="124" y="210" on="0"/>
        <pt x="80" y="257" on="0"/>
        <pt x="80" y="292" on="1"/>
        <pt x="80" y="316" on="1"/>
        <pt x="80" y="351" on="0"/>
        <pt x="124" y="398" on="0"/>
        <pt x="175" y="398" on="1"/>
        <pt x="226" y="398" on="0"/>
        <pt x="270" y="351" on="0"/>
        <pt x="270" y="316" on="1"/>
        <pt x="270" y="292" on="1"/>
        <pt x="270" y="257" on="0"/>
        <pt x="226" y="210" on="0"/>
      </contour>
    </TTGlyph>
    <TTGlyph name="c" xMin="57" yMin="-12" xMax="451" yMax="520">
      <contour>
        <pt x="272" y="-12" on="1"/>
        <pt x="170" y="-12" on="0"/>
        <pt x="57" y="124" on="0"/>
        <pt x="57" y="254" on="1"/>
        <pt x="57" y="385" on="0"/>
        <pt x="170" y="520" on="0"/>
        <pt x="272" y="520" on="1"/>
        <pt x="336" y="520" on="0"/>
        <pt x="420" y="463" on="0"/>
        <pt x="443" y="415" on="1"/>
        <pt x="414" y="400" on="1"/>
        <pt x="392" y="443" on="0"/>
        <pt x="325" y="489" on="0"/>
        <pt x="272" y="489" on="1"/>
        <pt x="186" y="489" on="0"/>
        <pt x="95" y="377" on="0"/>
        <pt x="95" y="283" on="1"/>
        <pt x="95" y="225" on="1"/>
        <pt x="95" y="131" on="0"/>
        <pt x="186" y="19" on="0"/>
        <pt x="272" y="19" on="1"/>
        <pt x="329" y="19" on="0"/>
        <pt x="402" y="66" on="0"/>
        <pt x="425" y="108" on="1"/>
        <pt x="451" y="90" on="1"/>
        <pt x="426" y="44" on="0"/>
        <pt x="340" y="-12" on="0"/>
      </contour>
    </TTGlyph>
    <TTGlyph name="caron" xMin="155" yMin="602" xMax="445" yMax="753">
      <contour>
        <pt x="279" y="602" on="1"/>
        <pt x="155" y="737" on="1"/>
        <pt x="176" y="753" on="1"/>
        <pt x="300" y="629" on="1"/>
        <pt x="424" y="753" on="1"/>
        <pt x="445" y="737" on="1"/>
        <pt x="321" y="602" on="1"/>
      </contour>
    </TTGlyph>
    <TTGlyph name="caron.case" xMin="155" yMin="780" xMax="445" yMax="931">
      <contour>
        <pt x="279" y="780" on="1"/>
        <pt x="155" y="915" on="1"/>
        <pt x="176" y="931" on="1"/>
        <pt x="300" y="806" on="1"/>
        <pt x="424" y="931" on="1"/>
        <pt x="445" y="915" on="1"/>
        <pt x="321" y="780" on="1"/>
      </contour>
    </TTGlyph>
    <TTGlyph name="ccedilla" xMin="57" yMin="-203" xMax="451" yMax="520">
      <contour>
        <pt x="272" y="520" on="1"/>
        <pt x="336" y="520" on="0"/>
        <pt x="420" y="463" on="0"/>
        <pt x="443" y="416" on="1"/>
        <pt x="414" y="400" on="1"/>
        <pt x="392" y="443" on="0"/>
        <pt x="325" y="489" on="0"/>
        <pt x="272" y="489" on="1"/>
        <pt x="186" y="489" on="0"/>
        <pt x="95" y="377" on="0"/>
        <pt x="95" y="283" on="1"/>
        <pt x="95" y="225" on="1"/>
        <pt x="95" y="131" on="0"/>
        <pt x="186" y="19" on="0"/>
        <pt x="272" y="19" on="1"/>
        <pt x="329" y="19" on="0"/>
        <pt x="402" y="66" on="0"/>
        <pt x="425" y="108" on="1"/>
        <pt x="451" y="90" on="1"/>
        <pt x="428" y="46" on="0"/>
        <pt x="346" y="-10" on="0"/>
        <pt x="283" y="-12" on="1"/>
        <pt x="269" y="-70" on="1"/>
        <pt x="271" y="-72" on="1"/>
        <pt x="279" y="-70" on="0"/>
        <pt x="296" y="-69" on="0"/>
        <pt x="304" y="-69" on="1"/>
        <pt x="333" y="-69" on="0"/>
        <pt x="371" y="-101" on="0"/>
        <pt x="371" y="-129" on="1"/>
        <pt x="371" y="-161" on="0"/>
        <pt x="322" y="-203" on="0"/>
        <pt x="282" y="-203" on="1"/>
        <pt x="250" y="-203" on="0"/>
        <pt x="206" y="-183" on="0"/>
        <pt x="197" y="-169" on="1"/>
        <pt x="216" y="-149" on="1"/>
        <pt x="226" y="-162" on="0"/>
        <pt x="259" y="-177" on="0"/>
        <pt x="282" y="-177" on="1"/>
        <pt x="307" y="-177" on="0"/>
        <pt x="339" y="-153" on="0"/>
        <pt x="339" y="-130" on="1"/>
        <pt x="339" y="-112" on="0"/>
        <pt x="312" y="-87" on="0"/>
        <pt x="276" y="-85" on="1"/>
        <pt x="241" y="-82" on="1"/>
        <pt x="257" y="-12" on="1"/>
        <pt x="162" y="-7" on="0"/>
        <pt x="57" y="128" on="0"/>
        <pt x="57" y="254" on="1"/>
        <pt x="57" y="385" on="0"/>
        <pt x="170" y="520" on="0"/>
      </contour>
    </TTGlyph>
    <TTGlyph name="cedilla" xMin="224" yMin="-203" xMax="399" yMax="7">
      <contour>
        <pt x="310" y="-203" on="1"/>
        <pt x="278" y="-203" on="0"/>
        <pt x="234" y="-183" on="0"/>
        <pt x="224" y="-169" on="1"/>
        <pt x="243" y="-149" on="1"/>
        <pt x="254" y="-162" on="0"/>
        <pt x="287" y="-177" on="0"/>
        <pt x="310" y="-177" on="1"/>
        <pt x="335" y="-177" on="0"/>
        <pt x="367" y="-153" on="0"/>
        <pt x="367" y="-130" on="1"/>
        <pt x="367" y="-112" on="0"/>
        <pt x="340" y="-87" on="0"/>
        <pt x="304" y="-85" on="1"/>
        <pt x="269" y="-83" on="1"/>
        <pt x="290" y="7" on="1"/>
        <pt x="315" y="7" on="1"/>
        <pt x="297" y="-70" on="1"/>
        <pt x="299" y="-72" on="1"/>
        <pt x="307" y="-70" on="0"/>
        <pt x="324" y="-69" on="0"/>
        <pt x="331" y="-69" on="1"/>
        <pt x="360" y="-69" on="0"/>
        <pt x="399" y="-101" on="0"/>
        <pt x="399" y="-129" on="1"/>
        <pt x="399" y="-161" on="0"/>
        <pt x="350" y="-203" on="0"/>
      </contour>
    </TTGlyph>
    <TTGlyph name="cent" xMin="57" yMin="-114" xMax="452" yMax="622">
      <contour>
        <pt x="249" y="-114" on="1"/>
        <pt x="249" y="-11" on="1"/>
        <pt x="157" y="-3" on="0"/>
        <pt x="57" y="131" on="0"/>
        <pt x="57" y="254" on="1"/>
        <pt x="57" y="377" on="0"/>
        <pt x="157" y="512" on="0"/>
        <pt x="249" y="519" on="1"/>
        <pt x="249" y="622" on="1"/>
        <pt x="281" y="622" on="1"/>
        <pt x="281" y="520" on="1"/>
        <pt x="341" y="518" on="0"/>
        <pt x="420" y="461" on="0"/>
        <pt x="443" y="416" on="1"/>
        <pt x="414" y="401" on="1"/>
        <pt x="392" y="443" on="0"/>
        <pt x="329" y="487" on="0"/>
        <pt x="280" y="489" on="1"/>
        <pt x="280" y="20" on="1"/>
        <pt x="334" y="22" on="0"/>
        <pt x="403" y="67" on="0"/>
        <pt x="426" y="108" on="1"/>
        <pt x="452" y="90" on="1"/>
        <pt x="428" y="45" on="0"/>
        <pt x="344" y="-10" on="0"/>
        <pt x="281" y="-12" on="1"/>
        <pt x="281" y="-114" on="1"/>
      </contour>
      <contour>
        <pt x="95" y="225" on="1"/>
        <pt x="95" y="137" on="0"/>
        <pt x="174" y="28" on="0"/>
        <pt x="249" y="21" on="1"/>
        <pt x="249" y="487" on="1"/>
        <pt x="174" y="481" on="0"/>
        <pt x="95" y="371" on="0"/>
        <pt x="95" y="283" on="1"/>
      </contour>
    </TTGlyph>
    <TTGlyph name="circumflex" xMin="155" yMin="597" xMax="445" yMax="748">
      <contour>
        <pt x="321" y="748" on="1"/>
        <pt x="445" y="613" on="1"/>
        <pt x="424" y="597" on="1"/>
        <pt x="300" y="722" on="1"/>
        <pt x="176" y="597" on="1"/>
        <pt x="155" y="613" on="1"/>
        <pt x="279" y="748" on="1"/>
      </contour>
    </TTGlyph>
    <TTGlyph name="circumflex.case" xMin="155" yMin="775" xMax="445" yMax="926">
      <contour>
        <pt x="321" y="926" on="1"/>
        <pt x="445" y="790" on="1"/>
        <pt x="424" y="775" on="1"/>
        <pt x="300" y="899" on="1"/>
        <pt x="176" y="775" on="1"/>
        <pt x="155" y="790" on="1"/>
        <pt x="279" y="926" on="1"/>
      </contour>
    </TTGlyph>
    <TTGlyph name="colon" xMin="99" yMin="-7" xMax="169" yMax="515">
      <component glyphName="period" x="10" y="0" flags="0x4"/>
      <component glyphName="period" x="10" y="447" flags="0x4"/>
    </TTGlyph>
    <TTGlyph name="comma" xMin="48" yMin="-144" xMax="159" yMax="68">
      <contour>
        <pt x="124" y="68" on="1"/>
        <pt x="142" y="68" on="0"/>
        <pt x="159" y="49" on="0"/>
        <pt x="159" y="34" on="1"/>
        <pt x="159" y="22" on="1"/>
        <pt x="159" y="-20" on="0"/>
        <pt x="113" y="-112" on="0"/>
        <pt x="78" y="-144" on="1"/>
        <pt x="48" y="-144" on="1"/>
        <pt x="84" y="-108" on="0"/>
        <pt x="117" y="-35" on="0"/>
        <pt x="122" y="-6" on="1"/>
        <pt x="104" y="-5" on="0"/>
        <pt x="89" y="13" on="0"/>
        <pt x="89" y="24" on="1"/>
        <pt x="89" y="34" on="1"/>
        <pt x="89" y="49" on="0"/>
        <pt x="105" y="68" on="0"/>
      </contour>
    </TTGlyph>
    <TTGlyph name="copyright" xMin="38" yMin="-12" xMax="686" yMax="710">
      <contour>
        <pt x="362" y="-12" on="1"/>
        <pt x="291" y="-12" on="0"/>
        <pt x="173" y="39" on="0"/>
        <pt x="86" y="133" on="0"/>
        <pt x="38" y="266" on="0"/>
        <pt x="38" y="349" on="1"/>
        <pt x="38" y="431" on="0"/>
        <pt x="86" y="565" on="0"/>
        <pt x="173" y="659" on="0"/>
        <pt x="291" y="710" on="0"/>
        <pt x="362" y="710" on="1"/>
        <pt x="433" y="710" on="0"/>
        <pt x="552" y="659" on="0"/>
        <pt x="638" y="565" on="0"/>
        <pt x="686" y="431" on="0"/>
        <pt x="686" y="349" on="1"/>
        <pt x="686" y="266" on="0"/>
        <pt x="638" y="133" on="0"/>
        <pt x="552" y="39" on="0"/>
        <pt x="433" y="-12" on="0"/>
      </contour>
      <contour>
        <pt x="362" y="16" on="1"/>
        <pt x="427" y="16" on="0"/>
        <pt x="534" y="63" on="0"/>
        <pt x="611" y="146" on="0"/>
        <pt x="653" y="259" on="0"/>
        <pt x="653" y="325" on="1"/>
        <pt x="653" y="373" on="1"/>
        <pt x="653" y="439" on="0"/>
        <pt x="611" y="552" on="0"/>
        <pt x="534" y="635" on="0"/>
        <pt x="427" y="682" on="0"/>
        <pt x="362" y="682" on="1"/>
        <pt x="297" y="682" on="0"/>
        <pt x="189" y="635" on="0"/>
        <pt x="113" y="552" on="0"/>
        <pt x="71" y="439" on="0"/>
        <pt x="71" y="373" on="1"/>
        <pt x="71" y="325" on="1"/>
        <pt x="71" y="259" on="0"/>
        <pt x="113" y="146" on="0"/>
        <pt x="189" y="63" on="0"/>
        <pt x="297" y="16" on="0"/>
      </contour>
      <contour>
        <pt x="362" y="150" on="1"/>
        <pt x="291" y="150" on="0"/>
        <pt x="209" y="251" on="0"/>
        <pt x="209" y="347" on="1"/>
        <pt x="209" y="442" on="0"/>
        <pt x="292" y="543" on="0"/>
        <pt x="363" y="543" on="1"/>
        <pt x="413" y="543" on="0"/>
        <pt x="475" y="496" on="0"/>
        <pt x="489" y="461" on="1"/>
        <pt x="463" y="449" on="1"/>
        <pt x="450" y="480" on="0"/>
        <pt x="401" y="515" on="0"/>
        <pt x="363" y="515" on="1"/>
        <pt x="307" y="515" on="0"/>
        <pt x="242" y="437" on="0"/>
        <pt x="242" y="362" on="1"/>
        <pt x="242" y="331" on="1"/>
        <pt x="242" y="254" on="0"/>
        <pt x="307" y="178" on="0"/>
        <pt x="362" y="178" on="1"/>
        <pt x="401" y="178" on="0"/>
        <pt x="455" y="214" on="0"/>
        <pt x="469" y="246" on="1"/>
        <pt x="493" y="232" on="1"/>
        <pt x="478" y="197" on="0"/>
        <pt x="411" y="150" on="0"/>
      </contour>
    </TTGlyph>
    <TTGlyph name="currency" xMin="21" yMin="74" xMax="571" yMax="624">
      <contour>
        <pt x="296" y="127" on="1"/>
        <pt x="202" y="127" on="0"/>
        <pt x="152" y="183" on="1"/>
        <pt x="44" y="74" on="1"/>
        <pt x="21" y="97" on="1"/>
        <pt x="132" y="208" on="1"/>
        <pt x="98" y="262" on="0"/>
        <pt x="98" y="349" on="1"/>
        <pt x="98" y="436" on="0"/>
        <pt x="132" y="490" on="1"/>
        <pt x="21" y="601" on="1"/>
        <pt x="44" y="624" on="1"/>
        <pt x="152" y="515" on="1"/>
        <pt x="202" y="571" on="0"/>
        <pt x="296" y="571" on="1"/>
        <pt x="390" y="571" on="0"/>
        <pt x="440" y="515" on="1"/>
        <pt x="548" y="624" on="1"/>
        <pt x="571" y="601" on="1"/>
        <pt x="460" y="490" on="1"/>
        <pt x="494" y="436" on="0"/>
        <pt x="494" y="349" on="1"/>
        <pt x="494" y="262" on="0"/>
        <pt x="460" y="208" on="1"/>
        <pt x="571" y="97" on="1"/>
        <pt x="548" y="74" on="1"/>
        <pt x="440" y="183" on="1"/>
        <pt x="390" y="127" on="0"/>
      </contour>
      <contour>
        <pt x="296" y="157" on="1"/>
        <pt x="372" y="157" on="0"/>
        <pt x="456" y="245" on="0"/>
        <pt x="456" y="324" on="1"/>
        <pt x="456" y="374" on="1"/>
        <pt x="456" y="453" on="0"/>
        <pt x="372" y="541" on="0"/>
        <pt x="296" y="541" on="1"/>
        <pt x="220" y="541" on="0"/>
        <pt x="136" y="453" on="0"/>
        <pt x="136" y="374" on="1"/>
        <pt x="136" y="324" on="1"/>
        <pt x="136" y="245" on="0"/>
        <pt x="220" y="157" on="0"/>
      </contour>
    </TTGlyph>
    <TTGlyph name="d" xMin="57" yMin="-12" xMax="467" yMax="740">
      <contour>
        <pt x="432" y="79" on="1"/>
        <pt x="429" y="79" on="1"/>
        <pt x="412" y="43" on="0"/>
        <pt x="332" y="-12" on="0"/>
        <pt x="268" y="-12" on="1"/>
        <pt x="168" y="-12" on="0"/>
        <pt x="57" y="123" on="0"/>
        <pt x="57" y="254" on="1"/>
        <pt x="57" y="385" on="0"/>
        <pt x="168" y="520" on="0"/>
        <pt x="268" y="520" on="1"/>
        <pt x="332" y="520" on="0"/>
        <pt x="412" y="466" on="0"/>
        <pt x="429" y="429" on="1"/>
        <pt x="432" y="429" on="1"/>
        <pt x="432" y="740" on="1"/>
        <pt x="467" y="740" on="1"/>
        <pt x="467" y="0" on="1"/>
        <pt x="432" y="0" on="1"/>
      </contour>
      <contour>
        <pt x="273" y="20" on="1"/>
        <pt x="305" y="20" on="0"/>
        <pt x="363" y="38" on="0"/>
        <pt x="406" y="72" on="0"/>
        <pt x="432" y="119" on="0"/>
        <pt x="432" y="148" on="1"/>
        <pt x="432" y="362" on="1"/>
        <pt x="432" y="390" on="0"/>
        <pt x="406" y="437" on="0"/>
        <pt x="363" y="470" on="0"/>
        <pt x="305" y="489" on="0"/>
        <pt x="273" y="489" on="1"/>
        <pt x="188" y="489" on="0"/>
        <pt x="95" y="378" on="0"/>
        <pt x="95" y="283" on="1"/>
        <pt x="95" y="225" on="1"/>
        <pt x="95" y="130" on="0"/>
        <pt x="188" y="20" on="0"/>
      </contour>
    </TTGlyph>
    <TTGlyph name="dagger" xMin="56" yMin="-200" xMax="503" yMax="740">
      <contour>
        <pt x="263" y="-200" on="1"/>
        <pt x="263" y="479" on="1"/>
        <pt x="56" y="479" on="1"/>
        <pt x="56" y="508" on="1"/>
        <pt x="263" y="508" on="1"/>
        <pt x="263" y="740" on="1"/>
        <pt x="296" y="740" on="1"/>
        <pt x="296" y="508" on="1"/>
        <pt x="503" y="508" on="1"/>
        <pt x="503" y="479" on="1"/>
        <pt x="296" y="479" on="1"/>
        <pt x="296" y="-200" on="1"/>
      </contour>
    </TTGlyph>
    <TTGlyph name="daggerdbl" xMin="56" yMin="-200" xMax="503" yMax="740">
      <contour>
        <pt x="263" y="-200" on="1"/>
        <pt x="263" y="32" on="1"/>
        <pt x="56" y="32" on="1"/>
        <pt x="56" y="61" on="1"/>
        <pt x="263" y="61" on="1"/>
        <pt x="263" y="479" on="1"/>
        <pt x="56" y="479" on="1"/>
        <pt x="56" y="508" on="1"/>
        <pt x="263" y="508" on="1"/>
        <pt x="263" y="740" on="1"/>
        <pt x="296" y="740" on="1"/>
        <pt x="296" y="508" on="1"/>
        <pt x="503" y="508" on="1"/>
        <pt x="503" y="479" on="1"/>
        <pt x="296" y="479" on="1"/>
        <pt x="296" y="61" on="1"/>
        <pt x="503" y="61" on="1"/>
        <pt x="503" y="32" on="1"/>
        <pt x="296" y="32" on="1"/>
        <pt x="296" y="-200" on="1"/>
      </contour>
    </TTGlyph>
    <TTGlyph name="degree" xMin="70" yMin="372" xMax="396" yMax="710">
      <contour>
        <pt x="233" y="372" on="1"/>
        <pt x="198" y="372" on="0"/>
        <pt x="138" y="398" on="0"/>
        <pt x="95" y="443" on="0"/>
        <pt x="70" y="505" on="0"/>
        <pt x="70" y="541" on="1"/>
        <pt x="70" y="577" on="0"/>
        <pt x="95" y="639" on="0"/>
        <pt x="138" y="684" on="0"/>
        <pt x="198" y="710" on="0"/>
        <pt x="233" y="710" on="1"/>
        <pt x="268" y="710" on="0"/>
        <pt x="328" y="684" on="0"/>
        <pt x="371" y="639" on="0"/>
        <pt x="396" y="577" on="0"/>
        <pt x="396" y="541" on="1"/>
        <pt x="396" y="505" on="0"/>
        <pt x="371" y="443" on="0"/>
        <pt x="328" y="398" on="0"/>
        <pt x="268" y="372" on="0"/>
      </contour>
      <contour>
        <pt x="233" y="402" on="1"/>
        <pt x="263" y="402" on="0"/>
        <pt x="311" y="424" on="0"/>
        <pt x="346" y="461" on="0"/>
        <pt x="364" y="512" on="0"/>
        <pt x="364" y="541" on="1"/>
        <pt x="364" y="570" on="0"/>
        <pt x="346" y="621" on="0"/>
        <pt x="311" y="658" on="0"/>
        <pt x="263" y="680" on="0"/>
        <pt x="233" y="680" on="1"/>
        <pt x="203" y="680" on="0"/>
        <pt x="155" y="658" on="0"/>
        <pt x="120" y="621" on="0"/>
        <pt x="102" y="570" on="0"/>
        <pt x="102" y="541" on="1"/>
        <pt x="102" y="512" on="0"/>
        <pt x="120" y="461" on="0"/>
        <pt x="155" y="424" on="0"/>
        <pt x="203" y="402" on="0"/>
      </contour>
    </TTGlyph>
    <TTGlyph name="dieresis" xMin="179" yMin="636" xMax="421" yMax="698">
      <contour>
        <pt x="209" y="636" on="1"/>
        <pt x="192" y="636" on="0"/>
        <pt x="179" y="652" on="0"/>
        <pt x="179" y="663" on="1"/>
        <pt x="179" y="671" on="1"/>
        <pt x="179" y="682" on="0"/>
        <pt x="192" y="698" on="0"/>
        <pt x="209" y="698" on="1"/>
        <pt x="225" y="698" on="0"/>
        <pt x="238" y="682" on="0"/>
        <pt x="238" y="671" on="1"/>
        <pt x="238" y="663" on="1"/>
        <pt x="238" y="652" on="0"/>
        <pt x="225" y="636" on="0"/>
      </contour>
      <contour>
        <pt x="391" y="636" on="1"/>
        <pt x="375" y="636" on="0"/>
        <pt x="362" y="652" on="0"/>
        <pt x="362" y="663" on="1"/>
        <pt x="362" y="671" on="1"/>
        <pt x="362" y="682" on="0"/>
        <pt x="375" y="698" on="0"/>
        <pt x="391" y="698" on="1"/>
        <pt x="408" y="698" on="0"/>
        <pt x="421" y="682" on="0"/>
        <pt x="421" y="671" on="1"/>
        <pt x="421" y="663" on="1"/>
        <pt x="421" y="652" on="0"/>
        <pt x="408" y="636" on="0"/>
      </contour>
    </TTGlyph>
    <TTGlyph name="dieresis.case" xMin="179" yMin="812" xMax="421" yMax="874">
      <contour>
        <pt x="209" y="812" on="1"/>
        <pt x="192" y="812" on="0"/>
        <pt x="179" y="828" on="0"/>
        <pt x="179" y="839" on="1"/>
        <pt x="179" y="847" on="1"/>
        <pt x="179" y="858" on="0"/>
        <pt x="192" y="874" on="0"/>
        <pt x="209" y="874" on="1"/>
        <pt x="225" y="874" on="0"/>
        <pt x="238" y="858" on="0"/>
        <pt x="238" y="847" on="1"/>
        <pt x="238" y="839" on="1"/>
        <pt x="238" y="828" on="0"/>
        <pt x="225" y="812" on="0"/>
      </contour>
      <contour>
        <pt x="391" y="812" on="1"/>
        <pt x="375" y="812" on="0"/>
        <pt x="362" y="828" on="0"/>
        <pt x="362" y="839" on="1"/>
        <pt x="362" y="847" on="1"/>
        <pt x="362" y="858" on="0"/>
        <pt x="375" y="874" on="0"/>
        <pt x="391" y="874" on="1"/>
        <pt x="408" y="874" on="0"/>
        <pt x="421" y="858" on="0"/>
        <pt x="421" y="847" on="1"/>
        <pt x="421" y="839" on="1"/>
        <pt x="421" y="828" on="0"/>
        <pt x="408" y="812" on="0"/>
      </contour>
    </TTGlyph>
    <TTGlyph name="divide" xMin="63" yMin="74" xMax="537" yMax="537">
      <contour>
        <pt x="63" y="290" on="1"/>
        <pt x="63" y="321" on="1"/>
        <pt x="537" y="321" on="1"/>
        <pt x="537" y="290" on="1"/>
      </contour>
      <contour>
        <pt x="300" y="74" on="1"/>
        <pt x="279" y="74" on="0"/>
        <pt x="259" y="92" on="0"/>
        <pt x="259" y="106" on="1"/>
        <pt x="259" y="117" on="1"/>
        <pt x="259" y="149" on="0"/>
        <pt x="300" y="149" on="1"/>
        <pt x="341" y="149" on="0"/>
        <pt x="341" y="117" on="1"/>
        <pt x="341" y="106" on="1"/>
        <pt x="341" y="92" on="0"/>
        <pt x="321" y="74" on="0"/>
      </contour>
      <contour>
        <pt x="300" y="461" on="1"/>
        <pt x="279" y="461" on="0"/>
        <pt x="259" y="479" on="0"/>
        <pt x="259" y="493" on="1"/>
        <pt x="259" y="505" on="1"/>
        <pt x="259" y="519" on="0"/>
        <pt x="279" y="537" on="0"/>
        <pt x="300" y="537" on="1"/>
        <pt x="321" y="537" on="0"/>
        <pt x="341" y="519" on="0"/>
        <pt x="341" y="505" on="1"/>
        <pt x="341" y="493" on="1"/>
        <pt x="341" y="479" on="0"/>
        <pt x="321" y="461" on="0"/>
      </contour>
    </TTGlyph>
    <TTGlyph name="dollar" xMin="44" yMin="-82" xMax="501" yMax="780">
      <contour>
        <pt x="269" y="-82" on="1"/>
        <pt x="269" y="0" on="1"/>
        <pt x="188" y="2" on="0"/>
        <pt x="81" y="67" on="0"/>
        <pt x="44" y="115" on="1"/>
        <pt x="72" y="138" on="1"/>
        <pt x="107" y="92" on="0"/>
        <pt x="199" y="35" on="0"/>
        <pt x="269" y="32" on="1"/>
        <pt x="269" y="346" on="1"/>
        <pt x="245" y="350" on="1"/>
        <pt x="192" y="359" on="0"/>
        <pt x="122" y="392" on="0"/>
        <pt x="80" y="438" on="0"/>
        <pt x="62" y="495" on="0"/>
        <pt x="62" y="527" on="1"/>
        <pt x="62" y="611" on="0"/>
        <pt x="176" y="696" on="0"/>
        <pt x="269" y="698" on="1"/>
        <pt x="269" y="780" on="1"/>
        <pt x="298" y="780" on="1"/>
        <pt x="298" y="698" on="1"/>
        <pt x="367" y="694" on="0"/>
        <pt x="462" y="641" on="0"/>
        <pt x="491" y="599" on="1"/>
        <pt x="463" y="578" on="1"/>
        <pt x="436" y="617" on="0"/>
        <pt x="355" y="662" on="0"/>
        <pt x="297" y="666" on="1"/>
        <pt x="297" y="374" on="1"/>
        <pt x="319" y="370" on="1"/>
        <pt x="372" y="360" on="0"/>
        <pt x="442" y="325" on="0"/>
        <pt x="484" y="278" on="0"/>
        <pt x="501" y="221" on="0"/>
        <pt x="501" y="189" on="1"/>
        <pt x="501" y="100" on="0"/>
        <pt x="392" y="5" on="0"/>
        <pt x="298" y="0" on="1"/>
        <pt x="298" y="-82" on="1"/>
      </contour>
      <contour>
        <pt x="465" y="187" on="1"/>
        <pt x="465" y="226" on="0"/>
        <pt x="441" y="278" on="0"/>
        <pt x="400" y="312" on="0"/>
        <pt x="344" y="332" on="0"/>
        <pt x="312" y="338" on="1"/>
        <pt x="297" y="341" on="1"/>
        <pt x="297" y="32" on="1"/>
        <pt x="378" y="37" on="0"/>
        <pt x="465" y="115" on="0"/>
      </contour>
      <contour>
        <pt x="97" y="529" on="1"/>
        <pt x="97" y="493" on="0"/>
        <pt x="121" y="443" on="0"/>
        <pt x="162" y="410" on="0"/>
        <pt x="218" y="390" on="0"/>
        <pt x="250" y="383" on="1"/>
        <pt x="269" y="379" on="1"/>
        <pt x="269" y="666" on="1"/>
        <pt x="188" y="664" on="0"/>
        <pt x="97" y="596" on="0"/>
      </contour>
    </TTGlyph>
    <TTGlyph name="dotaccent" xMin="270" yMin="636" xMax="330" yMax="698">
      <contour>
        <pt x="300" y="636" on="1"/>
        <pt x="284" y="636" on="0"/>
        <pt x="270" y="652" on="0"/>
        <pt x="270" y="663" on="1"/>
        <pt x="270" y="671" on="1"/>
        <pt x="270" y="682" on="0"/>
        <pt x="284" y="698" on="0"/>
        <pt x="300" y="698" on="1"/>
        <pt x="316" y="698" on="0"/>
        <pt x="330" y="682" on="0"/>
        <pt x="330" y="671" on="1"/>
        <pt x="330" y="663" on="1"/>
        <pt x="330" y="652" on="0"/>
        <pt x="316" y="636" on="0"/>
      </contour>
    </TTGlyph>
    <TTGlyph name="dotaccent.case" xMin="269" yMin="812" xMax="331" yMax="878">
      <contour>
        <pt x="300" y="812" on="1"/>
        <pt x="283" y="812" on="0"/>
        <pt x="269" y="829" on="0"/>
        <pt x="269" y="841" on="1"/>
        <pt x="269" y="849" on="1"/>
        <pt x="269" y="861" on="0"/>
        <pt x="283" y="878" on="0"/>
        <pt x="300" y="878" on="1"/>
        <pt x="317" y="878" on="0"/>
        <pt x="331" y="861" on="0"/>
        <pt x="331" y="849" on="1"/>
        <pt x="331" y="841" on="1"/>
        <pt x="331" y="829" on="0"/>
        <pt x="317" y="812" on="0"/>
      </contour>
    </TTGlyph>
    <TTGlyph name="dotlessi" xMin="100" yMin="0" xMax="135" yMax="508">
      <contour>
        <pt x="100" y="0" on="1"/>
        <pt x="100" y="508" on="1"/>
        <pt x="135" y="508" on="1"/>
        <pt x="135" y="0" on="1"/>
      </contour>
    </TTGlyph>
    <TTGlyph name="e" xMin="57" yMin="-12" xMax="480" yMax="520">
      <contour>
        <pt x="275" y="-12" on="1"/>
        <pt x="174" y="-12" on="0"/>
        <pt x="57" y="124" on="0"/>
        <pt x="57" y="254" on="1"/>
        <pt x="57" y="383" on="0"/>
        <pt x="171" y="520" on="0"/>
        <pt x="271" y="520" on="1"/>
        <pt x="318" y="520" on="0"/>
        <pt x="395" y="484" on="0"/>
        <pt x="450" y="418" on="0"/>
        <pt x="480" y="325" on="0"/>
        <pt x="480" y="268" on="1"/>
        <pt x="480" y="252" on="1"/>
        <pt x="94" y="252" on="1"/>
        <pt x="94" y="225" on="1"/>
        <pt x="94" y="178" on="0"/>
        <pt x="118" y="102" on="0"/>
        <pt x="165" y="48" on="0"/>
        <pt x="232" y="19" on="0"/>
        <pt x="275" y="19" on="1"/>
        <pt x="396" y="19" on="0"/>
        <pt x="442" y="135" on="1"/>
        <pt x="469" y="120" on="1"/>
        <pt x="446" y="60" on="0"/>
        <pt x="348" y="-12" on="0"/>
      </contour>
      <contour>
        <pt x="271" y="489" on="1"/>
        <pt x="229" y="489" on="0"/>
        <pt x="164" y="460" on="0"/>
        <pt x="118" y="406" on="0"/>
        <pt x="94" y="330" on="0"/>
        <pt x="94" y="284" on="1"/>
        <pt x="94" y="280" on="1"/>
        <pt x="442" y="280" on="1"/>
        <pt x="442" y="286" on="1"/>
        <pt x="442" y="332" on="0"/>
        <pt x="417" y="407" on="0"/>
        <pt x="372" y="460" on="0"/>
        <pt x="309" y="489" on="0"/>
      </contour>
    </TTGlyph>
    <TTGlyph name="eacute" xMin="57" yMin="-12" xMax="480" yMax="758">
      <component glyphName="e" x="0" y="0" flags="0x204"/>
      <component glyphName="acute" x="-28" y="0" flags="0x4"/>
    </TTGlyph>
    <TTGlyph name="ecircumflex" xMin="57" yMin="-12" xMax="480" yMax="748">
      <component glyphName="e" x="0" y="0" flags="0x204"/>
      <component glyphName="circumflex" x="-28" y="0" flags="0x4"/>
    </TTGlyph>
    <TTGlyph name="edieresis" xMin="57" yMin="-12" xMax="480" yMax="698">
      <component glyphName="e" x="0" y="0" flags="0x204"/>
      <component glyphName="dieresis" x="-28" y="0" flags="0x4"/>
    </TTGlyph>
    <TTGlyph name="egrave" xMin="57" yMin="-12" xMax="480" yMax="758">
      <component glyphName="e" x="0" y="0" flags="0x204"/>
      <component glyphName="grave" x="-28" y="0" flags="0x4"/>
    </TTGlyph>
    <TTGlyph name="eight" xMin="69" yMin="-12" xMax="531" yMax="710">
      <contour>
        <pt x="300" y="-12" on="1"/>
        <pt x="246" y="-12" on="0"/>
        <pt x="160" y="16" on="0"/>
        <pt x="100" y="67" on="0"/>
        <pt x="69" y="139" on="0"/>
        <pt x="69" y="182" on="1"/>
        <pt x="69" y="256" on="0"/>
        <pt x="150" y="350" on="0"/>
        <pt x="220" y="364" on="1"/>
        <pt x="220" y="369" on="1"/>
        <pt x="160" y="383" on="0"/>
        <pt x="92" y="469" on="0"/>
        <pt x="92" y="535" on="1"/>
        <pt x="92" y="616" on="0"/>
        <pt x="203" y="710" on="0"/>
        <pt x="300" y="710" on="1"/>
        <pt x="397" y="710" on="0"/>
        <pt x="508" y="616" on="0"/>
        <pt x="508" y="535" on="1"/>
        <pt x="508" y="469" on="0"/>
        <pt x="440" y="383" on="0"/>
        <pt x="380" y="369" on="1"/>
        <pt x="380" y="364" on="1"/>
        <pt x="450" y="350" on="0"/>
        <pt x="531" y="256" on="0"/>
        <pt x="531" y="182" on="1"/>
        <pt x="531" y="139" on="0"/>
        <pt x="500" y="67" on="0"/>
        <pt x="440" y="16" on="0"/>
        <pt x="354" y="-12" on="0"/>
      </contour>
      <contour>
        <pt x="300" y="21" on="1"/>
        <pt x="389" y="21" on="0"/>
        <pt x="492" y="104" on="0"/>
        <pt x="492" y="173" on="1"/>
        <pt x="492" y="198" on="1"/>
        <pt x="492" y="267" on="0"/>
        <pt x="389" y="350" on="0"/>
        <pt x="300" y="350" on="1"/>
        <pt x="211" y="350" on="0"/>
        <pt x="108" y="267" on="0"/>
        <pt x="108" y="198" on="1"/>
        <pt x="108" y="173" on="1"/>
        <pt x="108" y="104" on="0"/>
        <pt x="211" y="21" on="0"/>
      </contour>
      <contour>
        <pt x="300" y="382" on="1"/>
        <pt x="378" y="382" on="0"/>
        <pt x="469" y="456" on="0"/>
        <pt x="469" y="519" on="1"/>
        <pt x="469" y="541" on="1"/>
        <pt x="469" y="604" on="0"/>
        <pt x="378" y="677" on="0"/>
        <pt x="300" y="677" on="1"/>
        <pt x="222" y="677" on="0"/>
        <pt x="131" y="604" on="0"/>
        <pt x="131" y="541" on="1"/>
        <pt x="131" y="519" on="1"/>
        <pt x="131" y="456" on="0"/>
        <pt x="222" y="382" on="0"/>
      </contour>
    </TTGlyph>
    <TTGlyph name="eight.loclIWR" xMin="81" yMin="-12" xMax="519" yMax="610">
      <contour>
        <pt x="300" y="-12" on="1"/>
        <pt x="197" y="-12" on="0"/>
        <pt x="81" y="80" on="0"/>
        <pt x="81" y="155" on="1"/>
        <pt x="81" y="217" on="0"/>
        <pt x="155" y="301" on="0"/>
        <pt x="224" y="313" on="1"/>
        <pt x="224" y="317" on="1"/>
        <pt x="169" y="329" on="0"/>
        <pt x="103" y="403" on="0"/>
        <pt x="103" y="460" on="1"/>
        <pt x="103" y="529" on="0"/>
        <pt x="208" y="610" on="0"/>
        <pt x="300" y="610" on="1"/>
        <pt x="392" y="610" on="0"/>
        <pt x="497" y="529" on="0"/>
        <pt x="497" y="460" on="1"/>
        <pt x="497" y="403" on="0"/>
        <pt x="431" y="329" on="0"/>
        <pt x="377" y="317" on="1"/>
        <pt x="377" y="313" on="1"/>
        <pt x="446" y="301" on="0"/>
        <pt x="519" y="217" on="0"/>
        <pt x="519" y="155" on="1"/>
        <pt x="519" y="80" on="0"/>
        <pt x="403" y="-12" on="0"/>
      </contour>
      <contour>
        <pt x="300" y="19" on="1"/>
        <pt x="385" y="19" on="0"/>
        <pt x="480" y="88" on="0"/>
        <pt x="480" y="148" on="1"/>
        <pt x="480" y="170" on="1"/>
        <pt x="480" y="230" on="0"/>
        <pt x="385" y="299" on="0"/>
        <pt x="300" y="299" on="1"/>
        <pt x="215" y="299" on="0"/>
        <pt x="120" y="230" on="0"/>
        <pt x="120" y="170" on="1"/>
        <pt x="120" y="148" on="1"/>
        <pt x="120" y="88" on="0"/>
        <pt x="215" y="19" on="0"/>
      </contour>
      <contour>
        <pt x="300" y="330" on="1"/>
        <pt x="374" y="330" on="0"/>
        <pt x="459" y="392" on="0"/>
        <pt x="459" y="445" on="1"/>
        <pt x="459" y="465" on="1"/>
        <pt x="459" y="518" on="0"/>
        <pt x="374" y="580" on="0"/>
        <pt x="300" y="580" on="1"/>
        <pt x="226" y="580" on="0"/>
        <pt x="141" y="518" on="0"/>
        <pt x="141" y="465" on="1"/>
        <pt x="141" y="445" on="1"/>
        <pt x="141" y="392" on="0"/>
        <pt x="226" y="330" on="0"/>
      </contour>
    </TTGlyph>
    <TTGlyph name="ellipsis" xMin="89" yMin="-7" xMax="655" yMax="68">
      <component glyphName="period" x="0" y="0" flags="0x4"/>
      <component glyphName="period" x="248" y="0" flags="0x4"/>
      <component glyphName="period" x="496" y="0" flags="0x4"/>
    </TTGlyph>
    <TTGlyph name="emdash" xMin="36" yMin="289" xMax="744" yMax="321">
      <contour>
        <pt x="36" y="289" on="1"/>
        <pt x="36" y="321" on="1"/>
        <pt x="744" y="321" on="1"/>
        <pt x="744" y="289" on="1"/>
      </contour>
    </TTGlyph>
    <TTGlyph name="endash" xMin="36" yMin="289" xMax="552" yMax="321">
      <contour>
        <pt x="36" y="289" on="1"/>
        <pt x="36" y="321" on="1"/>
        <pt x="552" y="321" on="1"/>
        <pt x="552" y="289" on="1"/>
      </contour>
    </TTGlyph>
    <TTGlyph name="equal" xMin="63" yMin="198" xMax="537" yMax="413">
      <contour>
        <pt x="63" y="382" on="1"/>
        <pt x="63" y="413" on="1"/>
        <pt x="537" y="413" on="1"/>
        <pt x="537" y="382" on="1"/>
      </contour>
      <contour>
        <pt x="63" y="198" on="1"/>
        <pt x="63" y="229" on="1"/>
        <pt x="537" y="229" on="1"/>
        <pt x="537" y="198" on="1"/>
      </contour>
    </TTGlyph>
    <TTGlyph name="eth" xMin="57" yMin="-12" xMax="486" yMax="752">
      <contour>
        <pt x="407" y="732" on="1"/>
        <pt x="306" y="659" on="1"/>
        <pt x="341" y="626" on="0"/>
        <pt x="406" y="540" on="0"/>
        <pt x="456" y="436" on="0"/>
        <pt x="486" y="318" on="0"/>
        <pt x="486" y="253" on="1"/>
        <pt x="486" y="189" on="0"/>
        <pt x="455" y="90" on="0"/>
        <pt x="398" y="23" on="0"/>
        <pt x="319" y="-12" on="0"/>
        <pt x="271" y="-12" on="1"/>
        <pt x="223" y="-12" on="0"/>
        <pt x="144" y="24" on="0"/>
        <pt x="88" y="91" on="0"/>
        <pt x="57" y="187" on="0"/>
        <pt x="57" y="248" on="1"/>
        <pt x="57" y="307" on="0"/>
        <pt x="88" y="401" on="0"/>
        <pt x="144" y="466" on="0"/>
        <pt x="223" y="501" on="0"/>
        <pt x="271" y="501" on="1"/>
        <pt x="322" y="501" on="0"/>
        <pt x="401" y="457" on="0"/>
        <pt x="426" y="416" on="1"/>
        <pt x="429" y="418" on="1"/>
        <pt x="406" y="486" on="0"/>
        <pt x="328" y="597" on="0"/>
        <pt x="282" y="642" on="1"/>
        <pt x="181" y="569" on="1"/>
        <pt x="166" y="589" on="1"/>
        <pt x="263" y="659" on="1"/>
        <pt x="240" y="679" on="0"/>
        <pt x="177" y="723" on="0"/>
        <pt x="145" y="740" on="1"/>
        <pt x="202" y="740" on="1"/>
        <pt x="223" y="727" on="0"/>
        <pt x="264" y="697" on="0"/>
        <pt x="287" y="677" on="1"/>
        <pt x="392" y="752" on="1"/>
      </contour>
      <contour>
        <pt x="271" y="19" on="1"/>
        <pt x="310" y="19" on="0"/>
        <pt x="375" y="47" on="0"/>
        <pt x="422" y="98" on="0"/>
        <pt x="448" y="171" on="0"/>
        <pt x="448" y="217" on="1"/>
        <pt x="448" y="272" on="1"/>
        <pt x="448" y="318" on="0"/>
        <pt x="422" y="391" on="0"/>
        <pt x="375" y="442" on="0"/>
        <pt x="310" y="470" on="0"/>
        <pt x="271" y="470" on="1"/>
        <pt x="232" y="470" on="0"/>
        <pt x="168" y="443" on="0"/>
        <pt x="121" y="392" on="0"/>
        <pt x="95" y="318" on="0"/>
        <pt x="95" y="272" on="1"/>
        <pt x="95" y="217" on="1"/>
        <pt x="95" y="171" on="0"/>
        <pt x="121" y="97" on="0"/>
        <pt x="168" y="46" on="0"/>
        <pt x="232" y="19" on="0"/>
      </contour>
    </TTGlyph>
    <TTGlyph name="exclam" xMin="95" yMin="-7" xMax="165" yMax="698">
      <contour>
        <pt x="120" y="178" on="1"/>
        <pt x="111" y="434" on="1"/>
        <pt x="111" y="698" on="1"/>
        <pt x="149" y="698" on="1"/>
        <pt x="149" y="434" on="1"/>
        <pt x="139" y="178" on="1"/>
      </contour>
      <contour>
        <pt x="130" y="-7" on="1"/>
        <pt x="113" y="-7" on="0"/>
        <pt x="95" y="11" on="0"/>
        <pt x="95" y="26" on="1"/>
        <pt x="95" y="35" on="1"/>
        <pt x="95" y="68" on="0"/>
        <pt x="130" y="68" on="1"/>
        <pt x="165" y="68" on="0"/>
        <pt x="165" y="35" on="1"/>
        <pt x="165" y="26" on="1"/>
        <pt x="165" y="11" on="0"/>
        <pt x="147" y="-7" on="0"/>
      </contour>
    </TTGlyph>
    <TTGlyph name="exclamdown" xMin="95" yMin="-190" xMax="165" yMax="515">
      <contour>
        <pt x="139" y="330" on="1"/>
        <pt x="148" y="74" on="1"/>
        <pt x="148" y="-190" on="1"/>
        <pt x="111" y="-190" on="1"/>
        <pt x="111" y="74" on="1"/>
        <pt x="120" y="330" on="1"/>
      </contour>
      <contour>
        <pt x="130" y="515" on="1"/>
        <pt x="165" y="515" on="0"/>
        <pt x="165" y="482" on="1"/>
        <pt x="165" y="473" on="1"/>
        <pt x="165" y="440" on="0"/>
        <pt x="130" y="440" on="1"/>
        <pt x="95" y="440" on="0"/>
        <pt x="95" y="473" on="1"/>
        <pt x="95" y="482" on="1"/>
        <pt x="95" y="515" on="0"/>
      </contour>
    </TTGlyph>
    <TTGlyph name="f" xMin="30" yMin="0" xMax="270" yMax="740">
      <contour>
        <pt x="121" y="477" on="1"/>
        <pt x="30" y="477" on="1"/>
        <pt x="30" y="508" on="1"/>
        <pt x="121" y="508" on="1"/>
        <pt x="121" y="689" on="1"/>
        <pt x="121" y="740" on="0"/>
        <pt x="170" y="740" on="1"/>
        <pt x="270" y="740" on="1"/>
        <pt x="270" y="709" on="1"/>
        <pt x="156" y="709" on="1"/>
        <pt x="156" y="508" on="1"/>
        <pt x="270" y="508" on="1"/>
        <pt x="270" y="477" on="1"/>
        <pt x="156" y="477" on="1"/>
        <pt x="156" y="0" on="1"/>
        <pt x="121" y="0" on="1"/>
      </contour>
    </TTGlyph>
    <TTGlyph name="fi" xMin="30" yMin="0" xMax="435" yMax="740">
      <contour>
        <pt x="121" y="477" on="1"/>
        <pt x="30" y="477" on="1"/>
        <pt x="30" y="508" on="1"/>
        <pt x="121" y="508" on="1"/>
        <pt x="121" y="689" on="1"/>
        <pt x="121" y="740" on="0"/>
        <pt x="170" y="740" on="1"/>
        <pt x="270" y="740" on="1"/>
        <pt x="270" y="709" on="1"/>
        <pt x="156" y="709" on="1"/>
        <pt x="156" y="508" on="1"/>
        <pt x="423" y="508" on="1"/>
        <pt x="423" y="0" on="1"/>
        <pt x="388" y="0" on="1"/>
        <pt x="388" y="477" on="1"/>
        <pt x="156" y="477" on="1"/>
        <pt x="156" y="0" on="1"/>
        <pt x="121" y="0" on="1"/>
      </contour>
      <contour>
        <pt x="406" y="665" on="1"/>
        <pt x="390" y="665" on="0"/>
        <pt x="376" y="680" on="0"/>
        <pt x="376" y="691" on="1"/>
        <pt x="376" y="700" on="1"/>
        <pt x="376" y="711" on="0"/>
        <pt x="389" y="726" on="0"/>
        <pt x="405" y="726" on="1"/>
        <pt x="421" y="726" on="0"/>
        <pt x="435" y="711" on="0"/>
        <pt x="435" y="700" on="1"/>
        <pt x="435" y="691" on="1"/>
        <pt x="435" y="680" on="0"/>
        <pt x="422" y="665" on="0"/>
      </contour>
    </TTGlyph>
    <TTGlyph name="five" xMin="82" yMin="-12" xMax="511" yMax="698">
      <contour>
        <pt x="485" y="665" on="1"/>
        <pt x="166" y="665" on="1"/>
        <pt x="143" y="347" on="1"/>
        <pt x="147" y="347" on="1"/>
        <pt x="176" y="385" on="0"/>
        <pt x="252" y="418" on="0"/>
        <pt x="308" y="418" on="1"/>
        <pt x="403" y="418" on="0"/>
        <pt x="511" y="307" on="0"/>
        <pt x="511" y="207" on="1"/>
        <pt x="511" y="157" on="0"/>
        <pt x="481" y="76" on="0"/>
        <pt x="425" y="19" on="0"/>
        <pt x="346" y="-12" on="0"/>
        <pt x="297" y="-12" on="1"/>
        <pt x="220" y="-12" on="0"/>
        <pt x="116" y="45" on="0"/>
        <pt x="82" y="98" on="1"/>
        <pt x="111" y="118" on="1"/>
        <pt x="142" y="69" on="0"/>
        <pt x="230" y="21" on="0"/>
        <pt x="297" y="21" on="1"/>
        <pt x="381" y="21" on="0"/>
        <pt x="472" y="116" on="0"/>
        <pt x="472" y="193" on="1"/>
        <pt x="472" y="216" on="1"/>
        <pt x="472" y="293" on="0"/>
        <pt x="385" y="386" on="0"/>
        <pt x="302" y="386" on="1"/>
        <pt x="242" y="386" on="0"/>
        <pt x="173" y="352" on="0"/>
        <pt x="145" y="318" on="1"/>
        <pt x="110" y="323" on="1"/>
        <pt x="136" y="698" on="1"/>
        <pt x="485" y="698" on="1"/>
      </contour>
    </TTGlyph>
    <TTGlyph name="five.loclIWR" xMin="92" yMin="-12" xMax="498" yMax="598">
      <contour>
        <pt x="172" y="567" on="1"/>
        <pt x="151" y="299" on="1"/>
        <pt x="155" y="298" on="1"/>
        <pt x="182" y="333" on="0"/>
        <pt x="254" y="361" on="0"/>
        <pt x="306" y="361" on="1"/>
        <pt x="396" y="361" on="0"/>
        <pt x="498" y="264" on="0"/>
        <pt x="498" y="178" on="1"/>
        <pt x="498" y="90" on="0"/>
        <pt x="388" y="-12" on="0"/>
        <pt x="294" y="-12" on="1"/>
        <pt x="160" y="-12" on="0"/>
        <pt x="92" y="84" on="1"/>
        <pt x="120" y="104" on="1"/>
        <pt x="151" y="59" on="0"/>
        <pt x="237" y="20" on="0"/>
        <pt x="297" y="20" on="1"/>
        <pt x="375" y="20" on="0"/>
        <pt x="459" y="98" on="0"/>
        <pt x="459" y="164" on="1"/>
        <pt x="459" y="186" on="1"/>
        <pt x="459" y="252" on="0"/>
        <pt x="375" y="330" on="0"/>
        <pt x="297" y="330" on="1"/>
        <pt x="270" y="330" on="0"/>
        <pt x="228" y="323" on="0"/>
        <pt x="195" y="310" on="0"/>
        <pt x="166" y="288" on="0"/>
        <pt x="152" y="273" on="1"/>
        <pt x="118" y="277" on="1"/>
        <pt x="143" y="598" on="1"/>
        <pt x="474" y="598" on="1"/>
        <pt x="474" y="567" on="1"/>
      </contour>
    </TTGlyph>
    <TTGlyph name="fl" xMin="30" yMin="0" xMax="512" yMax="740">
      <component glyphName="f" x="0" y="0" flags="0x4"/>
      <component glyphName="l" x="294" y="0" flags="0x4"/>
    </TTGlyph>
    <TTGlyph name="florin" xMin="-10" yMin="-134" xMax="456" yMax="698">
      <contour>
        <pt x="-7" y="-103" on="1"/>
        <pt x="163" y="-103" on="1"/>
        <pt x="204" y="309" on="1"/>
        <pt x="38" y="309" on="1"/>
        <pt x="42" y="340" on="1"/>
        <pt x="207" y="340" on="1"/>
        <pt x="238" y="648" on="1"/>
        <pt x="243" y="698" on="0"/>
        <pt x="293" y="698" on="1"/>
        <pt x="456" y="698" on="1"/>
        <pt x="453" y="667" on="1"/>
        <pt x="275" y="667" on="1"/>
        <pt x="243" y="340" on="1"/>
        <pt x="443" y="340" on="1"/>
        <pt x="440" y="309" on="1"/>
        <pt x="239" y="309" on="1"/>
        <pt x="201" y="-84" on="1"/>
        <pt x="195" y="-134" on="0"/>
        <pt x="145" y="-134" on="1"/>
        <pt x="-10" y="-134" on="1"/>
      </contour>
    </TTGlyph>
    <TTGlyph name="four" xMin="45" yMin="0" xMax="551" yMax="698">
      <contour>
        <pt x="403" y="0" on="1"/>
        <pt x="403" y="155" on="1"/>
        <pt x="45" y="155" on="1"/>
        <pt x="45" y="188" on="1"/>
        <pt x="389" y="698" on="1"/>
        <pt x="437" y="698" on="1"/>
        <pt x="437" y="186" on="1"/>
        <pt x="551" y="186" on="1"/>
        <pt x="551" y="155" on="1"/>
        <pt x="437" y="155" on="1"/>
        <pt x="437" y="0" on="1"/>
      </contour>
      <contour>
        <pt x="80" y="186" on="1"/>
        <pt x="403" y="186" on="1"/>
        <pt x="403" y="661" on="1"/>
        <pt x="401" y="661" on="1"/>
      </contour>
    </TTGlyph>
    <TTGlyph name="four.loclIWR" xMin="59" yMin="0" xMax="536" yMax="598">
      <contour>
        <pt x="395" y="135" on="1"/>
        <pt x="59" y="135" on="1"/>
        <pt x="59" y="167" on="1"/>
        <pt x="382" y="598" on="1"/>
        <pt x="429" y="598" on="1"/>
        <pt x="429" y="164" on="1"/>
        <pt x="536" y="164" on="1"/>
        <pt x="536" y="135" on="1"/>
        <pt x="429" y="135" on="1"/>
        <pt x="429" y="0" on="1"/>
        <pt x="395" y="0" on="1"/>
      </contour>
      <contour>
        <pt x="395" y="164" on="1"/>
        <pt x="395" y="562" on="1"/>
        <pt x="393" y="562" on="1"/>
        <pt x="94" y="164" on="1"/>
      </contour>
    </TTGlyph>
    <TTGlyph name="fraction" xMin="-170" yMin="0" xMax="319" yMax="698">
      <contour>
        <pt x="-170" y="0" on="1"/>
        <pt x="286" y="698" on="1"/>
        <pt x="319" y="698" on="1"/>
        <pt x="-138" y="0" on="1"/>
      </contour>
    </TTGlyph>
    <TTGlyph name="g" xMin="48" yMin="-212" xMax="506" yMax="567">
      <contour>
        <pt x="506" y="-63" on="1"/>
        <pt x="506" y="-140" on="0"/>
        <pt x="381" y="-212" on="0"/>
        <pt x="264" y="-212" on="1"/>
        <pt x="150" y="-212" on="0"/>
        <pt x="48" y="-142" on="0"/>
        <pt x="48" y="-83" on="1"/>
        <pt x="48" y="-38" on="0"/>
        <pt x="98" y="19" on="0"/>
        <pt x="143" y="33" on="1"/>
        <pt x="143" y="37" on="1"/>
        <pt x="92" y="54" on="0"/>
        <pt x="92" y="106" on="1"/>
        <pt x="92" y="141" on="0"/>
        <pt x="143" y="183" on="0"/>
        <pt x="178" y="193" on="1"/>
        <pt x="178" y="196" on="1"/>
        <pt x="134" y="216" on="0"/>
        <pt x="85" y="292" on="0"/>
        <pt x="85" y="349" on="1"/>
        <pt x="85" y="388" on="0"/>
        <pt x="110" y="451" on="0"/>
        <pt x="156" y="496" on="0"/>
        <pt x="222" y="520" on="0"/>
        <pt x="263" y="520" on="1"/>
        <pt x="329" y="520" on="0"/>
        <pt x="371" y="490" on="1"/>
        <pt x="371" y="530" on="1"/>
        <pt x="371" y="567" on="0"/>
        <pt x="406" y="567" on="1"/>
        <pt x="503" y="567" on="1"/>
        <pt x="503" y="536" on="1"/>
        <pt x="395" y="536" on="1"/>
        <pt x="395" y="472" on="1"/>
        <pt x="418" y="449" on="0"/>
        <pt x="443" y="387" on="0"/>
        <pt x="443" y="349" on="1"/>
        <pt x="443" y="311" on="0"/>
        <pt x="417" y="248" on="0"/>
        <pt x="370" y="203" on="0"/>
        <pt x="304" y="178" on="0"/>
        <pt x="264" y="178" on="1"/>
        <pt x="249" y="178" on="0"/>
        <pt x="223" y="182" on="0"/>
        <pt x="209" y="185" on="1"/>
        <pt x="168" y="174" on="0"/>
        <pt x="124" y="138" on="0"/>
        <pt x="124" y="111" on="1"/>
        <pt x="124" y="90" on="0"/>
        <pt x="160" y="59" on="0"/>
        <pt x="209" y="59" on="1"/>
        <pt x="338" y="59" on="1"/>
        <pt x="427" y="59" on="0"/>
        <pt x="506" y="-6" on="0"/>
      </contour>
      <contour>
        <pt x="471" y="-65" on="1"/>
        <pt x="471" y="-22" on="0"/>
        <pt x="412" y="26" on="0"/>
        <pt x="336" y="26" on="1"/>
        <pt x="177" y="26" on="1"/>
        <pt x="135" y="15" on="0"/>
        <pt x="83" y="-36" on="0"/>
        <pt x="83" y="-79" on="1"/>
        <pt x="83" y="-124" on="0"/>
        <pt x="163" y="-181" on="0"/>
        <pt x="236" y="-181" on="1"/>
        <pt x="291" y="-181" on="1"/>
        <pt x="331" y="-181" on="0"/>
        <pt x="397" y="-167" on="0"/>
        <pt x="445" y="-139" on="0"/>
        <pt x="471" y="-95" on="0"/>
      </contour>
      <contour>
        <pt x="264" y="209" on="1"/>
        <pt x="330" y="209" on="0"/>
        <pt x="404" y="277" on="0"/>
        <pt x="404" y="331" on="1"/>
        <pt x="404" y="367" on="1"/>
        <pt x="404" y="421" on="0"/>
        <pt x="330" y="489" on="0"/>
        <pt x="264" y="489" on="1"/>
        <pt x="197" y="489" on="0"/>
        <pt x="124" y="421" on="0"/>
        <pt x="124" y="367" on="1"/>
        <pt x="124" y="331" on="1"/>
        <pt x="124" y="277" on="0"/>
        <pt x="198" y="209" on="0"/>
      </contour>
    </TTGlyph>
    <TTGlyph name="g.alt01" xMin="57" yMin="-212" xMax="467" yMax="520">
      <contour>
        <pt x="467" y="-4" on="1"/>
        <pt x="467" y="-104" on="0"/>
        <pt x="364" y="-212" on="0"/>
        <pt x="263" y="-212" on="1"/>
        <pt x="200" y="-212" on="0"/>
        <pt x="116" y="-177" on="0"/>
        <pt x="86" y="-145" on="1"/>
        <pt x="107" y="-120" on="1"/>
        <pt x="135" y="-149" on="0"/>
        <pt x="205" y="-181" on="0"/>
        <pt x="262" y="-181" on="1"/>
        <pt x="346" y="-181" on="0"/>
        <pt x="432" y="-94" on="0"/>
        <pt x="432" y="-6" on="1"/>
        <pt x="432" y="79" on="1"/>
        <pt x="429" y="79" on="1"/>
        <pt x="412" y="43" on="0"/>
        <pt x="332" y="-12" on="0"/>
        <pt x="268" y="-12" on="1"/>
        <pt x="168" y="-12" on="0"/>
        <pt x="57" y="123" on="0"/>
        <pt x="57" y="254" on="1"/>
        <pt x="57" y="385" on="0"/>
        <pt x="168" y="520" on="0"/>
        <pt x="268" y="520" on="1"/>
        <pt x="332" y="520" on="0"/>
        <pt x="412" y="466" on="0"/>
        <pt x="429" y="429" on="1"/>
        <pt x="432" y="429" on="1"/>
        <pt x="432" y="508" on="1"/>
        <pt x="467" y="508" on="1"/>
      </contour>
      <contour>
        <pt x="274" y="20" on="1"/>
        <pt x="305" y="20" on="0"/>
        <pt x="363" y="38" on="0"/>
        <pt x="406" y="72" on="0"/>
        <pt x="432" y="119" on="0"/>
        <pt x="432" y="148" on="1"/>
        <pt x="432" y="362" on="1"/>
        <pt x="432" y="390" on="0"/>
        <pt x="406" y="437" on="0"/>
        <pt x="363" y="470" on="0"/>
        <pt x="305" y="489" on="0"/>
        <pt x="274" y="489" on="1"/>
        <pt x="188" y="489" on="0"/>
        <pt x="95" y="378" on="0"/>
        <pt x="95" y="283" on="1"/>
        <pt x="95" y="225" on="1"/>
        <pt x="95" y="131" on="0"/>
        <pt x="188" y="20" on="0"/>
      </contour>
    </TTGlyph>
    <TTGlyph name="g.alt02" xMin="48" yMin="-212" xMax="506" yMax="520">
      <contour>
        <pt x="506" y="-63" on="1"/>
        <pt x="506" y="-140" on="0"/>
        <pt x="381" y="-212" on="0"/>
        <pt x="264" y="-212" on="1"/>
        <pt x="150" y="-212" on="0"/>
        <pt x="48" y="-142" on="0"/>
        <pt x="48" y="-83" on="1"/>
        <pt x="48" y="-38" on="0"/>
        <pt x="98" y="19" on="0"/>
        <pt x="143" y="33" on="1"/>
        <pt x="143" y="37" on="1"/>
        <pt x="92" y="54" on="0"/>
        <pt x="92" y="106" on="1"/>
        <pt x="92" y="141" on="0"/>
        <pt x="143" y="183" on="0"/>
        <pt x="178" y="193" on="1"/>
        <pt x="178" y="196" on="1"/>
        <pt x="134" y="216" on="0"/>
        <pt x="85" y="292" on="0"/>
        <pt x="85" y="349" on="1"/>
        <pt x="85" y="388" on="0"/>
        <pt x="110" y="451" on="0"/>
        <pt x="156" y="496" on="0"/>
        <pt x="222" y="520" on="0"/>
        <pt x="263" y="520" on="1"/>
        <pt x="304" y="520" on="0"/>
        <pt x="337" y="508" on="1"/>
        <pt x="502" y="508" on="1"/>
        <pt x="502" y="479" on="1"/>
        <pt x="383" y="479" on="1"/>
        <pt x="416" y="450" on="0"/>
        <pt x="443" y="386" on="0"/>
        <pt x="443" y="349" on="1"/>
        <pt x="443" y="311" on="0"/>
        <pt x="417" y="248" on="0"/>
        <pt x="370" y="203" on="0"/>
        <pt x="304" y="178" on="0"/>
        <pt x="264" y="178" on="1"/>
        <pt x="249" y="178" on="0"/>
        <pt x="223" y="182" on="0"/>
        <pt x="209" y="185" on="1"/>
        <pt x="168" y="174" on="0"/>
        <pt x="124" y="138" on="0"/>
        <pt x="124" y="111" on="1"/>
        <pt x="124" y="90" on="0"/>
        <pt x="160" y="59" on="0"/>
        <pt x="209" y="59" on="1"/>
        <pt x="338" y="59" on="1"/>
        <pt x="427" y="59" on="0"/>
        <pt x="506" y="-6" on="0"/>
      </contour>
      <contour>
        <pt x="264" y="209" on="1"/>
        <pt x="330" y="209" on="0"/>
        <pt x="404" y="277" on="0"/>
        <pt x="404" y="331" on="1"/>
        <pt x="404" y="367" on="1"/>
        <pt x="404" y="421" on="0"/>
        <pt x="330" y="489" on="0"/>
        <pt x="264" y="489" on="1"/>
        <pt x="197" y="489" on="0"/>
        <pt x="124" y="421" on="0"/>
        <pt x="124" y="367" on="1"/>
        <pt x="124" y="331" on="1"/>
        <pt x="124" y="277" on="0"/>
        <pt x="198" y="209" on="0"/>
      </contour>
      <contour>
        <pt x="471" y="-65" on="1"/>
        <pt x="471" y="-22" on="0"/>
        <pt x="412" y="26" on="0"/>
        <pt x="336" y="26" on="1"/>
        <pt x="177" y="26" on="1"/>
        <pt x="135" y="15" on="0"/>
        <pt x="83" y="-36" on="0"/>
        <pt x="83" y="-79" on="1"/>
        <pt x="83" y="-124" on="0"/>
        <pt x="163" y="-181" on="0"/>
        <pt x="236" y="-181" on="1"/>
        <pt x="291" y="-181" on="1"/>
        <pt x="331" y="-181" on="0"/>
        <pt x="397" y="-167" on="0"/>
        <pt x="445" y="-139" on="0"/>
        <pt x="471" y="-95" on="0"/>
      </contour>
    </TTGlyph>
    <TTGlyph name="germandbls" xMin="37" yMin="-12" xMax="600" yMax="752">
      <contour>
        <pt x="600" y="131" on="1"/>
        <pt x="600" y="63" on="0"/>
        <pt x="511" y="-12" on="0"/>
        <pt x="434" y="-12" on="1"/>
        <pt x="371" y="-12" on="0"/>
        <pt x="280" y="31" on="0"/>
        <pt x="245" y="79" on="1"/>
        <pt x="272" y="99" on="1"/>
        <pt x="305" y="54" on="0"/>
        <pt x="381" y="19" on="0"/>
        <pt x="435" y="19" on="1"/>
        <pt x="498" y="19" on="0"/>
        <pt x="566" y="75" on="0"/>
        <pt x="566" y="128" on="1"/>
        <pt x="566" y="177" on="0"/>
        <pt x="517" y="224" on="0"/>
        <pt x="467" y="236" on="1"/>
        <pt x="426" y="246" on="1"/>
        <pt x="397" y="253" on="0"/>
        <pt x="349" y="272" on="0"/>
        <pt x="315" y="302" on="0"/>
        <pt x="297" y="345" on="0"/>
        <pt x="297" y="377" on="1"/>
        <pt x="297" y="411" on="0"/>
        <pt x="326" y="460" on="0"/>
        <pt x="378" y="493" on="0"/>
        <pt x="451" y="510" on="0"/>
        <pt x="495" y="510" on="1"/>
        <pt x="495" y="522" on="1"/>
        <pt x="495" y="618" on="0"/>
        <pt x="410" y="721" on="0"/>
        <pt x="329" y="721" on="1"/>
        <pt x="248" y="721" on="0"/>
        <pt x="163" y="618" on="0"/>
        <pt x="163" y="522" on="1"/>
        <pt x="163" y="0" on="1"/>
        <pt x="128" y="0" on="1"/>
        <pt x="128" y="477" on="1"/>
        <pt x="37" y="477" on="1"/>
        <pt x="37" y="508" on="1"/>
        <pt x="128" y="508" on="1"/>
        <pt x="128" y="521" on="1"/>
        <pt x="128" y="573" on="0"/>
        <pt x="155" y="659" on="0"/>
        <pt x="206" y="719" on="0"/>
        <pt x="281" y="752" on="0"/>
        <pt x="329" y="752" on="1"/>
        <pt x="377" y="752" on="0"/>
        <pt x="452" y="719" on="0"/>
        <pt x="503" y="659" on="0"/>
        <pt x="530" y="573" on="0"/>
        <pt x="530" y="521" on="1"/>
        <pt x="530" y="481" on="1"/>
        <pt x="505" y="481" on="1"/>
        <pt x="467" y="481" on="0"/>
        <pt x="403" y="469" on="0"/>
        <pt x="357" y="444" on="0"/>
        <pt x="331" y="405" on="0"/>
        <pt x="331" y="378" on="1"/>
        <pt x="331" y="355" on="0"/>
        <pt x="343" y="322" on="0"/>
        <pt x="368" y="300" on="0"/>
        <pt x="406" y="284" on="0"/>
        <pt x="431" y="278" on="1"/>
        <pt x="472" y="268" on="1"/>
        <pt x="532" y="253" on="0"/>
        <pt x="600" y="194" on="0"/>
      </contour>
    </TTGlyph>
    <TTGlyph name="germandbls.alt01" xMin="100" yMin="-200" xMax="517" yMax="740">
      <contour>
        <pt x="100" y="0" on="1"/>
        <pt x="100" y="690" on="1"/>
        <pt x="100" y="740" on="0"/>
        <pt x="149" y="740" on="1"/>
        <pt x="312" y="740" on="1"/>
        <pt x="312" y="709" on="1"/>
        <pt x="135" y="709" on="1"/>
        <pt x="135" y="508" on="1"/>
        <pt x="489" y="508" on="1"/>
        <pt x="489" y="478" on="1"/>
        <pt x="277" y="202" on="1"/>
        <pt x="398" y="200" on="0"/>
        <pt x="517" y="106" on="0"/>
        <pt x="517" y="6" on="1"/>
        <pt x="517" y="-103" on="0"/>
        <pt x="389" y="-200" on="0"/>
        <pt x="268" y="-200" on="1"/>
        <pt x="228" y="-200" on="1"/>
        <pt x="228" y="-169" on="1"/>
        <pt x="270" y="-169" on="1"/>
        <pt x="369" y="-169" on="0"/>
        <pt x="479" y="-96" on="0"/>
        <pt x="479" y="-10" on="1"/>
        <pt x="479" y="18" on="1"/>
        <pt x="479" y="97" on="0"/>
        <pt x="374" y="172" on="0"/>
        <pt x="266" y="172" on="1"/>
        <pt x="243" y="172" on="1"/>
        <pt x="243" y="204" on="1"/>
        <pt x="451" y="477" on="1"/>
        <pt x="135" y="477" on="1"/>
        <pt x="135" y="0" on="1"/>
      </contour>
    </TTGlyph>
    <TTGlyph name="grave" xMin="198" yMin="587" xMax="335" yMax="758">
      <contour>
        <pt x="198" y="740" on="1"/>
        <pt x="230" y="758" on="1"/>
        <pt x="335" y="600" on="1"/>
        <pt x="311" y="587" on="1"/>
      </contour>
    </TTGlyph>
    <TTGlyph name="grave.case" xMin="198" yMin="764" xMax="335" yMax="935">
      <contour>
        <pt x="198" y="918" on="1"/>
        <pt x="230" y="935" on="1"/>
        <pt x="335" y="777" on="1"/>
        <pt x="311" y="764" on="1"/>
      </contour>
    </TTGlyph>
    <TTGlyph name="greater" xMin="86" yMin="26" xMax="514" yMax="571">
      <contour>
        <pt x="86" y="64" on="1"/>
        <pt x="478" y="297" on="1"/>
        <pt x="478" y="300" on="1"/>
        <pt x="86" y="533" on="1"/>
        <pt x="86" y="571" on="1"/>
        <pt x="514" y="315" on="1"/>
        <pt x="514" y="282" on="1"/>
        <pt x="86" y="26" on="1"/>
      </contour>
    </TTGlyph>
    <TTGlyph name="greaterequal" xMin="86" yMin="0" xMax="514" yMax="592">
      <contour>
        <pt x="86" y="139" on="1"/>
        <pt x="479" y="346" on="1"/>
        <pt x="479" y="349" on="1"/>
        <pt x="86" y="556" on="1"/>
        <pt x="86" y="592" on="1"/>
        <pt x="514" y="365" on="1"/>
        <pt x="514" y="330" on="1"/>
        <pt x="86" y="103" on="1"/>
      </contour>
      <contour>
        <pt x="86" y="31" on="1"/>
        <pt x="514" y="31" on="1"/>
        <pt x="514" y="0" on="1"/>
        <pt x="86" y="0" on="1"/>
      </contour>
    </TTGlyph>
    <TTGlyph name="guillemotleft" xMin="34" yMin="100" xMax="430" yMax="483">
      <component glyphName="guilsinglleft" x="0" y="0" flags="0x4"/>
      <component glyphName="guilsinglleft" x="186" y="0" flags="0x4"/>
    </TTGlyph>
    <TTGlyph name="guillemotright" xMin="51" yMin="100" xMax="447" yMax="483">
      <component glyphName="guilsinglright" x="0" y="0" flags="0x4"/>
      <component glyphName="guilsinglright" x="186" y="0" flags="0x4"/>
    </TTGlyph>
    <TTGlyph name="guilsinglleft" xMin="34" yMin="100" xMax="244" yMax="483">
      <contour>
        <pt x="231" y="100" on="1"/>
        <pt x="34" y="275" on="1"/>
        <pt x="34" y="308" on="1"/>
        <pt x="231" y="483" on="1"/>
        <pt x="244" y="459" on="1"/>
        <pt x="71" y="292" on="1"/>
        <pt x="244" y="124" on="1"/>
      </contour>
    </TTGlyph>
    <TTGlyph name="guilsinglright" xMin="51" yMin="100" xMax="261" yMax="483">
      <contour>
        <pt x="51" y="124" on="1"/>
        <pt x="224" y="292" on="1"/>
        <pt x="51" y="459" on="1"/>
        <pt x="64" y="483" on="1"/>
        <pt x="261" y="308" on="1"/>
        <pt x="261" y="275" on="1"/>
        <pt x="64" y="100" on="1"/>
      </contour>
    </TTGlyph>
    <TTGlyph name="h" xMin="100" yMin="0" xMax="467" yMax="740">
      <contour>
        <pt x="100" y="740" on="1"/>
        <pt x="135" y="740" on="1"/>
        <pt x="135" y="430" on="1"/>
        <pt x="138" y="430" on="1"/>
        <pt x="153" y="467" on="0"/>
        <pt x="228" y="520" on="0"/>
        <pt x="294" y="520" on="1"/>
        <pt x="378" y="520" on="0"/>
        <pt x="467" y="421" on="0"/>
        <pt x="467" y="326" on="1"/>
        <pt x="467" y="0" on="1"/>
        <pt x="432" y="0" on="1"/>
        <pt x="432" y="320" on="1"/>
        <pt x="432" y="408" on="0"/>
        <pt x="357" y="489" on="0"/>
        <pt x="286" y="489" on="1"/>
        <pt x="257" y="489" on="0"/>
        <pt x="202" y="473" on="0"/>
        <pt x="160" y="441" on="0"/>
        <pt x="135" y="393" on="0"/>
        <pt x="135" y="361" on="1"/>
        <pt x="135" y="0" on="1"/>
        <pt x="100" y="0" on="1"/>
      </contour>
    </TTGlyph>
    <TTGlyph name="hungarumlaut" xMin="199" yMin="587" xMax="495" yMax="757">
      <contour>
        <pt x="222" y="587" on="1"/>
        <pt x="199" y="600" on="1"/>
        <pt x="304" y="757" on="1"/>
        <pt x="335" y="740" on="1"/>
      </contour>
      <contour>
        <pt x="382" y="587" on="1"/>
        <pt x="359" y="600" on="1"/>
        <pt x="464" y="757" on="1"/>
        <pt x="495" y="740" on="1"/>
      </contour>
    </TTGlyph>
    <TTGlyph name="hyphen" xMin="80" yMin="287" xMax="316" yMax="323">
      <contour>
        <pt x="80" y="287" on="1"/>
        <pt x="80" y="323" on="1"/>
        <pt x="316" y="323" on="1"/>
        <pt x="316" y="287" on="1"/>
      </contour>
    </TTGlyph>
    <TTGlyph name="i" xMin="88" yMin="0" xMax="147" yMax="726">
      <contour>
        <pt x="118" y="665" on="1"/>
        <pt x="102" y="665" on="0"/>
        <pt x="88" y="680" on="0"/>
        <pt x="88" y="691" on="1"/>
        <pt x="88" y="700" on="1"/>
        <pt x="88" y="711" on="0"/>
        <pt x="101" y="726" on="0"/>
        <pt x="117" y="726" on="1"/>
        <pt x="133" y="726" on="0"/>
        <pt x="147" y="711" on="0"/>
        <pt x="147" y="700" on="1"/>
        <pt x="147" y="691" on="1"/>
        <pt x="147" y="680" on="0"/>
        <pt x="134" y="665" on="0"/>
      </contour>
      <contour>
        <pt x="100" y="508" on="1"/>
        <pt x="135" y="508" on="1"/>
        <pt x="135" y="0" on="1"/>
        <pt x="100" y="0" on="1"/>
      </contour>
    </TTGlyph>
    <TTGlyph name="iacute" xMin="82" yMin="0" xMax="219" yMax="758">
      <component glyphName="dotlessi" x="0" y="0" flags="0x204"/>
      <component glyphName="acute" x="-182" y="0" flags="0x4"/>
    </TTGlyph>
    <TTGlyph name="icircumflex" xMin="-27" yMin="0" xMax="263" yMax="748">
      <component glyphName="dotlessi" x="0" y="0" flags="0x204"/>
      <component glyphName="circumflex" x="-182" y="0" flags="0x4"/>
    </TTGlyph>
    <TTGlyph name="idieresis" xMin="-3" yMin="0" xMax="239" yMax="698">
      <component glyphName="dotlessi" x="0" y="0" flags="0x204"/>
      <component glyphName="dieresis" x="-182" y="0" flags="0x4"/>
    </TTGlyph>
    <TTGlyph name="igrave" xMin="16" yMin="0" xMax="153" yMax="758">
      <component glyphName="dotlessi" x="0" y="0" flags="0x204"/>
      <component glyphName="grave" x="-182" y="0" flags="0x4"/>
    </TTGlyph>
    <TTGlyph name="ij" xMin="88" yMin="-200" xMax="383" yMax="726">
      <component glyphName="i" x="0" y="0" flags="0x4"/>
      <component glyphName="j" x="236" y="0" flags="0x4"/>
    </TTGlyph>
    <TTGlyph name="infinity" xMin="25" yMin="123" xMax="709" yMax="487">
      <contour>
        <pt x="192" y="123" on="1"/>
        <pt x="111" y="123" on="0"/>
        <pt x="25" y="220" on="0"/>
        <pt x="25" y="305" on="1"/>
        <pt x="25" y="390" on="0"/>
        <pt x="111" y="487" on="0"/>
        <pt x="192" y="487" on="1"/>
        <pt x="257" y="487" on="0"/>
        <pt x="353" y="406" on="0"/>
        <pt x="372" y="334" on="1"/>
        <pt x="375" y="334" on="1"/>
        <pt x="392" y="407" on="0"/>
        <pt x="484" y="487" on="0"/>
        <pt x="542" y="487" on="1"/>
        <pt x="623" y="487" on="0"/>
        <pt x="709" y="390" on="0"/>
        <pt x="709" y="305" on="1"/>
        <pt x="709" y="220" on="0"/>
        <pt x="623" y="123" on="0"/>
        <pt x="542" y="123" on="1"/>
        <pt x="476" y="123" on="0"/>
        <pt x="381" y="204" on="0"/>
        <pt x="362" y="276" on="1"/>
        <pt x="359" y="276" on="1"/>
        <pt x="342" y="203" on="0"/>
        <pt x="250" y="123" on="0"/>
      </contour>
      <contour>
        <pt x="190" y="154" on="1"/>
        <pt x="242" y="154" on="0"/>
        <pt x="327" y="229" on="0"/>
        <pt x="349" y="305" on="1"/>
        <pt x="327" y="386" on="0"/>
        <pt x="242" y="456" on="0"/>
        <pt x="190" y="456" on="1"/>
        <pt x="133" y="456" on="0"/>
        <pt x="61" y="388" on="0"/>
        <pt x="61" y="325" on="1"/>
        <pt x="61" y="285" on="1"/>
        <pt x="61" y="222" on="0"/>
        <pt x="133" y="154" on="0"/>
      </contour>
      <contour>
        <pt x="544" y="154" on="1"/>
        <pt x="600" y="154" on="0"/>
        <pt x="673" y="222" on="0"/>
        <pt x="673" y="285" on="1"/>
        <pt x="673" y="325" on="1"/>
        <pt x="673" y="388" on="0"/>
        <pt x="600" y="456" on="0"/>
        <pt x="544" y="456" on="1"/>
        <pt x="492" y="456" on="0"/>
        <pt x="406" y="381" on="0"/>
        <pt x="385" y="305" on="1"/>
        <pt x="406" y="225" on="0"/>
        <pt x="492" y="154" on="0"/>
      </contour>
    </TTGlyph>
    <TTGlyph name="integral" xMin="50" yMin="-200" xMax="321" yMax="740">
      <contour>
        <pt x="50" y="-169" on="1"/>
        <pt x="168" y="-169" on="1"/>
        <pt x="168" y="690" on="1"/>
        <pt x="168" y="740" on="0"/>
        <pt x="217" y="740" on="1"/>
        <pt x="321" y="740" on="1"/>
        <pt x="321" y="709" on="1"/>
        <pt x="203" y="709" on="1"/>
        <pt x="203" y="-150" on="1"/>
        <pt x="203" y="-200" on="0"/>
        <pt x="154" y="-200" on="1"/>
        <pt x="50" y="-200" on="1"/>
      </contour>
    </TTGlyph>
    <TTGlyph name="j" xMin="15" yMin="-200" xMax="147" yMax="726">
      <contour>
        <pt x="100" y="508" on="1"/>
        <pt x="135" y="508" on="1"/>
        <pt x="135" y="-149" on="1"/>
        <pt x="135" y="-200" on="0"/>
        <pt x="87" y="-200" on="1"/>
        <pt x="15" y="-200" on="1"/>
        <pt x="15" y="-169" on="1"/>
        <pt x="100" y="-169" on="1"/>
      </contour>
      <contour>
        <pt x="118" y="665" on="1"/>
        <pt x="102" y="665" on="0"/>
        <pt x="88" y="680" on="0"/>
        <pt x="88" y="691" on="1"/>
        <pt x="88" y="700" on="1"/>
        <pt x="88" y="711" on="0"/>
        <pt x="101" y="726" on="0"/>
        <pt x="117" y="726" on="1"/>
        <pt x="133" y="726" on="0"/>
        <pt x="147" y="711" on="0"/>
        <pt x="147" y="700" on="1"/>
        <pt x="147" y="691" on="1"/>
        <pt x="147" y="680" on="0"/>
        <pt x="134" y="665" on="0"/>
      </contour>
    </TTGlyph>
    <TTGlyph name="jacute" xMin="15" yMin="-200" xMax="219" yMax="758">
      <component glyphName="uni0237" x="0" y="0" flags="0x204"/>
      <component glyphName="acute" x="-182" y="0" flags="0x4"/>
    </TTGlyph>
    <TTGlyph name="jcircumflex" xMin="-27" yMin="-200" xMax="263" yMax="748">
      <component glyphName="uni0237" x="0" y="0" flags="0x204"/>
      <component glyphName="circumflex" x="-182" y="0" flags="0x4"/>
    </TTGlyph>
    <TTGlyph name="k" xMin="100" yMin="0" xMax="480" yMax="740">
      <contour>
        <pt x="100" y="740" on="1"/>
        <pt x="135" y="740" on="1"/>
        <pt x="135" y="232" on="1"/>
        <pt x="138" y="232" on="1"/>
        <pt x="218" y="313" on="1"/>
        <pt x="411" y="508" on="1"/>
        <pt x="455" y="508" on="1"/>
        <pt x="246" y="297" on="1"/>
        <pt x="480" y="0" on="1"/>
        <pt x="437" y="0" on="1"/>
        <pt x="221" y="274" on="1"/>
        <pt x="135" y="189" on="1"/>
        <pt x="135" y="0" on="1"/>
        <pt x="100" y="0" on="1"/>
      </contour>
    </TTGlyph>
    <TTGlyph name="l" xMin="100" yMin="0" xMax="218" yMax="740">
      <contour>
        <pt x="143" y="0" on="1"/>
        <pt x="100" y="0" on="0"/>
        <pt x="100" y="42" on="1"/>
        <pt x="100" y="740" on="1"/>
        <pt x="135" y="740" on="1"/>
        <pt x="135" y="31" on="1"/>
        <pt x="218" y="31" on="1"/>
        <pt x="218" y="0" on="1"/>
      </contour>
    </TTGlyph>
    <TTGlyph name="ldot" xMin="100" yMin="0" xMax="294" yMax="740">
      <component glyphName="l" x="0" y="0" flags="0x4"/>
      <component glyphName="dotaccent" x="-36" y="-392" flags="0x4"/>
    </TTGlyph>
    <TTGlyph name="less" xMin="86" yMin="26" xMax="514" yMax="571">
      <contour>
        <pt x="86" y="282" on="1"/>
        <pt x="86" y="315" on="1"/>
        <pt x="514" y="571" on="1"/>
        <pt x="514" y="533" on="1"/>
        <pt x="122" y="300" on="1"/>
        <pt x="122" y="297" on="1"/>
        <pt x="514" y="64" on="1"/>
        <pt x="514" y="26" on="1"/>
      </contour>
    </TTGlyph>
    <TTGlyph name="lessequal" xMin="86" yMin="0" xMax="514" yMax="592">
      <contour>
        <pt x="86" y="0" on="1"/>
        <pt x="86" y="31" on="1"/>
        <pt x="514" y="31" on="1"/>
        <pt x="514" y="0" on="1"/>
      </contour>
      <contour>
        <pt x="514" y="556" on="1"/>
        <pt x="121" y="349" on="1"/>
        <pt x="121" y="346" on="1"/>
        <pt x="514" y="139" on="1"/>
        <pt x="514" y="103" on="1"/>
        <pt x="86" y="330" on="1"/>
        <pt x="86" y="365" on="1"/>
        <pt x="514" y="592" on="1"/>
      </contour>
    </TTGlyph>
    <TTGlyph name="logicalnot" xMin="63" yMin="98" xMax="525" yMax="321">
      <contour>
        <pt x="492" y="98" on="1"/>
        <pt x="492" y="290" on="1"/>
        <pt x="63" y="290" on="1"/>
        <pt x="63" y="321" on="1"/>
        <pt x="525" y="321" on="1"/>
        <pt x="525" y="98" on="1"/>
      </contour>
    </TTGlyph>
    <TTGlyph name="lozenge" xMin="55" yMin="0" xMax="545" yMax="698">
      <contour>
        <pt x="282" y="0" on="1"/>
        <pt x="55" y="349" on="1"/>
        <pt x="282" y="698" on="1"/>
        <pt x="318" y="698" on="1"/>
        <pt x="545" y="349" on="1"/>
        <pt x="318" y="0" on="1"/>
      </contour>
      <contour>
        <pt x="302" y="33" on="1"/>
        <pt x="507" y="349" on="1"/>
        <pt x="302" y="665" on="1"/>
        <pt x="298" y="665" on="1"/>
        <pt x="93" y="349" on="1"/>
        <pt x="298" y="33" on="1"/>
      </contour>
    </TTGlyph>
    <TTGlyph name="lslash" xMin="30" yMin="0" xMax="233" yMax="740">
      <contour>
        <pt x="221" y="0" on="1"/>
        <pt x="146" y="0" on="1"/>
        <pt x="103" y="0" on="0"/>
        <pt x="103" y="42" on="1"/>
        <pt x="103" y="345" on="1"/>
        <pt x="30" y="321" on="1"/>
        <pt x="30" y="352" on="1"/>
        <pt x="103" y="376" on="1"/>
        <pt x="103" y="740" on="1"/>
        <pt x="138" y="740" on="1"/>
        <pt x="138" y="388" on="1"/>
        <pt x="233" y="419" on="1"/>
        <pt x="233" y="388" on="1"/>
        <pt x="138" y="357" on="1"/>
        <pt x="138" y="31" on="1"/>
        <pt x="221" y="31" on="1"/>
      </contour>
    </TTGlyph>
    <TTGlyph name="m" xMin="100" yMin="0" xMax="786" yMax="520">
      <contour>
        <pt x="100" y="0" on="1"/>
        <pt x="100" y="508" on="1"/>
        <pt x="135" y="508" on="1"/>
        <pt x="135" y="430" on="1"/>
        <pt x="138" y="430" on="1"/>
        <pt x="145" y="448" on="0"/>
        <pt x="170" y="480" on="0"/>
        <pt x="206" y="505" on="0"/>
        <pt x="255" y="520" on="0"/>
        <pt x="288" y="520" on="1"/>
        <pt x="348" y="520" on="0"/>
        <pt x="430" y="465" on="0"/>
        <pt x="447" y="410" on="1"/>
        <pt x="450" y="410" on="1"/>
        <pt x="464" y="458" on="0"/>
        <pt x="545" y="520" on="0"/>
        <pt x="614" y="520" on="1"/>
        <pt x="698" y="520" on="0"/>
        <pt x="786" y="421" on="0"/>
        <pt x="786" y="326" on="1"/>
        <pt x="786" y="0" on="1"/>
        <pt x="751" y="0" on="1"/>
        <pt x="751" y="321" on="1"/>
        <pt x="751" y="407" on="0"/>
        <pt x="679" y="489" on="0"/>
        <pt x="607" y="489" on="1"/>
        <pt x="578" y="489" on="0"/>
        <pt x="525" y="473" on="0"/>
        <pt x="485" y="441" on="0"/>
        <pt x="461" y="392" on="0"/>
        <pt x="461" y="360" on="1"/>
        <pt x="461" y="0" on="1"/>
        <pt x="426" y="0" on="1"/>
        <pt x="426" y="321" on="1"/>
        <pt x="426" y="408" on="0"/>
        <pt x="352" y="489" on="0"/>
        <pt x="282" y="489" on="1"/>
        <pt x="253" y="489" on="0"/>
        <pt x="200" y="473" on="0"/>
        <pt x="159" y="441" on="0"/>
        <pt x="135" y="393" on="0"/>
        <pt x="135" y="361" on="1"/>
        <pt x="135" y="0" on="1"/>
      </contour>
    </TTGlyph>
    <TTGlyph name="macron" xMin="168" yMin="653" xMax="432" yMax="683">
      <contour>
        <pt x="168" y="683" on="1"/>
        <pt x="432" y="683" on="1"/>
        <pt x="432" y="653" on="1"/>
        <pt x="168" y="653" on="1"/>
      </contour>
    </TTGlyph>
    <TTGlyph name="macron.case" xMin="168" yMin="831" xMax="432" yMax="861">
      <contour>
        <pt x="168" y="861" on="1"/>
        <pt x="432" y="861" on="1"/>
        <pt x="432" y="831" on="1"/>
        <pt x="168" y="831" on="1"/>
      </contour>
    </TTGlyph>
    <TTGlyph name="minus" xMin="63" yMin="290" xMax="537" yMax="321">
      <contour>
        <pt x="63" y="290" on="1"/>
        <pt x="63" y="321" on="1"/>
        <pt x="537" y="321" on="1"/>
        <pt x="537" y="290" on="1"/>
      </contour>
    </TTGlyph>
    <TTGlyph name="mu" xMin="100" yMin="-200" xMax="467" yMax="508">
      <contour>
        <pt x="100" y="-200" on="1"/>
        <pt x="100" y="508" on="1"/>
        <pt x="135" y="508" on="1"/>
        <pt x="135" y="188" on="1"/>
        <pt x="135" y="101" on="0"/>
        <pt x="211" y="19" on="0"/>
        <pt x="281" y="19" on="1"/>
        <pt x="311" y="19" on="0"/>
        <pt x="365" y="35" on="0"/>
        <pt x="407" y="67" on="0"/>
        <pt x="432" y="115" on="0"/>
        <pt x="432" y="148" on="1"/>
        <pt x="432" y="508" on="1"/>
        <pt x="467" y="508" on="1"/>
        <pt x="467" y="0" on="1"/>
        <pt x="432" y="0" on="1"/>
        <pt x="432" y="78" on="1"/>
        <pt x="429" y="78" on="1"/>
        <pt x="422" y="61" on="0"/>
        <pt x="397" y="28" on="0"/>
        <pt x="360" y="3" on="0"/>
        <pt x="308" y="-12" on="0"/>
        <pt x="275" y="-12" on="1"/>
        <pt x="169" y="-12" on="0"/>
        <pt x="133" y="70" on="1"/>
        <pt x="130" y="70" on="1"/>
        <pt x="135" y="-44" on="1"/>
        <pt x="135" y="-200" on="1"/>
      </contour>
    </TTGlyph>
    <TTGlyph name="multiply" xMin="102" yMin="106" xMax="498" yMax="504">
      <contour>
        <pt x="300" y="283" on="1"/>
        <pt x="124" y="106" on="1"/>
        <pt x="102" y="128" on="1"/>
        <pt x="278" y="305" on="1"/>
        <pt x="102" y="482" on="1"/>
        <pt x="124" y="504" on="1"/>
        <pt x="300" y="327" on="1"/>
        <pt x="476" y="504" on="1"/>
        <pt x="498" y="482" on="1"/>
        <pt x="322" y="305" on="1"/>
        <pt x="498" y="128" on="1"/>
        <pt x="476" y="106" on="1"/>
      </contour>
    </TTGlyph>
    <TTGlyph name="n" xMin="100" yMin="0" xMax="467" yMax="520">
      <contour>
        <pt x="100" y="0" on="1"/>
        <pt x="100" y="508" on="1"/>
        <pt x="135" y="508" on="1"/>
        <pt x="135" y="430" on="1"/>
        <pt x="138" y="430" on="1"/>
        <pt x="153" y="467" on="0"/>
        <pt x="228" y="520" on="0"/>
        <pt x="294" y="520" on="1"/>
        <pt x="378" y="520" on="0"/>
        <pt x="467" y="421" on="0"/>
        <pt x="467" y="326" on="1"/>
        <pt x="467" y="0" on="1"/>
        <pt x="432" y="0" on="1"/>
        <pt x="432" y="320" on="1"/>
        <pt x="432" y="408" on="0"/>
        <pt x="357" y="489" on="0"/>
        <pt x="286" y="489" on="1"/>
        <pt x="257" y="489" on="0"/>
        <pt x="202" y="473" on="0"/>
        <pt x="160" y="441" on="0"/>
        <pt x="135" y="393" on="0"/>
        <pt x="135" y="361" on="1"/>
        <pt x="135" y="0" on="1"/>
      </contour>
    </TTGlyph>
    <TTGlyph name="nine" xMin="86" yMin="0" xMax="520" yMax="710">
      <contour>
        <pt x="520" y="465" on="1"/>
        <pt x="520" y="382" on="0"/>
        <pt x="477" y="241" on="0"/>
        <pt x="404" y="125" on="0"/>
        <pt x="307" y="34" on="0"/>
        <pt x="253" y="0" on="1"/>
        <pt x="203" y="0" on="1"/>
        <pt x="262" y="39" on="0"/>
        <pt x="355" y="121" on="0"/>
        <pt x="423" y="214" on="0"/>
        <pt x="468" y="319" on="0"/>
        <pt x="480" y="381" on="1"/>
        <pt x="476" y="382" on="1"/>
        <pt x="450" y="331" on="0"/>
        <pt x="360" y="277" on="0"/>
        <pt x="297" y="277" on="1"/>
        <pt x="249" y="277" on="0"/>
        <pt x="172" y="306" on="0"/>
        <pt x="116" y="362" on="0"/>
        <pt x="86" y="440" on="0"/>
        <pt x="86" y="490" on="1"/>
        <pt x="86" y="539" on="0"/>
        <pt x="116" y="621" on="0"/>
        <pt x="173" y="678" on="0"/>
        <pt x="252" y="710" on="0"/>
        <pt x="302" y="710" on="1"/>
        <pt x="358" y="710" on="0"/>
        <pt x="440" y="673" on="0"/>
        <pt x="494" y="608" on="0"/>
        <pt x="520" y="518" on="0"/>
      </contour>
      <contour>
        <pt x="303" y="309" on="1"/>
        <pt x="345" y="309" on="0"/>
        <pt x="412" y="335" on="0"/>
        <pt x="457" y="380" on="0"/>
        <pt x="481" y="443" on="0"/>
        <pt x="481" y="480" on="1"/>
        <pt x="481" y="504" on="1"/>
        <pt x="481" y="542" on="0"/>
        <pt x="456" y="605" on="0"/>
        <pt x="410" y="651" on="0"/>
        <pt x="344" y="677" on="0"/>
        <pt x="303" y="677" on="1"/>
        <pt x="261" y="677" on="0"/>
        <pt x="195" y="652" on="0"/>
        <pt x="149" y="606" on="0"/>
        <pt x="125" y="543" on="0"/>
        <pt x="125" y="506" on="1"/>
        <pt x="125" y="480" on="1"/>
        <pt x="125" y="443" on="0"/>
        <pt x="149" y="380" on="0"/>
        <pt x="195" y="335" on="0"/>
        <pt x="261" y="309" on="0"/>
      </contour>
    </TTGlyph>
    <TTGlyph name="nine.loclIWR" xMin="94" yMin="0" xMax="506" yMax="610">
      <contour>
        <pt x="299" y="610" on="1"/>
        <pt x="352" y="610" on="0"/>
        <pt x="430" y="578" on="0"/>
        <pt x="481" y="521" on="0"/>
        <pt x="506" y="444" on="0"/>
        <pt x="506" y="398" on="1"/>
        <pt x="506" y="330" on="0"/>
        <pt x="469" y="212" on="0"/>
        <pt x="403" y="111" on="0"/>
        <pt x="313" y="30" on="0"/>
        <pt x="260" y="0" on="1"/>
        <pt x="211" y="0" on="1"/>
        <pt x="268" y="34" on="0"/>
        <pt x="354" y="106" on="0"/>
        <pt x="417" y="184" on="0"/>
        <pt x="457" y="273" on="0"/>
        <pt x="467" y="324" on="1"/>
        <pt x="463" y="325" on="1"/>
        <pt x="439" y="280" on="0"/>
        <pt x="351" y="235" on="0"/>
        <pt x="294" y="235" on="1"/>
        <pt x="249" y="235" on="0"/>
        <pt x="175" y="261" on="0"/>
        <pt x="123" y="309" on="0"/>
        <pt x="94" y="377" on="0"/>
        <pt x="94" y="419" on="1"/>
        <pt x="94" y="462" on="0"/>
        <pt x="123" y="532" on="0"/>
        <pt x="177" y="582" on="0"/>
        <pt x="252" y="610" on="0"/>
      </contour>
      <contour>
        <pt x="300" y="579" on="1"/>
        <pt x="260" y="579" on="0"/>
        <pt x="198" y="557" on="0"/>
        <pt x="155" y="518" on="0"/>
        <pt x="132" y="464" on="0"/>
        <pt x="132" y="433" on="1"/>
        <pt x="132" y="412" on="1"/>
        <pt x="132" y="380" on="0"/>
        <pt x="155" y="327" on="0"/>
        <pt x="198" y="288" on="0"/>
        <pt x="260" y="266" on="0"/>
        <pt x="300" y="266" on="1"/>
        <pt x="340" y="266" on="0"/>
        <pt x="402" y="288" on="0"/>
        <pt x="445" y="327" on="0"/>
        <pt x="468" y="380" on="0"/>
        <pt x="468" y="412" on="1"/>
        <pt x="468" y="433" on="1"/>
        <pt x="468" y="464" on="0"/>
        <pt x="445" y="518" on="0"/>
        <pt x="402" y="557" on="0"/>
        <pt x="340" y="579" on="0"/>
      </contour>
    </TTGlyph>
    <TTGlyph name="notequal" xMin="63" yMin="87" xMax="537" yMax="524">
      <contour>
        <pt x="155" y="87" on="1"/>
        <pt x="221" y="198" on="1"/>
        <pt x="63" y="198" on="1"/>
        <pt x="63" y="229" on="1"/>
        <pt x="238" y="229" on="1"/>
        <pt x="329" y="382" on="1"/>
        <pt x="63" y="382" on="1"/>
        <pt x="63" y="413" on="1"/>
        <pt x="346" y="413" on="1"/>
        <pt x="412" y="524" on="1"/>
        <pt x="445" y="524" on="1"/>
        <pt x="379" y="413" on="1"/>
        <pt x="537" y="413" on="1"/>
        <pt x="537" y="382" on="1"/>
        <pt x="362" y="382" on="1"/>
        <pt x="271" y="229" on="1"/>
        <pt x="537" y="229" on="1"/>
        <pt x="537" y="198" on="1"/>
        <pt x="254" y="198" on="1"/>
        <pt x="188" y="87" on="1"/>
      </contour>
    </TTGlyph>
    <TTGlyph name="ntilde" xMin="100" yMin="0" xMax="467" yMax="708">
      <component glyphName="n" x="0" y="0" flags="0x204"/>
      <component glyphName="tilde" x="-14" y="0" flags="0x4"/>
    </TTGlyph>
    <TTGlyph name="numbersign" xMin="68" yMin="0" xMax="643" yMax="698">
      <contour>
        <pt x="422" y="216" on="1"/>
        <pt x="244" y="216" on="1"/>
        <pt x="206" y="0" on="1"/>
        <pt x="175" y="0" on="1"/>
        <pt x="212" y="216" on="1"/>
        <pt x="68" y="216" on="1"/>
        <pt x="68" y="245" on="1"/>
        <pt x="218" y="245" on="1"/>
        <pt x="253" y="453" on="1"/>
        <pt x="107" y="453" on="1"/>
        <pt x="107" y="482" on="1"/>
        <pt x="258" y="482" on="1"/>
        <pt x="295" y="698" on="1"/>
        <pt x="326" y="698" on="1"/>
        <pt x="289" y="482" on="1"/>
        <pt x="467" y="482" on="1"/>
        <pt x="504" y="698" on="1"/>
        <pt x="536" y="698" on="1"/>
        <pt x="498" y="482" on="1"/>
        <pt x="643" y="482" on="1"/>
        <pt x="643" y="453" on="1"/>
        <pt x="493" y="453" on="1"/>
        <pt x="458" y="245" on="1"/>
        <pt x="604" y="245" on="1"/>
        <pt x="604" y="216" on="1"/>
        <pt x="453" y="216" on="1"/>
        <pt x="416" y="0" on="1"/>
        <pt x="384" y="0" on="1"/>
      </contour>
      <contour>
        <pt x="427" y="245" on="1"/>
        <pt x="462" y="453" on="1"/>
        <pt x="284" y="453" on="1"/>
        <pt x="248" y="245" on="1"/>
      </contour>
    </TTGlyph>
    <TTGlyph name="o" xMin="57" yMin="-12" xMax="487" yMax="520">
      <contour>
        <pt x="272" y="-12" on="1"/>
        <pt x="172" y="-12" on="0"/>
        <pt x="57" y="124" on="0"/>
        <pt x="57" y="254" on="1"/>
        <pt x="57" y="385" on="0"/>
        <pt x="172" y="520" on="0"/>
        <pt x="272" y="520" on="1"/>
        <pt x="372" y="520" on="0"/>
        <pt x="487" y="385" on="0"/>
        <pt x="487" y="254" on="1"/>
        <pt x="487" y="124" on="0"/>
        <pt x="372" y="-12" on="0"/>
      </contour>
      <contour>
        <pt x="272" y="19" on="1"/>
        <pt x="357" y="19" on="0"/>
        <pt x="449" y="130" on="0"/>
        <pt x="449" y="227" on="1"/>
        <pt x="449" y="281" on="1"/>
        <pt x="449" y="379" on="0"/>
        <pt x="357" y="489" on="0"/>
        <pt x="272" y="489" on="1"/>
        <pt x="187" y="489" on="0"/>
        <pt x="95" y="379" on="0"/>
        <pt x="95" y="281" on="1"/>
        <pt x="95" y="227" on="1"/>
        <pt x="95" y="130" on="0"/>
        <pt x="187" y="19" on="0"/>
      </contour>
    </TTGlyph>
    <TTGlyph name="oacute" xMin="57" yMin="-12" xMax="487" yMax="758">
      <component glyphName="o" x="0" y="0" flags="0x204"/>
      <component glyphName="acute" x="-27" y="0" flags="0x4"/>
    </TTGlyph>
    <TTGlyph name="ocircumflex" xMin="57" yMin="-12" xMax="487" yMax="748">
      <component glyphName="o" x="0" y="0" flags="0x204"/>
      <component glyphName="circumflex" x="-27" y="0" flags="0x4"/>
    </TTGlyph>
    <TTGlyph name="odieresis" xMin="57" yMin="-12" xMax="487" yMax="698">
      <component glyphName="o" x="0" y="0" flags="0x204"/>
      <component glyphName="dieresis" x="-27" y="0" flags="0x4"/>
    </TTGlyph>
    <TTGlyph name="oe" xMin="57" yMin="-12" xMax="873" yMax="520">
      <contour>
        <pt x="272" y="19" on="1"/>
        <pt x="357" y="19" on="0"/>
        <pt x="449" y="130" on="0"/>
        <pt x="449" y="227" on="1"/>
        <pt x="449" y="281" on="1"/>
        <pt x="449" y="379" on="0"/>
        <pt x="357" y="489" on="0"/>
        <pt x="272" y="489" on="1"/>
        <pt x="187" y="489" on="0"/>
        <pt x="95" y="379" on="0"/>
        <pt x="95" y="281" on="1"/>
        <pt x="95" y="227" on="1"/>
        <pt x="95" y="130" on="0"/>
        <pt x="187" y="19" on="0"/>
      </contour>
      <contour>
        <pt x="835" y="280" on="1"/>
        <pt x="835" y="286" on="1"/>
        <pt x="835" y="332" on="0"/>
        <pt x="810" y="407" on="0"/>
        <pt x="765" y="460" on="0"/>
        <pt x="702" y="489" on="0"/>
        <pt x="663" y="489" on="1"/>
        <pt x="580" y="489" on="0"/>
        <pt x="487" y="378" on="0"/>
        <pt x="487" y="284" on="1"/>
        <pt x="487" y="280" on="1"/>
      </contour>
      <contour>
        <pt x="668" y="-12" on="1"/>
        <pt x="591" y="-12" on="0"/>
        <pt x="491" y="65" on="0"/>
        <pt x="470" y="136" on="1"/>
        <pt x="466" y="136" on="1"/>
        <pt x="446" y="64" on="0"/>
        <pt x="347" y="-12" on="0"/>
        <pt x="272" y="-12" on="1"/>
        <pt x="172" y="-12" on="0"/>
        <pt x="57" y="124" on="0"/>
        <pt x="57" y="254" on="1"/>
        <pt x="57" y="385" on="0"/>
        <pt x="172" y="520" on="0"/>
        <pt x="272" y="520" on="1"/>
        <pt x="346" y="520" on="0"/>
        <pt x="447" y="446" on="0"/>
        <pt x="467" y="374" on="1"/>
        <pt x="471" y="374" on="1"/>
        <pt x="491" y="445" on="0"/>
        <pt x="590" y="520" on="0"/>
        <pt x="663" y="520" on="1"/>
        <pt x="710" y="520" on="0"/>
        <pt x="788" y="484" on="0"/>
        <pt x="843" y="418" on="0"/>
        <pt x="873" y="325" on="0"/>
        <pt x="873" y="268" on="1"/>
        <pt x="873" y="252" on="1"/>
        <pt x="487" y="252" on="1"/>
        <pt x="487" y="225" on="1"/>
        <pt x="487" y="178" on="0"/>
        <pt x="511" y="102" on="0"/>
        <pt x="558" y="48" on="0"/>
        <pt x="625" y="19" on="0"/>
        <pt x="668" y="19" on="1"/>
        <pt x="789" y="19" on="0"/>
        <pt x="835" y="135" on="1"/>
        <pt x="862" y="120" on="1"/>
        <pt x="839" y="60" on="0"/>
        <pt x="740" y="-12" on="0"/>
      </contour>
    </TTGlyph>
    <TTGlyph name="ogonek" xMin="161" yMin="-203" xMax="322" yMax="17">
      <contour>
        <pt x="243" y="-203" on="1"/>
        <pt x="208" y="-203" on="0"/>
        <pt x="161" y="-169" on="0"/>
        <pt x="161" y="-134" on="1"/>
        <pt x="161" y="-102" on="0"/>
        <pt x="212" y="-36" on="0"/>
        <pt x="276" y="2" on="1"/>
        <pt x="271" y="14" on="1"/>
        <pt x="299" y="17" on="1"/>
        <pt x="306" y="0" on="1"/>
        <pt x="276" y="-21" on="0"/>
        <pt x="232" y="-55" on="0"/>
        <pt x="205" y="-85" on="0"/>
        <pt x="192" y="-114" on="0"/>
        <pt x="192" y="-130" on="1"/>
        <pt x="192" y="-155" on="0"/>
        <pt x="221" y="-177" on="0"/>
        <pt x="244" y="-177" on="1"/>
        <pt x="266" y="-177" on="0"/>
        <pt x="293" y="-162" on="0"/>
        <pt x="301" y="-152" on="1"/>
        <pt x="322" y="-170" on="1"/>
        <pt x="312" y="-184" on="0"/>
        <pt x="272" y="-203" on="0"/>
      </contour>
    </TTGlyph>
    <TTGlyph name="ograve" xMin="57" yMin="-12" xMax="487" yMax="758">
      <component glyphName="o" x="0" y="0" flags="0x204"/>
      <component glyphName="grave" x="-27" y="0" flags="0x4"/>
    </TTGlyph>
    <TTGlyph name="one" xMin="73" yMin="0" xMax="545" yMax="698">
      <contour>
        <pt x="92" y="0" on="1"/>
        <pt x="92" y="33" on="1"/>
        <pt x="305" y="33" on="1"/>
        <pt x="305" y="671" on="1"/>
        <pt x="301" y="671" on="1"/>
        <pt x="95" y="494" on="1"/>
        <pt x="73" y="519" on="1"/>
        <pt x="282" y="698" on="1"/>
        <pt x="342" y="698" on="1"/>
        <pt x="342" y="33" on="1"/>
        <pt x="545" y="33" on="1"/>
        <pt x="545" y="0" on="1"/>
      </contour>
    </TTGlyph>
    <TTGlyph name="one.loclIWR" xMin="89" yMin="0" xMax="536" yMax="598">
      <contour>
        <pt x="107" y="31" on="1"/>
        <pt x="308" y="31" on="1"/>
        <pt x="308" y="573" on="1"/>
        <pt x="304" y="573" on="1"/>
        <pt x="111" y="417" on="1"/>
        <pt x="89" y="441" on="1"/>
        <pt x="286" y="598" on="1"/>
        <pt x="345" y="598" on="1"/>
        <pt x="345" y="31" on="1"/>
        <pt x="536" y="31" on="1"/>
        <pt x="536" y="0" on="1"/>
        <pt x="107" y="0" on="1"/>
      </contour>
    </TTGlyph>
    <TTGlyph name="onehalf" xMin="45" yMin="0" xMax="835" yMax="698">
      <component glyphName="onesuperior" x="0" y="0" flags="0x4"/>
      <component glyphName="fraction" x="381" y="0" flags="0x4"/>
      <component glyphName="uni2082" x="532" y="0" flags="0x4"/>
    </TTGlyph>
    <TTGlyph name="onequarter" xMin="45" yMin="0" xMax="825" yMax="698">
      <component glyphName="onesuperior" x="0" y="0" flags="0x4"/>
      <component glyphName="fraction" x="381" y="0" flags="0x4"/>
      <component glyphName="uni2084" x="505" y="0" flags="0x4"/>
    </TTGlyph>
    <TTGlyph name="onesuperior" xMin="45" yMin="329" xMax="326" yMax="698">
      <contour>
        <pt x="59" y="329" on="1"/>
        <pt x="59" y="354" on="1"/>
        <pt x="183" y="354" on="1"/>
        <pt x="183" y="674" on="1"/>
        <pt x="179" y="674" on="1"/>
        <pt x="62" y="573" on="1"/>
        <pt x="45" y="592" on="1"/>
        <pt x="166" y="698" on="1"/>
        <pt x="213" y="698" on="1"/>
        <pt x="213" y="354" on="1"/>
        <pt x="326" y="354" on="1"/>
        <pt x="326" y="329" on="1"/>
      </contour>
    </TTGlyph>
    <TTGlyph name="ordfeminine" xMin="40" yMin="356" xMax="336" yMax="704">
      <contour>
        <pt x="292" y="362" on="1"/>
        <pt x="263" y="362" on="0"/>
        <pt x="263" y="389" on="1"/>
        <pt x="263" y="411" on="1"/>
        <pt x="261" y="411" on="1"/>
        <pt x="250" y="390" on="0"/>
        <pt x="197" y="356" on="0"/>
        <pt x="149" y="356" on="1"/>
        <pt x="95" y="356" on="0"/>
        <pt x="40" y="406" on="0"/>
        <pt x="40" y="447" on="1"/>
        <pt x="40" y="492" on="0"/>
        <pt x="101" y="543" on="0"/>
        <pt x="172" y="543" on="1"/>
        <pt x="262" y="543" on="1"/>
        <pt x="262" y="592" on="1"/>
        <pt x="262" y="637" on="0"/>
        <pt x="214" y="679" on="0"/>
        <pt x="169" y="679" on="1"/>
        <pt x="136" y="679" on="0"/>
        <pt x="85" y="651" on="0"/>
        <pt x="72" y="622" on="1"/>
        <pt x="50" y="636" on="1"/>
        <pt x="64" y="666" on="0"/>
        <pt x="122" y="704" on="0"/>
        <pt x="170" y="704" on="1"/>
        <pt x="227" y="704" on="0"/>
        <pt x="292" y="647" on="0"/>
        <pt x="292" y="595" on="1"/>
        <pt x="292" y="388" on="1"/>
        <pt x="336" y="388" on="1"/>
        <pt x="336" y="362" on="1"/>
      </contour>
      <contour>
        <pt x="152" y="381" on="1"/>
        <pt x="174" y="381" on="0"/>
        <pt x="214" y="391" on="0"/>
        <pt x="244" y="411" on="0"/>
        <pt x="262" y="441" on="0"/>
        <pt x="262" y="461" on="1"/>
        <pt x="262" y="519" on="1"/>
        <pt x="171" y="519" on="1"/>
        <pt x="117" y="519" on="0"/>
        <pt x="71" y="485" on="0"/>
        <pt x="71" y="455" on="1"/>
        <pt x="71" y="443" on="1"/>
        <pt x="71" y="413" on="0"/>
        <pt x="115" y="381" on="0"/>
      </contour>
    </TTGlyph>
    <TTGlyph name="ordmasculine" xMin="46" yMin="356" xMax="328" yMax="704">
      <contour>
        <pt x="187" y="356" on="1"/>
        <pt x="119" y="356" on="0"/>
        <pt x="46" y="449" on="0"/>
        <pt x="46" y="530" on="1"/>
        <pt x="46" y="611" on="0"/>
        <pt x="119" y="704" on="0"/>
        <pt x="187" y="704" on="1"/>
        <pt x="255" y="704" on="0"/>
        <pt x="328" y="611" on="0"/>
        <pt x="328" y="530" on="1"/>
        <pt x="328" y="449" on="0"/>
        <pt x="255" y="356" on="0"/>
      </contour>
      <contour>
        <pt x="187" y="381" on="1"/>
        <pt x="214" y="381" on="0"/>
        <pt x="255" y="402" on="0"/>
        <pt x="282" y="437" on="0"/>
        <pt x="296" y="484" on="0"/>
        <pt x="296" y="510" on="1"/>
        <pt x="296" y="550" on="1"/>
        <pt x="296" y="576" on="0"/>
        <pt x="282" y="623" on="0"/>
        <pt x="255" y="658" on="0"/>
        <pt x="214" y="679" on="0"/>
        <pt x="187" y="679" on="1"/>
        <pt x="160" y="679" on="0"/>
        <pt x="119" y="658" on="0"/>
        <pt x="92" y="623" on="0"/>
        <pt x="78" y="576" on="0"/>
        <pt x="78" y="550" on="1"/>
        <pt x="78" y="510" on="1"/>
        <pt x="78" y="484" on="0"/>
        <pt x="92" y="437" on="0"/>
        <pt x="119" y="402" on="0"/>
        <pt x="160" y="381" on="0"/>
      </contour>
    </TTGlyph>
    <TTGlyph name="oslash" xMin="36" yMin="-29" xMax="509" yMax="545">
      <contour>
        <pt x="36" y="-13" on="1"/>
        <pt x="104" y="71" on="1"/>
        <pt x="81" y="104" on="0"/>
        <pt x="57" y="196" on="0"/>
        <pt x="57" y="254" on="1"/>
        <pt x="57" y="385" on="0"/>
        <pt x="172" y="520" on="0"/>
        <pt x="272" y="520" on="1"/>
        <pt x="365" y="520" on="0"/>
        <pt x="421" y="462" on="1"/>
        <pt x="488" y="545" on="1"/>
        <pt x="509" y="529" on="1"/>
        <pt x="438" y="441" on="1"/>
        <pt x="487" y="374" on="0"/>
        <pt x="487" y="254" on="1"/>
        <pt x="487" y="124" on="0"/>
        <pt x="372" y="-12" on="0"/>
        <pt x="272" y="-12" on="1"/>
        <pt x="175" y="-12" on="0"/>
        <pt x="121" y="50" on="1"/>
        <pt x="57" y="-29" on="1"/>
      </contour>
      <contour>
        <pt x="272" y="19" on="1"/>
        <pt x="357" y="19" on="0"/>
        <pt x="449" y="130" on="0"/>
        <pt x="449" y="227" on="1"/>
        <pt x="449" y="281" on="1"/>
        <pt x="449" y="362" on="0"/>
        <pt x="416" y="415" on="1"/>
        <pt x="141" y="75" on="1"/>
        <pt x="188" y="19" on="0"/>
      </contour>
      <contour>
        <pt x="95" y="227" on="1"/>
        <pt x="95" y="188" on="0"/>
        <pt x="111" y="123" on="0"/>
        <pt x="125" y="97" on="1"/>
        <pt x="400" y="436" on="1"/>
        <pt x="355" y="489" on="0"/>
        <pt x="272" y="489" on="1"/>
        <pt x="187" y="489" on="0"/>
        <pt x="95" y="379" on="0"/>
        <pt x="95" y="281" on="1"/>
      </contour>
    </TTGlyph>
    <TTGlyph name="otilde" xMin="57" yMin="-12" xMax="487" yMax="708">
      <component glyphName="o" x="0" y="0" flags="0x204"/>
      <component glyphName="tilde" x="-27" y="0" flags="0x4"/>
    </TTGlyph>
    <TTGlyph name="p" xMin="100" yMin="-200" xMax="510" yMax="520">
      <contour>
        <pt x="100" y="508" on="1"/>
        <pt x="135" y="508" on="1"/>
        <pt x="135" y="429" on="1"/>
        <pt x="138" y="429" on="1"/>
        <pt x="155" y="466" on="0"/>
        <pt x="235" y="520" on="0"/>
        <pt x="299" y="520" on="1"/>
        <pt x="399" y="520" on="0"/>
        <pt x="510" y="385" on="0"/>
        <pt x="510" y="254" on="1"/>
        <pt x="510" y="123" on="0"/>
        <pt x="399" y="-12" on="0"/>
        <pt x="299" y="-12" on="1"/>
        <pt x="235" y="-12" on="0"/>
        <pt x="155" y="43" on="0"/>
        <pt x="138" y="79" on="1"/>
        <pt x="135" y="79" on="1"/>
        <pt x="135" y="-200" on="1"/>
        <pt x="100" y="-200" on="1"/>
      </contour>
      <contour>
        <pt x="294" y="20" on="1"/>
        <pt x="379" y="20" on="0"/>
        <pt x="472" y="130" on="0"/>
        <pt x="472" y="225" on="1"/>
        <pt x="472" y="283" on="1"/>
        <pt x="472" y="378" on="0"/>
        <pt x="379" y="489" on="0"/>
        <pt x="294" y="489" on="1"/>
        <pt x="262" y="489" on="0"/>
        <pt x="204" y="470" on="0"/>
        <pt x="161" y="437" on="0"/>
        <pt x="135" y="390" on="0"/>
        <pt x="135" y="362" on="1"/>
        <pt x="135" y="148" on="1"/>
        <pt x="135" y="119" on="0"/>
        <pt x="161" y="72" on="0"/>
        <pt x="204" y="38" on="0"/>
        <pt x="262" y="20" on="0"/>
      </contour>
    </TTGlyph>
    <TTGlyph name="paragraph" xMin="51" yMin="-149" xMax="511" yMax="698">
      <contour>
        <pt x="249" y="323" on="1"/>
        <pt x="208" y="323" on="0"/>
        <pt x="136" y="349" on="0"/>
        <pt x="82" y="398" on="0"/>
        <pt x="51" y="467" on="0"/>
        <pt x="51" y="510" on="1"/>
        <pt x="51" y="553" on="0"/>
        <pt x="82" y="623" on="0"/>
        <pt x="136" y="672" on="0"/>
        <pt x="208" y="698" on="0"/>
        <pt x="249" y="698" on="1"/>
        <pt x="511" y="698" on="1"/>
        <pt x="511" y="668" on="1"/>
        <pt x="443" y="668" on="1"/>
        <pt x="443" y="-149" on="1"/>
        <pt x="410" y="-149" on="1"/>
        <pt x="410" y="668" on="1"/>
        <pt x="282" y="668" on="1"/>
        <pt x="282" y="-149" on="1"/>
        <pt x="249" y="-149" on="1"/>
      </contour>
    </TTGlyph>
    <TTGlyph name="parenleft" xMin="100" yMin="-138" xMax="320" yMax="760">
      <contour>
        <pt x="100" y="311" on="1"/>
        <pt x="100" y="387" on="0"/>
        <pt x="131" y="522" on="0"/>
        <pt x="182" y="637" on="0"/>
        <pt x="248" y="728" on="0"/>
        <pt x="283" y="760" on="1"/>
        <pt x="320" y="760" on="1"/>
        <pt x="282" y="726" on="0"/>
        <pt x="215" y="634" on="0"/>
        <pt x="164" y="523" on="0"/>
        <pt x="134" y="399" on="0"/>
        <pt x="134" y="334" on="1"/>
        <pt x="134" y="288" on="1"/>
        <pt x="134" y="223" on="0"/>
        <pt x="164" y="98" on="0"/>
        <pt x="215" y="-12" on="0"/>
        <pt x="282" y="-105" on="0"/>
        <pt x="320" y="-138" on="1"/>
        <pt x="283" y="-138" on="1"/>
        <pt x="248" y="-106" on="0"/>
        <pt x="182" y="-15" on="0"/>
        <pt x="131" y="100" on="0"/>
        <pt x="100" y="235" on="0"/>
      </contour>
    </TTGlyph>
    <TTGlyph name="parenright" xMin="13" yMin="-138" xMax="233" yMax="760">
      <contour>
        <pt x="233" y="311" on="1"/>
        <pt x="233" y="235" on="0"/>
        <pt x="202" y="100" on="0"/>
        <pt x="151" y="-15" on="0"/>
        <pt x="85" y="-106" on="0"/>
        <pt x="50" y="-138" on="1"/>
        <pt x="13" y="-138" on="1"/>
        <pt x="51" y="-104" on="0"/>
        <pt x="118" y="-12" on="0"/>
        <pt x="169" y="99" on="0"/>
        <pt x="199" y="223" on="0"/>
        <pt x="199" y="288" on="1"/>
        <pt x="199" y="334" on="1"/>
        <pt x="199" y="399" on="0"/>
        <pt x="169" y="524" on="0"/>
        <pt x="118" y="634" on="0"/>
        <pt x="51" y="727" on="0"/>
        <pt x="13" y="760" on="1"/>
        <pt x="50" y="760" on="1"/>
        <pt x="85" y="728" on="0"/>
        <pt x="151" y="637" on="0"/>
        <pt x="202" y="522" on="0"/>
        <pt x="233" y="387" on="0"/>
      </contour>
    </TTGlyph>
    <TTGlyph name="partialdiff" xMin="73" yMin="-12" xMax="503" yMax="698">
      <contour>
        <pt x="503" y="253" on="1"/>
        <pt x="503" y="127" on="0"/>
        <pt x="387" y="-12" on="0"/>
        <pt x="288" y="-12" on="1"/>
        <pt x="239" y="-12" on="0"/>
        <pt x="160" y="23" on="0"/>
        <pt x="104" y="89" on="0"/>
        <pt x="73" y="185" on="0"/>
        <pt x="73" y="246" on="1"/>
        <pt x="73" y="307" on="0"/>
        <pt x="104" y="403" on="0"/>
        <pt x="159" y="469" on="0"/>
        <pt x="237" y="504" on="0"/>
        <pt x="285" y="504" on="1"/>
        <pt x="334" y="504" on="0"/>
        <pt x="410" y="465" on="0"/>
        <pt x="436" y="429" on="1"/>
        <pt x="439" y="431" on="1"/>
        <pt x="423" y="473" on="0"/>
        <pt x="367" y="550" on="0"/>
        <pt x="292" y="617" on="0"/>
        <pt x="203" y="674" on="0"/>
        <pt x="155" y="698" on="1"/>
        <pt x="215" y="698" on="1"/>
        <pt x="257" y="674" on="0"/>
        <pt x="357" y="605" on="0"/>
        <pt x="445" y="500" on="0"/>
        <pt x="503" y="352" on="0"/>
      </contour>
      <contour>
        <pt x="288" y="19" on="1"/>
        <pt x="327" y="19" on="0"/>
        <pt x="391" y="46" on="0"/>
        <pt x="439" y="98" on="0"/>
        <pt x="465" y="173" on="0"/>
        <pt x="465" y="220" on="1"/>
        <pt x="465" y="272" on="1"/>
        <pt x="465" y="319" on="0"/>
        <pt x="439" y="394" on="0"/>
        <pt x="392" y="445" on="0"/>
        <pt x="327" y="473" on="0"/>
        <pt x="288" y="473" on="1"/>
        <pt x="249" y="473" on="0"/>
        <pt x="184" y="446" on="0"/>
        <pt x="137" y="394" on="0"/>
        <pt x="111" y="319" on="0"/>
        <pt x="111" y="272" on="1"/>
        <pt x="111" y="220" on="1"/>
        <pt x="111" y="173" on="0"/>
        <pt x="137" y="98" on="0"/>
        <pt x="184" y="46" on="0"/>
        <pt x="249" y="19" on="0"/>
      </contour>
    </TTGlyph>
    <TTGlyph name="percent" xMin="73" yMin="-12" xMax="819" yMax="710">
      <contour>
        <pt x="186" y="0" on="1"/>
        <pt x="670" y="698" on="1"/>
        <pt x="706" y="698" on="1"/>
        <pt x="222" y="0" on="1"/>
      </contour>
      <contour>
        <pt x="218" y="323" on="1"/>
        <pt x="187" y="323" on="0"/>
        <pt x="134" y="346" on="0"/>
        <pt x="95" y="393" on="0"/>
        <pt x="73" y="466" on="0"/>
        <pt x="73" y="517" on="1"/>
        <pt x="73" y="567" on="0"/>
        <pt x="95" y="640" on="0"/>
        <pt x="134" y="687" on="0"/>
        <pt x="187" y="710" on="0"/>
        <pt x="218" y="710" on="1"/>
        <pt x="249" y="710" on="0"/>
        <pt x="302" y="687" on="0"/>
        <pt x="341" y="640" on="0"/>
        <pt x="363" y="567" on="0"/>
        <pt x="363" y="517" on="1"/>
        <pt x="363" y="466" on="0"/>
        <pt x="341" y="393" on="0"/>
        <pt x="302" y="346" on="0"/>
        <pt x="249" y="323" on="0"/>
      </contour>
      <contour>
        <pt x="218" y="348" on="1"/>
        <pt x="241" y="348" on="0"/>
        <pt x="282" y="365" on="0"/>
        <pt x="312" y="401" on="0"/>
        <pt x="330" y="458" on="0"/>
        <pt x="330" y="497" on="1"/>
        <pt x="330" y="536" on="1"/>
        <pt x="330" y="575" on="0"/>
        <pt x="312" y="632" on="0"/>
        <pt x="282" y="668" on="0"/>
        <pt x="241" y="685" on="0"/>
        <pt x="218" y="685" on="1"/>
        <pt x="195" y="685" on="0"/>
        <pt x="154" y="668" on="0"/>
        <pt x="124" y="632" on="0"/>
        <pt x="106" y="575" on="0"/>
        <pt x="106" y="536" on="1"/>
        <pt x="106" y="497" on="1"/>
        <pt x="106" y="458" on="0"/>
        <pt x="124" y="401" on="0"/>
        <pt x="154" y="365" on="0"/>
        <pt x="195" y="348" on="0"/>
      </contour>
      <contour>
        <pt x="674" y="-12" on="1"/>
        <pt x="643" y="-12" on="0"/>
        <pt x="590" y="11" on="0"/>
        <pt x="551" y="58" on="0"/>
        <pt x="529" y="131" on="0"/>
        <pt x="529" y="182" on="1"/>
        <pt x="529" y="232" on="0"/>
        <pt x="551" y="305" on="0"/>
        <pt x="590" y="352" on="0"/>
        <pt x="643" y="375" on="0"/>
        <pt x="674" y="375" on="1"/>
        <pt x="705" y="375" on="0"/>
        <pt x="758" y="352" on="0"/>
        <pt x="797" y="305" on="0"/>
        <pt x="819" y="232" on="0"/>
        <pt x="819" y="182" on="1"/>
        <pt x="819" y="131" on="0"/>
        <pt x="797" y="58" on="0"/>
        <pt x="758" y="11" on="0"/>
        <pt x="705" y="-12" on="0"/>
      </contour>
      <contour>
        <pt x="674" y="13" on="1"/>
        <pt x="697" y="13" on="0"/>
        <pt x="738" y="30" on="0"/>
        <pt x="768" y="66" on="0"/>
        <pt x="786" y="123" on="0"/>
        <pt x="786" y="162" on="1"/>
        <pt x="786" y="201" on="1"/>
        <pt x="786" y="240" on="0"/>
        <pt x="768" y="297" on="0"/>
        <pt x="738" y="333" on="0"/>
        <pt x="697" y="350" on="0"/>
        <pt x="674" y="350" on="1"/>
        <pt x="651" y="350" on="0"/>
        <pt x="610" y="333" on="0"/>
        <pt x="580" y="297" on="0"/>
        <pt x="562" y="240" on="0"/>
        <pt x="562" y="201" on="1"/>
        <pt x="562" y="162" on="1"/>
        <pt x="562" y="123" on="0"/>
        <pt x="580" y="66" on="0"/>
        <pt x="610" y="30" on="0"/>
        <pt x="651" y="13" on="0"/>
      </contour>
    </TTGlyph>
    <TTGlyph name="period" xMin="89" yMin="-7" xMax="159" yMax="68">
      <contour>
        <pt x="124" y="-7" on="1"/>
        <pt x="107" y="-7" on="0"/>
        <pt x="89" y="11" on="0"/>
        <pt x="89" y="26" on="1"/>
        <pt x="89" y="35" on="1"/>
        <pt x="89" y="50" on="0"/>
        <pt x="107" y="68" on="0"/>
        <pt x="124" y="68" on="1"/>
        <pt x="141" y="68" on="0"/>
        <pt x="159" y="50" on="0"/>
        <pt x="159" y="35" on="1"/>
        <pt x="159" y="26" on="1"/>
        <pt x="159" y="11" on="0"/>
        <pt x="141" y="-7" on="0"/>
      </contour>
    </TTGlyph>
    <TTGlyph name="periodcentered" xMin="118" yMin="268" xMax="188" yMax="343">
      <contour>
        <pt x="153" y="268" on="1"/>
        <pt x="136" y="268" on="0"/>
        <pt x="118" y="286" on="0"/>
        <pt x="118" y="301" on="1"/>
        <pt x="118" y="310" on="1"/>
        <pt x="118" y="325" on="0"/>
        <pt x="136" y="343" on="0"/>
        <pt x="153" y="343" on="1"/>
        <pt x="170" y="343" on="0"/>
        <pt x="188" y="325" on="0"/>
        <pt x="188" y="310" on="1"/>
        <pt x="188" y="301" on="1"/>
        <pt x="188" y="286" on="0"/>
        <pt x="170" y="268" on="0"/>
      </contour>
    </TTGlyph>
    <TTGlyph name="perthousand" xMin="73" yMin="-12" xMax="1180" yMax="710">
      <contour>
        <pt x="186" y="0" on="1"/>
        <pt x="670" y="698" on="1"/>
        <pt x="706" y="698" on="1"/>
        <pt x="222" y="0" on="1"/>
      </contour>
      <contour>
        <pt x="218" y="323" on="1"/>
        <pt x="187" y="323" on="0"/>
        <pt x="134" y="346" on="0"/>
        <pt x="95" y="393" on="0"/>
        <pt x="73" y="466" on="0"/>
        <pt x="73" y="517" on="1"/>
        <pt x="73" y="567" on="0"/>
        <pt x="95" y="640" on="0"/>
        <pt x="134" y="687" on="0"/>
        <pt x="187" y="710" on="0"/>
        <pt x="218" y="710" on="1"/>
        <pt x="249" y="710" on="0"/>
        <pt x="302" y="687" on="0"/>
        <pt x="341" y="640" on="0"/>
        <pt x="363" y="567" on="0"/>
        <pt x="363" y="517" on="1"/>
        <pt x="363" y="466" on="0"/>
        <pt x="341" y="393" on="0"/>
        <pt x="302" y="346" on="0"/>
        <pt x="249" y="323" on="0"/>
      </contour>
      <contour>
        <pt x="218" y="348" on="1"/>
        <pt x="241" y="348" on="0"/>
        <pt x="282" y="365" on="0"/>
        <pt x="312" y="401" on="0"/>
        <pt x="330" y="458" on="0"/>
        <pt x="330" y="497" on="1"/>
        <pt x="330" y="536" on="1"/>
        <pt x="330" y="575" on="0"/>
        <pt x="312" y="632" on="0"/>
        <pt x="282" y="668" on="0"/>
        <pt x="241" y="685" on="0"/>
        <pt x="218" y="685" on="1"/>
        <pt x="195" y="685" on="0"/>
        <pt x="154" y="668" on="0"/>
        <pt x="124" y="632" on="0"/>
        <pt x="106" y="575" on="0"/>
        <pt x="106" y="536" on="1"/>
        <pt x="106" y="497" on="1"/>
        <pt x="106" y="458" on="0"/>
        <pt x="124" y="401" on="0"/>
        <pt x="154" y="365" on="0"/>
        <pt x="195" y="348" on="0"/>
      </contour>
      <contour>
        <pt x="674" y="-12" on="1"/>
        <pt x="643" y="-12" on="0"/>
        <pt x="590" y="11" on="0"/>
        <pt x="551" y="58" on="0"/>
        <pt x="529" y="131" on="0"/>
        <pt x="529" y="182" on="1"/>
        <pt x="529" y="232" on="0"/>
        <pt x="551" y="305" on="0"/>
        <pt x="590" y="352" on="0"/>
        <pt x="643" y="375" on="0"/>
        <pt x="674" y="375" on="1"/>
        <pt x="705" y="375" on="0"/>
        <pt x="758" y="352" on="0"/>
        <pt x="797" y="305" on="0"/>
        <pt x="819" y="232" on="0"/>
        <pt x="819" y="182" on="1"/>
        <pt x="819" y="131" on="0"/>
        <pt x="797" y="58" on="0"/>
        <pt x="758" y="11" on="0"/>
        <pt x="705" y="-12" on="0"/>
      </contour>
      <contour>
        <pt x="674" y="13" on="1"/>
        <pt x="697" y="13" on="0"/>
        <pt x="738" y="30" on="0"/>
        <pt x="768" y="66" on="0"/>
        <pt x="786" y="123" on="0"/>
        <pt x="786" y="162" on="1"/>
        <pt x="786" y="201" on="1"/>
        <pt x="786" y="240" on="0"/>
        <pt x="768" y="297" on="0"/>
        <pt x="738" y="333" on="0"/>
        <pt x="697" y="350" on="0"/>
        <pt x="674" y="350" on="1"/>
        <pt x="651" y="350" on="0"/>
        <pt x="610" y="333" on="0"/>
        <pt x="580" y="297" on="0"/>
        <pt x="562" y="240" on="0"/>
        <pt x="562" y="201" on="1"/>
        <pt x="562" y="162" on="1"/>
        <pt x="562" y="123" on="0"/>
        <pt x="580" y="66" on="0"/>
        <pt x="610" y="30" on="0"/>
        <pt x="651" y="13" on="0"/>
      </contour>
      <contour>
        <pt x="1035" y="-12" on="1"/>
        <pt x="1004" y="-12" on="0"/>
        <pt x="951" y="11" on="0"/>
        <pt x="912" y="58" on="0"/>
        <pt x="890" y="131" on="0"/>
        <pt x="890" y="182" on="1"/>
        <pt x="890" y="232" on="0"/>
        <pt x="912" y="305" on="0"/>
        <pt x="951" y="352" on="0"/>
        <pt x="1004" y="375" on="0"/>
        <pt x="1035" y="375" on="1"/>
        <pt x="1066" y="375" on="0"/>
        <pt x="1119" y="352" on="0"/>
        <pt x="1158" y="305" on="0"/>
        <pt x="1180" y="232" on="0"/>
        <pt x="1180" y="182" on="1"/>
        <pt x="1180" y="131" on="0"/>
        <pt x="1158" y="58" on="0"/>
        <pt x="1119" y="11" on="0"/>
        <pt x="1066" y="-12" on="0"/>
      </contour>
      <contour>
        <pt x="1035" y="13" on="1"/>
        <pt x="1058" y="13" on="0"/>
        <pt x="1099" y="30" on="0"/>
        <pt x="1129" y="66" on="0"/>
        <pt x="1147" y="123" on="0"/>
        <pt x="1147" y="162" on="1"/>
        <pt x="1147" y="201" on="1"/>
        <pt x="1147" y="240" on="0"/>
        <pt x="1129" y="297" on="0"/>
        <pt x="1099" y="333" on="0"/>
        <pt x="1058" y="350" on="0"/>
        <pt x="1035" y="350" on="1"/>
        <pt x="1012" y="350" on="0"/>
        <pt x="971" y="333" on="0"/>
        <pt x="941" y="297" on="0"/>
        <pt x="923" y="240" on="0"/>
        <pt x="923" y="201" on="1"/>
        <pt x="923" y="162" on="1"/>
        <pt x="923" y="123" on="0"/>
        <pt x="941" y="66" on="0"/>
        <pt x="971" y="30" on="0"/>
        <pt x="1012" y="13" on="0"/>
      </contour>
    </TTGlyph>
    <TTGlyph name="pi" xMin="29" yMin="0" xMax="561" yMax="508">
      <contour>
        <pt x="455" y="31" on="1"/>
        <pt x="527" y="31" on="1"/>
        <pt x="527" y="0" on="1"/>
        <pt x="462" y="0" on="1"/>
        <pt x="420" y="0" on="0"/>
        <pt x="420" y="42" on="1"/>
        <pt x="420" y="477" on="1"/>
        <pt x="159" y="477" on="1"/>
        <pt x="159" y="0" on="1"/>
        <pt x="124" y="0" on="1"/>
        <pt x="124" y="477" on="1"/>
        <pt x="29" y="477" on="1"/>
        <pt x="29" y="508" on="1"/>
        <pt x="561" y="508" on="1"/>
        <pt x="561" y="477" on="1"/>
        <pt x="455" y="477" on="1"/>
      </contour>
    </TTGlyph>
    <TTGlyph name="plus" xMin="63" yMin="62" xMax="537" yMax="549">
      <contour>
        <pt x="283" y="62" on="1"/>
        <pt x="283" y="290" on="1"/>
        <pt x="63" y="290" on="1"/>
        <pt x="63" y="321" on="1"/>
        <pt x="283" y="321" on="1"/>
        <pt x="283" y="549" on="1"/>
        <pt x="317" y="549" on="1"/>
        <pt x="317" y="321" on="1"/>
        <pt x="537" y="321" on="1"/>
        <pt x="537" y="290" on="1"/>
        <pt x="317" y="290" on="1"/>
        <pt x="317" y="62" on="1"/>
      </contour>
    </TTGlyph>
    <TTGlyph name="plusminus" xMin="63" yMin="0" xMax="537" yMax="606">
      <contour>
        <pt x="283" y="124" on="1"/>
        <pt x="283" y="349" on="1"/>
        <pt x="63" y="349" on="1"/>
        <pt x="63" y="380" on="1"/>
        <pt x="283" y="380" on="1"/>
        <pt x="283" y="606" on="1"/>
        <pt x="317" y="606" on="1"/>
        <pt x="317" y="380" on="1"/>
        <pt x="537" y="380" on="1"/>
        <pt x="537" y="349" on="1"/>
        <pt x="317" y="349" on="1"/>
        <pt x="317" y="124" on="1"/>
      </contour>
      <contour>
        <pt x="63" y="0" on="1"/>
        <pt x="63" y="31" on="1"/>
        <pt x="537" y="31" on="1"/>
        <pt x="537" y="0" on="1"/>
      </contour>
    </TTGlyph>
    <TTGlyph name="product" xMin="65" yMin="-200" xMax="643" yMax="698">
      <contour>
        <pt x="139" y="-200" on="1"/>
        <pt x="139" y="665" on="1"/>
        <pt x="65" y="665" on="1"/>
        <pt x="65" y="698" on="1"/>
        <pt x="643" y="698" on="1"/>
        <pt x="643" y="665" on="1"/>
        <pt x="569" y="665" on="1"/>
        <pt x="569" y="-200" on="1"/>
        <pt x="532" y="-200" on="1"/>
        <pt x="532" y="665" on="1"/>
        <pt x="176" y="665" on="1"/>
        <pt x="176" y="-200" on="1"/>
      </contour>
    </TTGlyph>
    <TTGlyph name="q" xMin="57" yMin="-200" xMax="467" yMax="520">
      <contour>
        <pt x="432" y="79" on="1"/>
        <pt x="429" y="79" on="1"/>
        <pt x="412" y="43" on="0"/>
        <pt x="332" y="-12" on="0"/>
        <pt x="268" y="-12" on="1"/>
        <pt x="168" y="-12" on="0"/>
        <pt x="57" y="123" on="0"/>
        <pt x="57" y="254" on="1"/>
        <pt x="57" y="385" on="0"/>
        <pt x="168" y="520" on="0"/>
        <pt x="268" y="520" on="1"/>
        <pt x="332" y="520" on="0"/>
        <pt x="412" y="466" on="0"/>
        <pt x="429" y="429" on="1"/>
        <pt x="432" y="429" on="1"/>
        <pt x="432" y="508" on="1"/>
        <pt x="467" y="508" on="1"/>
        <pt x="467" y="-200" on="1"/>
        <pt x="432" y="-200" on="1"/>
      </contour>
      <contour>
        <pt x="273" y="20" on="1"/>
        <pt x="305" y="20" on="0"/>
        <pt x="363" y="38" on="0"/>
        <pt x="406" y="72" on="0"/>
        <pt x="432" y="119" on="0"/>
        <pt x="432" y="148" on="1"/>
        <pt x="432" y="362" on="1"/>
        <pt x="432" y="390" on="0"/>
        <pt x="406" y="437" on="0"/>
        <pt x="363" y="470" on="0"/>
        <pt x="305" y="489" on="0"/>
        <pt x="273" y="489" on="1"/>
        <pt x="188" y="489" on="0"/>
        <pt x="95" y="378" on="0"/>
        <pt x="95" y="283" on="1"/>
        <pt x="95" y="225" on="1"/>
        <pt x="95" y="130" on="0"/>
        <pt x="188" y="20" on="0"/>
      </contour>
    </TTGlyph>
    <TTGlyph name="question" xMin="35" yMin="-7" xMax="427" yMax="710">
      <contour>
        <pt x="194" y="184" on="1"/>
        <pt x="194" y="354" on="1"/>
        <pt x="287" y="356" on="0"/>
        <pt x="389" y="444" on="0"/>
        <pt x="389" y="515" on="1"/>
        <pt x="389" y="538" on="1"/>
        <pt x="389" y="601" on="0"/>
        <pt x="309" y="678" on="0"/>
        <pt x="237" y="678" on="1"/>
        <pt x="166" y="678" on="0"/>
        <pt x="84" y="608" on="0"/>
        <pt x="67" y="546" on="1"/>
        <pt x="35" y="556" on="1"/>
        <pt x="55" y="626" on="0"/>
        <pt x="153" y="710" on="0"/>
        <pt x="238" y="710" on="1"/>
        <pt x="326" y="710" on="0"/>
        <pt x="427" y="611" on="0"/>
        <pt x="427" y="529" on="1"/>
        <pt x="427" y="439" on="0"/>
        <pt x="320" y="337" on="0"/>
        <pt x="230" y="327" on="1"/>
        <pt x="230" y="184" on="1"/>
      </contour>
      <contour>
        <pt x="212" y="-7" on="1"/>
        <pt x="195" y="-7" on="0"/>
        <pt x="177" y="11" on="0"/>
        <pt x="177" y="26" on="1"/>
        <pt x="177" y="35" on="1"/>
        <pt x="177" y="68" on="0"/>
        <pt x="212" y="68" on="1"/>
        <pt x="247" y="68" on="0"/>
        <pt x="247" y="35" on="1"/>
        <pt x="247" y="26" on="1"/>
        <pt x="247" y="11" on="0"/>
        <pt x="229" y="-7" on="0"/>
      </contour>
    </TTGlyph>
    <TTGlyph name="questiondown" xMin="36" yMin="-202" xMax="428" yMax="515">
      <contour>
        <pt x="225" y="-202" on="1"/>
        <pt x="137" y="-202" on="0"/>
        <pt x="36" y="-103" on="0"/>
        <pt x="36" y="-21" on="1"/>
        <pt x="36" y="69" on="0"/>
        <pt x="143" y="171" on="0"/>
        <pt x="233" y="181" on="1"/>
        <pt x="233" y="324" on="1"/>
        <pt x="269" y="324" on="1"/>
        <pt x="269" y="154" on="1"/>
        <pt x="176" y="152" on="0"/>
        <pt x="74" y="64" on="0"/>
        <pt x="74" y="-7" on="1"/>
        <pt x="74" y="-30" on="1"/>
        <pt x="74" y="-93" on="0"/>
        <pt x="154" y="-170" on="0"/>
        <pt x="226" y="-170" on="1"/>
        <pt x="297" y="-170" on="0"/>
        <pt x="379" y="-100" on="0"/>
        <pt x="396" y="-38" on="1"/>
        <pt x="428" y="-48" on="1"/>
        <pt x="408" y="-118" on="0"/>
        <pt x="310" y="-202" on="0"/>
      </contour>
      <contour>
        <pt x="251" y="440" on="1"/>
        <pt x="216" y="440" on="0"/>
        <pt x="216" y="473" on="1"/>
        <pt x="216" y="482" on="1"/>
        <pt x="216" y="497" on="0"/>
        <pt x="234" y="515" on="0"/>
        <pt x="251" y="515" on="1"/>
        <pt x="268" y="515" on="0"/>
        <pt x="286" y="497" on="0"/>
        <pt x="286" y="482" on="1"/>
        <pt x="286" y="473" on="1"/>
        <pt x="286" y="440" on="0"/>
      </contour>
    </TTGlyph>
    <TTGlyph name="quotedbl" xMin="96" yMin="483" xMax="287" yMax="740">
      <component glyphName="quotesingle" x="0" y="0" flags="0x4"/>
      <component glyphName="quotesingle" x="158" y="0" flags="0x4"/>
    </TTGlyph>
    <TTGlyph name="quotedblbase" xMin="48" yMin="-130" xMax="328" yMax="82">
      <component glyphName="quotesinglbase" x="0" y="0" flags="0x4"/>
      <component glyphName="quotesinglbase" x="169" y="0" flags="0x4"/>
    </TTGlyph>
    <TTGlyph name="quotedblleft" xMin="85" yMin="528" xMax="364" yMax="740">
      <component glyphName="quoteleft" x="0" y="0" flags="0x4"/>
      <component glyphName="quoteleft" x="169" y="0" flags="0x4"/>
    </TTGlyph>
    <TTGlyph name="quotedblright" xMin="53" yMin="538" xMax="333" yMax="750">
      <component glyphName="quoteright" x="0" y="0" flags="0x4"/>
      <component glyphName="quoteright" x="170" y="0" flags="0x4"/>
    </TTGlyph>
    <TTGlyph name="quoteleft" xMin="85" yMin="528" xMax="195" yMax="740">
      <contour>
        <pt x="119" y="528" on="1"/>
        <pt x="101" y="528" on="0"/>
        <pt x="85" y="547" on="0"/>
        <pt x="85" y="562" on="1"/>
        <pt x="85" y="574" on="1"/>
        <pt x="85" y="616" on="0"/>
        <pt x="130" y="708" on="0"/>
        <pt x="165" y="740" on="1"/>
        <pt x="195" y="740" on="1"/>
        <pt x="159" y="704" on="0"/>
        <pt x="126" y="632" on="0"/>
        <pt x="121" y="602" on="1"/>
        <pt x="140" y="601" on="0"/>
        <pt x="155" y="584" on="0"/>
        <pt x="155" y="572" on="1"/>
        <pt x="155" y="562" on="1"/>
        <pt x="155" y="547" on="0"/>
        <pt x="138" y="528" on="0"/>
      </contour>
    </TTGlyph>
    <TTGlyph name="quoteright" xMin="53" yMin="538" xMax="163" yMax="750">
      <contour>
        <pt x="129" y="750" on="1"/>
        <pt x="147" y="750" on="0"/>
        <pt x="163" y="731" on="0"/>
        <pt x="163" y="716" on="1"/>
        <pt x="163" y="704" on="1"/>
        <pt x="163" y="662" on="0"/>
        <pt x="118" y="570" on="0"/>
        <pt x="83" y="538" on="1"/>
        <pt x="53" y="538" on="1"/>
        <pt x="89" y="574" on="0"/>
        <pt x="122" y="646" on="0"/>
        <pt x="127" y="676" on="1"/>
        <pt x="108" y="677" on="0"/>
        <pt x="93" y="694" on="0"/>
        <pt x="93" y="706" on="1"/>
        <pt x="93" y="716" on="1"/>
        <pt x="93" y="731" on="0"/>
        <pt x="110" y="750" on="0"/>
      </contour>
    </TTGlyph>
    <TTGlyph name="quotesinglbase" xMin="48" yMin="-130" xMax="159" yMax="82">
      <contour>
        <pt x="124" y="82" on="1"/>
        <pt x="142" y="82" on="0"/>
        <pt x="159" y="63" on="0"/>
        <pt x="159" y="48" on="1"/>
        <pt x="159" y="36" on="1"/>
        <pt x="159" y="-6" on="0"/>
        <pt x="113" y="-98" on="0"/>
        <pt x="78" y="-130" on="1"/>
        <pt x="48" y="-130" on="1"/>
        <pt x="84" y="-94" on="0"/>
        <pt x="118" y="-21" on="0"/>
        <pt x="122" y="8" on="1"/>
        <pt x="103" y="9" on="0"/>
        <pt x="89" y="27" on="0"/>
        <pt x="89" y="38" on="1"/>
        <pt x="89" y="48" on="1"/>
        <pt x="89" y="63" on="0"/>
        <pt x="105" y="82" on="0"/>
      </contour>
    </TTGlyph>
    <TTGlyph name="quotesingle" xMin="96" yMin="483" xMax="129" yMax="740">
      <contour>
        <pt x="96" y="483" on="1"/>
        <pt x="96" y="740" on="1"/>
        <pt x="129" y="740" on="1"/>
        <pt x="129" y="483" on="1"/>
      </contour>
    </TTGlyph>
    <TTGlyph name="r" xMin="100" yMin="0" xMax="333" yMax="508">
      <contour>
        <pt x="100" y="0" on="1"/>
        <pt x="100" y="508" on="1"/>
        <pt x="135" y="508" on="1"/>
        <pt x="135" y="419" on="1"/>
        <pt x="139" y="419" on="1"/>
        <pt x="155" y="455" on="0"/>
        <pt x="227" y="508" on="0"/>
        <pt x="295" y="508" on="1"/>
        <pt x="333" y="508" on="1"/>
        <pt x="333" y="475" on="1"/>
        <pt x="289" y="475" on="1"/>
        <pt x="258" y="475" on="0"/>
        <pt x="202" y="459" on="0"/>
        <pt x="160" y="427" on="0"/>
        <pt x="135" y="380" on="0"/>
        <pt x="135" y="349" on="1"/>
        <pt x="135" y="0" on="1"/>
      </contour>
    </TTGlyph>
    <TTGlyph name="radical" xMin="28" yMin="0" xMax="543" yMax="698">
      <contour>
        <pt x="280" y="0" on="1"/>
        <pt x="144" y="478" on="1"/>
        <pt x="28" y="478" on="1"/>
        <pt x="28" y="508" on="1"/>
        <pt x="170" y="508" on="1"/>
        <pt x="304" y="36" on="1"/>
        <pt x="307" y="36" on="1"/>
        <pt x="508" y="698" on="1"/>
        <pt x="543" y="698" on="1"/>
        <pt x="328" y="0" on="1"/>
      </contour>
    </TTGlyph>
    <TTGlyph name="registered" xMin="36" yMin="298" xMax="432" yMax="710">
      <contour>
        <pt x="234" y="298" on="1"/>
        <pt x="192" y="298" on="0"/>
        <pt x="119" y="328" on="0"/>
        <pt x="66" y="383" on="0"/>
        <pt x="36" y="459" on="0"/>
        <pt x="36" y="504" on="1"/>
        <pt x="36" y="549" on="0"/>
        <pt x="66" y="625" on="0"/>
        <pt x="119" y="680" on="0"/>
        <pt x="192" y="710" on="0"/>
        <pt x="234" y="710" on="1"/>
        <pt x="277" y="710" on="0"/>
        <pt x="349" y="680" on="0"/>
        <pt x="402" y="625" on="0"/>
        <pt x="432" y="549" on="0"/>
        <pt x="432" y="504" on="1"/>
        <pt x="432" y="459" on="0"/>
        <pt x="402" y="383" on="0"/>
        <pt x="349" y="328" on="0"/>
        <pt x="277" y="298" on="0"/>
      </contour>
      <contour>
        <pt x="234" y="320" on="1"/>
        <pt x="271" y="320" on="0"/>
        <pt x="335" y="347" on="0"/>
        <pt x="381" y="393" on="0"/>
        <pt x="407" y="457" on="0"/>
        <pt x="407" y="494" on="1"/>
        <pt x="407" y="514" on="1"/>
        <pt x="407" y="551" on="0"/>
        <pt x="381" y="615" on="0"/>
        <pt x="335" y="661" on="0"/>
        <pt x="271" y="688" on="0"/>
        <pt x="234" y="688" on="1"/>
        <pt x="196" y="688" on="0"/>
        <pt x="133" y="661" on="0"/>
        <pt x="87" y="615" on="0"/>
        <pt x="61" y="551" on="0"/>
        <pt x="61" y="514" on="1"/>
        <pt x="61" y="494" on="1"/>
        <pt x="61" y="457" on="0"/>
        <pt x="87" y="393" on="0"/>
        <pt x="133" y="347" on="0"/>
        <pt x="196" y="320" on="0"/>
      </contour>
      <contour>
        <pt x="189" y="397" on="1"/>
        <pt x="167" y="397" on="1"/>
        <pt x="167" y="608" on="1"/>
        <pt x="250" y="608" on="1"/>
        <pt x="279" y="608" on="0"/>
        <pt x="313" y="578" on="0"/>
        <pt x="313" y="546" on="1"/>
        <pt x="313" y="520" on="0"/>
        <pt x="287" y="489" on="0"/>
        <pt x="267" y="487" on="1"/>
        <pt x="320" y="397" on="1"/>
        <pt x="295" y="397" on="1"/>
        <pt x="245" y="485" on="1"/>
        <pt x="189" y="485" on="1"/>
      </contour>
      <contour>
        <pt x="249" y="504" on="1"/>
        <pt x="289" y="504" on="0"/>
        <pt x="289" y="541" on="1"/>
        <pt x="289" y="552" on="1"/>
        <pt x="289" y="589" on="0"/>
        <pt x="249" y="589" on="1"/>
        <pt x="189" y="589" on="1"/>
        <pt x="189" y="504" on="1"/>
      </contour>
    </TTGlyph>
    <TTGlyph name="ring" xMin="204" yMin="586" xMax="396" yMax="779">
      <contour>
        <pt x="300" y="586" on="1"/>
        <pt x="257" y="586" on="0"/>
        <pt x="204" y="640" on="0"/>
        <pt x="204" y="683" on="1"/>
        <pt x="204" y="725" on="0"/>
        <pt x="257" y="779" on="0"/>
        <pt x="300" y="779" on="1"/>
        <pt x="343" y="779" on="0"/>
        <pt x="396" y="725" on="0"/>
        <pt x="396" y="683" on="1"/>
        <pt x="396" y="640" on="0"/>
        <pt x="343" y="586" on="0"/>
      </contour>
      <contour>
        <pt x="300" y="611" on="1"/>
        <pt x="331" y="611" on="0"/>
        <pt x="367" y="647" on="0"/>
        <pt x="367" y="676" on="1"/>
        <pt x="367" y="689" on="1"/>
        <pt x="367" y="719" on="0"/>
        <pt x="331" y="754" on="0"/>
        <pt x="300" y="754" on="1"/>
        <pt x="269" y="754" on="0"/>
        <pt x="233" y="719" on="0"/>
        <pt x="233" y="689" on="1"/>
        <pt x="233" y="676" on="1"/>
        <pt x="233" y="647" on="0"/>
        <pt x="269" y="611" on="0"/>
      </contour>
    </TTGlyph>
    <TTGlyph name="ring.case" xMin="204" yMin="764" xMax="396" yMax="957">
      <contour>
        <pt x="300" y="764" on="1"/>
        <pt x="257" y="764" on="0"/>
        <pt x="204" y="817" on="0"/>
        <pt x="204" y="860" on="1"/>
        <pt x="204" y="903" on="0"/>
        <pt x="257" y="957" on="0"/>
        <pt x="300" y="957" on="1"/>
        <pt x="343" y="957" on="0"/>
        <pt x="396" y="903" on="0"/>
        <pt x="396" y="860" on="1"/>
        <pt x="396" y="817" on="0"/>
        <pt x="343" y="764" on="0"/>
      </contour>
      <contour>
        <pt x="300" y="789" on="1"/>
        <pt x="331" y="789" on="0"/>
        <pt x="367" y="824" on="0"/>
        <pt x="367" y="854" on="1"/>
        <pt x="367" y="867" on="1"/>
        <pt x="367" y="896" on="0"/>
        <pt x="331" y="932" on="0"/>
        <pt x="300" y="932" on="1"/>
        <pt x="269" y="932" on="0"/>
        <pt x="233" y="896" on="0"/>
        <pt x="233" y="867" on="1"/>
        <pt x="233" y="854" on="1"/>
        <pt x="233" y="824" on="0"/>
        <pt x="269" y="789" on="0"/>
      </contour>
    </TTGlyph>
    <TTGlyph name="s" xMin="46" yMin="-12" xMax="410" yMax="520">
      <contour>
        <pt x="237" y="-12" on="1"/>
        <pt x="174" y="-12" on="0"/>
        <pt x="81" y="34" on="0"/>
        <pt x="46" y="83" on="1"/>
        <pt x="73" y="103" on="1"/>
        <pt x="107" y="58" on="0"/>
        <pt x="184" y="19" on="0"/>
        <pt x="238" y="19" on="1"/>
        <pt x="306" y="19" on="0"/>
        <pt x="376" y="75" on="0"/>
        <pt x="376" y="128" on="1"/>
        <pt x="376" y="179" on="0"/>
        <pt x="317" y="229" on="0"/>
        <pt x="256" y="239" on="1"/>
        <pt x="213" y="246" on="1"/>
        <pt x="179" y="251" on="0"/>
        <pt x="124" y="271" on="0"/>
        <pt x="85" y="304" on="0"/>
        <pt x="64" y="352" on="0"/>
        <pt x="64" y="386" on="1"/>
        <pt x="64" y="419" on="0"/>
        <pt x="89" y="469" on="0"/>
        <pt x="134" y="503" on="0"/>
        <pt x="195" y="520" on="0"/>
        <pt x="230" y="520" on="1"/>
        <pt x="294" y="520" on="0"/>
        <pt x="374" y="475" on="0"/>
        <pt x="400" y="445" on="1"/>
        <pt x="375" y="422" on="1"/>
        <pt x="364" y="435" on="0"/>
        <pt x="337" y="459" on="0"/>
        <pt x="303" y="478" on="0"/>
        <pt x="258" y="489" on="0"/>
        <pt x="229" y="489" on="1"/>
        <pt x="169" y="489" on="0"/>
        <pt x="98" y="437" on="0"/>
        <pt x="98" y="387" on="1"/>
        <pt x="98" y="336" on="0"/>
        <pt x="158" y="289" on="0"/>
        <pt x="219" y="279" on="1"/>
        <pt x="262" y="272" on="1"/>
        <pt x="333" y="261" on="0"/>
        <pt x="410" y="196" on="0"/>
        <pt x="410" y="131" on="1"/>
        <pt x="410" y="63" on="0"/>
        <pt x="318" y="-12" on="0"/>
      </contour>
    </TTGlyph>
    <TTGlyph name="scaron" xMin="46" yMin="-12" xMax="410" yMax="753">
      <component glyphName="s" x="0" y="0" flags="0x204"/>
      <component glyphName="caron" x="-72" y="0" flags="0x4"/>
    </TTGlyph>
</ttFont>
